M48
;GenerationSoftware,Autodesk,EAGLE,9.5.1*%
;CreationDate,2019-10-16T10:58:27Z*%
FMAT,2
ICI,OFF
METRIC,TZ,000.000
T2C0.350
T1C1.016
%
G90
M71
T1
X32385Y32385
X34925Y19685
X2540Y14605
X2540Y17145
X2540Y19685
X2540Y22225
X2540Y24765
X2540Y27305
X2540Y30002
X2540Y32542
X34925Y17145
X32385Y17145
X32385Y19685
X34925Y22225
X32385Y22225
X34925Y24765
X32385Y24765
X34925Y27305
X32385Y27305
X34925Y29845
X32385Y29845
X34925Y32385
T2
X23724Y11557
X30480Y30607
X30226Y22479
X12770Y10287
X18563Y14882
X36830Y11811
X13843Y3683
X33579Y13716
X26924Y13716
X30277Y13716
X19304Y2032
X19304Y1016
X9398Y2032
X9398Y1016
X12851Y6858
X15855Y7239
X11851Y6858
X18355Y7239
X9851Y6858
X19431Y9271
X18161Y15621
X18161Y16637
X18415Y17526
X16891Y2032
X16383Y18415
X26035Y19050
X17399Y18415
X25527Y18288
X11049Y13970
X18161Y10922
X17780Y11709
X16764Y12065
X15875Y22225
X7937Y8890
X6731Y6731
X24765Y10287
X6202Y7411
X27990Y10922
X5574Y8063
X31623Y11938
X17272Y7239
X34925Y11684
X35941Y11430
X26987Y9096
X30480Y9208
X23622Y13335
X18161Y12827
X10851Y6858
X20574Y9779
X23753Y12528
X18796Y11811
X9525Y27940
X13335Y31115
X15875Y27940
X15875Y23495
X16002Y2032
X15621Y14732
X17780Y2032
X20066Y4699
X20066Y5461
X20066Y6223
X6985Y17780
X6667Y14605
X15367Y18542
X10160Y10160
X25400Y23495
X25400Y33401
X33646Y9922
M30