G04 EAGLE Gerber RS-274X export*
G75*
%MOMM*%
%FSLAX34Y34*%
%LPD*%
%INBottom Copper*%
%IPPOS*%
%AMOC8*
5,1,8,0,0,1.08239X$1,22.5*%
G01*
%ADD10C,1.524000*%
%ADD11P,1.649562X8X112.500000*%
%ADD12C,0.654800*%
%ADD13C,0.152400*%

G36*
X306997Y2544D02*
X306997Y2544D01*
X307029Y2542D01*
X309913Y2731D01*
X309936Y2737D01*
X310060Y2756D01*
X315633Y4249D01*
X315647Y4255D01*
X315663Y4257D01*
X315816Y4325D01*
X320812Y7209D01*
X320831Y7224D01*
X320865Y7248D01*
X320893Y7263D01*
X320906Y7277D01*
X320933Y7296D01*
X323107Y9202D01*
X323118Y9216D01*
X323143Y9236D01*
X370797Y56890D01*
X371431Y57524D01*
X371764Y57857D01*
X371775Y57872D01*
X371798Y57893D01*
X373704Y60067D01*
X373717Y60087D01*
X373791Y60188D01*
X376675Y65184D01*
X376681Y65199D01*
X376690Y65211D01*
X376751Y65367D01*
X378244Y70940D01*
X378247Y70963D01*
X378269Y71087D01*
X378458Y73971D01*
X378456Y73990D01*
X378459Y74021D01*
X378459Y321410D01*
X378456Y321429D01*
X378458Y321460D01*
X378267Y324357D01*
X378262Y324379D01*
X378242Y324504D01*
X376737Y330098D01*
X376730Y330113D01*
X376728Y330129D01*
X376717Y330155D01*
X376716Y330158D01*
X376713Y330162D01*
X376660Y330282D01*
X373753Y335292D01*
X373738Y335311D01*
X373666Y335414D01*
X371745Y337590D01*
X371731Y337602D01*
X371711Y337627D01*
X356929Y352313D01*
X355959Y353277D01*
X355943Y353288D01*
X355922Y353311D01*
X353752Y355202D01*
X353732Y355215D01*
X353631Y355288D01*
X348650Y358150D01*
X348636Y358155D01*
X348623Y358164D01*
X348467Y358225D01*
X342916Y359706D01*
X342892Y359708D01*
X342770Y359730D01*
X339897Y359918D01*
X339879Y359916D01*
X339848Y359919D01*
X315909Y359919D01*
X315891Y359916D01*
X315860Y359918D01*
X313018Y359734D01*
X312993Y359728D01*
X312873Y359711D01*
X307377Y358261D01*
X307364Y358255D01*
X307350Y358253D01*
X307195Y358187D01*
X302251Y355383D01*
X302231Y355367D01*
X302131Y355298D01*
X299970Y353443D01*
X299958Y353429D01*
X299933Y353410D01*
X298955Y352454D01*
X297886Y351409D01*
X292581Y349253D01*
X289718Y349257D01*
X288350Y349260D01*
X38746Y349674D01*
X37379Y349676D01*
X37363Y349674D01*
X37336Y349675D01*
X32102Y349390D01*
X32070Y349383D01*
X31975Y349372D01*
X21766Y347057D01*
X21764Y347056D01*
X21763Y347056D01*
X21605Y347001D01*
X12168Y342470D01*
X12167Y342469D01*
X12165Y342469D01*
X12023Y342380D01*
X3833Y335861D01*
X3832Y335859D01*
X3830Y335859D01*
X3712Y335740D01*
X-2821Y327560D01*
X-2821Y327559D01*
X-2822Y327558D01*
X-2911Y327416D01*
X-7458Y317987D01*
X-7458Y317985D01*
X-7459Y317984D01*
X-7514Y317826D01*
X-9846Y307621D01*
X-9848Y307589D01*
X-9864Y307494D01*
X-10158Y302260D01*
X-10156Y302243D01*
X-10159Y302217D01*
X-10159Y74021D01*
X-10156Y74003D01*
X-10158Y73971D01*
X-9969Y71087D01*
X-9963Y71064D01*
X-9944Y70940D01*
X-8451Y65367D01*
X-8445Y65353D01*
X-8443Y65337D01*
X-8375Y65184D01*
X-5491Y60188D01*
X-5476Y60170D01*
X-5404Y60067D01*
X-3498Y57893D01*
X-3483Y57881D01*
X-3464Y57857D01*
X-2497Y56890D01*
X45157Y9236D01*
X45172Y9225D01*
X45193Y9202D01*
X47367Y7296D01*
X47387Y7283D01*
X47457Y7232D01*
X47473Y7219D01*
X47478Y7216D01*
X47488Y7209D01*
X52484Y4325D01*
X52499Y4319D01*
X52511Y4310D01*
X52667Y4249D01*
X58240Y2756D01*
X58263Y2753D01*
X58387Y2731D01*
X61271Y2542D01*
X61290Y2544D01*
X61321Y2541D01*
X306979Y2541D01*
X306997Y2544D01*
G37*
%LPC*%
G36*
X158032Y15521D02*
X158032Y15521D01*
X155221Y18332D01*
X155221Y22308D01*
X157510Y24597D01*
X157563Y24671D01*
X157623Y24740D01*
X157635Y24770D01*
X157654Y24796D01*
X157681Y24883D01*
X157715Y24968D01*
X157719Y25009D01*
X157726Y25032D01*
X157725Y25064D01*
X157733Y25135D01*
X157733Y49207D01*
X173043Y64517D01*
X178488Y64517D01*
X178559Y64528D01*
X178631Y64530D01*
X178680Y64548D01*
X178731Y64556D01*
X178795Y64590D01*
X178862Y64615D01*
X178903Y64647D01*
X178949Y64672D01*
X178998Y64723D01*
X179054Y64768D01*
X179082Y64812D01*
X179118Y64850D01*
X179148Y64915D01*
X179187Y64975D01*
X179200Y65026D01*
X179222Y65073D01*
X179230Y65144D01*
X179247Y65214D01*
X179243Y65266D01*
X179249Y65317D01*
X179233Y65388D01*
X179228Y65459D01*
X179208Y65507D01*
X179196Y65558D01*
X179160Y65619D01*
X179132Y65685D01*
X179087Y65741D01*
X179070Y65769D01*
X179052Y65784D01*
X179027Y65816D01*
X178737Y66106D01*
X176518Y68325D01*
X176502Y68337D01*
X176489Y68352D01*
X176402Y68408D01*
X176318Y68469D01*
X176299Y68474D01*
X176282Y68485D01*
X176182Y68510D01*
X176083Y68541D01*
X176063Y68540D01*
X176044Y68545D01*
X175941Y68537D01*
X175837Y68535D01*
X175818Y68528D01*
X175799Y68526D01*
X175704Y68486D01*
X175606Y68450D01*
X175591Y68438D01*
X175572Y68430D01*
X175441Y68325D01*
X174708Y67591D01*
X170732Y67591D01*
X167921Y70402D01*
X167921Y74383D01*
X167949Y74422D01*
X167999Y74474D01*
X168020Y74521D01*
X168051Y74563D01*
X168072Y74632D01*
X168102Y74697D01*
X168108Y74749D01*
X168123Y74798D01*
X168121Y74870D01*
X168129Y74941D01*
X168118Y74992D01*
X168117Y75044D01*
X168092Y75112D01*
X168077Y75182D01*
X168050Y75227D01*
X168032Y75275D01*
X167988Y75331D01*
X167951Y75393D01*
X167911Y75427D01*
X167879Y75467D01*
X167818Y75506D01*
X167764Y75553D01*
X167716Y75572D01*
X167672Y75600D01*
X167602Y75618D01*
X167536Y75645D01*
X167465Y75653D01*
X167433Y75661D01*
X167410Y75659D01*
X167369Y75663D01*
X163901Y75663D01*
X163830Y75652D01*
X163758Y75650D01*
X163709Y75632D01*
X163658Y75624D01*
X163595Y75590D01*
X163527Y75565D01*
X163487Y75533D01*
X163441Y75508D01*
X163392Y75457D01*
X163335Y75412D01*
X163307Y75368D01*
X163271Y75330D01*
X163241Y75265D01*
X163202Y75205D01*
X163190Y75154D01*
X163168Y75107D01*
X163160Y75036D01*
X163142Y74966D01*
X163146Y74914D01*
X163141Y74863D01*
X163156Y74792D01*
X163162Y74721D01*
X163182Y74673D01*
X163193Y74622D01*
X163230Y74561D01*
X163258Y74495D01*
X163303Y74439D01*
X163319Y74411D01*
X163337Y74396D01*
X163349Y74381D01*
X163349Y70402D01*
X160538Y67591D01*
X157501Y67591D01*
X157411Y67577D01*
X157320Y67569D01*
X157290Y67557D01*
X157258Y67552D01*
X157177Y67509D01*
X157093Y67473D01*
X157061Y67447D01*
X157040Y67436D01*
X157018Y67413D01*
X156962Y67368D01*
X156586Y66992D01*
X156582Y66986D01*
X156572Y66978D01*
X155924Y66293D01*
X154981Y66293D01*
X154973Y66292D01*
X154960Y66293D01*
X153917Y66265D01*
X153892Y66275D01*
X153836Y66281D01*
X153809Y66289D01*
X153780Y66287D01*
X153725Y66293D01*
X133325Y66293D01*
X133235Y66279D01*
X133144Y66271D01*
X133114Y66259D01*
X133082Y66254D01*
X133002Y66211D01*
X132918Y66175D01*
X132886Y66149D01*
X132865Y66138D01*
X132843Y66115D01*
X132787Y66070D01*
X130498Y63781D01*
X126522Y63781D01*
X124048Y66255D01*
X124032Y66267D01*
X124020Y66282D01*
X123932Y66339D01*
X123849Y66399D01*
X123830Y66405D01*
X123813Y66415D01*
X123712Y66441D01*
X123613Y66471D01*
X123594Y66471D01*
X123574Y66476D01*
X123471Y66468D01*
X123368Y66465D01*
X123349Y66458D01*
X123329Y66456D01*
X123234Y66416D01*
X123137Y66380D01*
X123121Y66368D01*
X123103Y66360D01*
X122972Y66255D01*
X120498Y63781D01*
X116522Y63781D01*
X114048Y66255D01*
X114032Y66267D01*
X114020Y66282D01*
X113932Y66339D01*
X113849Y66399D01*
X113830Y66405D01*
X113813Y66415D01*
X113712Y66441D01*
X113613Y66471D01*
X113594Y66471D01*
X113574Y66476D01*
X113471Y66468D01*
X113368Y66465D01*
X113349Y66458D01*
X113329Y66456D01*
X113234Y66416D01*
X113137Y66380D01*
X113121Y66368D01*
X113103Y66360D01*
X112972Y66255D01*
X110498Y63781D01*
X106522Y63781D01*
X104048Y66255D01*
X104032Y66267D01*
X104020Y66282D01*
X103932Y66339D01*
X103849Y66399D01*
X103830Y66405D01*
X103813Y66415D01*
X103712Y66441D01*
X103613Y66471D01*
X103594Y66471D01*
X103574Y66476D01*
X103471Y66468D01*
X103368Y66465D01*
X103349Y66458D01*
X103329Y66456D01*
X103234Y66416D01*
X103137Y66380D01*
X103121Y66368D01*
X103103Y66360D01*
X102972Y66255D01*
X100498Y63781D01*
X96522Y63781D01*
X93711Y66592D01*
X93711Y70568D01*
X96522Y73379D01*
X99759Y73379D01*
X99850Y73393D01*
X99940Y73401D01*
X99970Y73413D01*
X100002Y73418D01*
X100083Y73461D01*
X100167Y73497D01*
X100199Y73523D01*
X100220Y73534D01*
X100242Y73557D01*
X100298Y73602D01*
X111248Y84552D01*
X111290Y84610D01*
X111339Y84662D01*
X111361Y84709D01*
X111391Y84751D01*
X111412Y84820D01*
X111443Y84885D01*
X111448Y84937D01*
X111464Y84987D01*
X111462Y85058D01*
X111470Y85129D01*
X111459Y85180D01*
X111457Y85232D01*
X111433Y85300D01*
X111418Y85370D01*
X111391Y85415D01*
X111373Y85463D01*
X111328Y85519D01*
X111291Y85581D01*
X111252Y85615D01*
X111219Y85655D01*
X111159Y85694D01*
X111104Y85741D01*
X111056Y85760D01*
X111012Y85788D01*
X110943Y85806D01*
X110876Y85833D01*
X110805Y85841D01*
X110774Y85849D01*
X110750Y85847D01*
X110710Y85851D01*
X104641Y85851D01*
X104550Y85837D01*
X104460Y85829D01*
X104430Y85817D01*
X104398Y85812D01*
X104317Y85769D01*
X104233Y85733D01*
X104201Y85707D01*
X104180Y85696D01*
X104158Y85673D01*
X104102Y85628D01*
X83497Y65023D01*
X72125Y65023D01*
X72035Y65009D01*
X71944Y65001D01*
X71914Y64989D01*
X71882Y64984D01*
X71802Y64941D01*
X71718Y64905D01*
X71686Y64879D01*
X71665Y64868D01*
X71643Y64845D01*
X71587Y64800D01*
X69298Y62511D01*
X65322Y62511D01*
X62511Y65322D01*
X62511Y68552D01*
X62508Y68572D01*
X62510Y68591D01*
X62488Y68693D01*
X62472Y68795D01*
X62462Y68812D01*
X62458Y68832D01*
X62405Y68921D01*
X62356Y69012D01*
X62342Y69026D01*
X62332Y69043D01*
X62253Y69110D01*
X62178Y69182D01*
X62160Y69190D01*
X62145Y69203D01*
X62049Y69242D01*
X61955Y69285D01*
X61935Y69287D01*
X61917Y69295D01*
X61750Y69313D01*
X60033Y69313D01*
X57222Y72124D01*
X57222Y75074D01*
X57219Y75094D01*
X57221Y75114D01*
X57199Y75215D01*
X57183Y75317D01*
X57173Y75334D01*
X57169Y75354D01*
X57116Y75443D01*
X57068Y75534D01*
X57053Y75548D01*
X57043Y75565D01*
X56964Y75632D01*
X56889Y75704D01*
X56871Y75712D01*
X56856Y75725D01*
X56760Y75764D01*
X56666Y75807D01*
X56646Y75809D01*
X56628Y75817D01*
X56461Y75835D01*
X53754Y75835D01*
X50943Y78646D01*
X50943Y82622D01*
X53754Y85433D01*
X57730Y85433D01*
X60019Y83144D01*
X60093Y83091D01*
X60162Y83031D01*
X60192Y83019D01*
X60218Y83000D01*
X60305Y82974D01*
X60390Y82939D01*
X60431Y82935D01*
X60454Y82928D01*
X60486Y82929D01*
X60557Y82921D01*
X76730Y82921D01*
X76801Y82932D01*
X76872Y82934D01*
X76921Y82952D01*
X76973Y82961D01*
X77036Y82994D01*
X77103Y83019D01*
X77144Y83051D01*
X77190Y83076D01*
X77239Y83128D01*
X77295Y83172D01*
X77324Y83216D01*
X77359Y83254D01*
X77390Y83319D01*
X77428Y83379D01*
X77441Y83430D01*
X77463Y83477D01*
X77471Y83548D01*
X77488Y83618D01*
X77484Y83670D01*
X77490Y83722D01*
X77475Y83792D01*
X77469Y83863D01*
X77449Y83911D01*
X77438Y83962D01*
X77401Y84024D01*
X77373Y84089D01*
X77328Y84145D01*
X77312Y84173D01*
X77294Y84188D01*
X77268Y84220D01*
X74576Y86912D01*
X74576Y90149D01*
X74562Y90239D01*
X74554Y90330D01*
X74542Y90360D01*
X74537Y90392D01*
X74494Y90473D01*
X74458Y90557D01*
X74432Y90589D01*
X74421Y90610D01*
X74398Y90632D01*
X74353Y90688D01*
X59601Y105440D01*
X59527Y105493D01*
X59457Y105553D01*
X59427Y105565D01*
X59401Y105584D01*
X59314Y105611D01*
X59229Y105645D01*
X59188Y105649D01*
X59166Y105656D01*
X59134Y105655D01*
X59062Y105663D01*
X11753Y105663D01*
X888Y116528D01*
X888Y321622D01*
X6978Y327712D01*
X8320Y327712D01*
X8435Y327730D01*
X8551Y327747D01*
X8557Y327750D01*
X8563Y327751D01*
X8666Y327806D01*
X8771Y327859D01*
X8775Y327863D01*
X8780Y327866D01*
X8860Y327950D01*
X8943Y328035D01*
X8946Y328041D01*
X8950Y328045D01*
X8958Y328062D01*
X9024Y328181D01*
X10027Y330605D01*
X12600Y333177D01*
X15961Y334570D01*
X34839Y334570D01*
X38200Y333177D01*
X40773Y330605D01*
X42165Y327244D01*
X42165Y323606D01*
X40773Y320245D01*
X38200Y317672D01*
X34839Y316280D01*
X15961Y316280D01*
X12600Y317672D01*
X10027Y320245D01*
X9278Y322055D01*
X9253Y322094D01*
X9238Y322137D01*
X9189Y322198D01*
X9148Y322264D01*
X9113Y322294D01*
X9084Y322329D01*
X9019Y322371D01*
X8959Y322421D01*
X8916Y322437D01*
X8877Y322462D01*
X8801Y322481D01*
X8729Y322509D01*
X8683Y322511D01*
X8639Y322522D01*
X8561Y322516D01*
X8483Y322520D01*
X8439Y322507D01*
X8393Y322503D01*
X8322Y322473D01*
X8247Y322451D01*
X8209Y322425D01*
X8167Y322407D01*
X8060Y322322D01*
X8045Y322311D01*
X8042Y322307D01*
X8036Y322302D01*
X5685Y319951D01*
X5632Y319877D01*
X5572Y319807D01*
X5560Y319777D01*
X5541Y319751D01*
X5514Y319664D01*
X5480Y319579D01*
X5476Y319538D01*
X5469Y319516D01*
X5470Y319484D01*
X5462Y319412D01*
X5462Y118738D01*
X5476Y118647D01*
X5484Y118557D01*
X5496Y118527D01*
X5501Y118495D01*
X5544Y118414D01*
X5580Y118330D01*
X5606Y118298D01*
X5617Y118277D01*
X5640Y118255D01*
X5685Y118199D01*
X13424Y110460D01*
X13498Y110407D01*
X13568Y110347D01*
X13598Y110335D01*
X13624Y110316D01*
X13711Y110289D01*
X13796Y110255D01*
X13837Y110251D01*
X13859Y110244D01*
X13891Y110245D01*
X13963Y110237D01*
X61272Y110237D01*
X77587Y93922D01*
X77661Y93869D01*
X77731Y93809D01*
X77761Y93797D01*
X77787Y93778D01*
X77874Y93751D01*
X77959Y93717D01*
X78000Y93713D01*
X78022Y93706D01*
X78054Y93707D01*
X78126Y93699D01*
X81363Y93699D01*
X84174Y90888D01*
X84174Y86912D01*
X81482Y84220D01*
X81440Y84162D01*
X81391Y84110D01*
X81369Y84063D01*
X81338Y84021D01*
X81317Y83952D01*
X81287Y83887D01*
X81281Y83835D01*
X81266Y83786D01*
X81268Y83714D01*
X81260Y83643D01*
X81271Y83592D01*
X81272Y83540D01*
X81297Y83472D01*
X81312Y83402D01*
X81339Y83358D01*
X81357Y83309D01*
X81402Y83253D01*
X81438Y83191D01*
X81478Y83157D01*
X81510Y83117D01*
X81571Y83078D01*
X81625Y83031D01*
X81674Y83012D01*
X81717Y82984D01*
X81787Y82966D01*
X81853Y82939D01*
X81925Y82931D01*
X81956Y82924D01*
X81979Y82925D01*
X82020Y82921D01*
X85990Y82921D01*
X86081Y82936D01*
X86171Y82943D01*
X86201Y82955D01*
X86233Y82961D01*
X86314Y83003D01*
X86398Y83039D01*
X86430Y83065D01*
X86451Y83076D01*
X86473Y83099D01*
X86529Y83144D01*
X99906Y96521D01*
X177060Y96521D01*
X177150Y96535D01*
X177241Y96543D01*
X177271Y96555D01*
X177303Y96560D01*
X177384Y96603D01*
X177468Y96639D01*
X177500Y96665D01*
X177520Y96676D01*
X177543Y96699D01*
X177599Y96744D01*
X183977Y103122D01*
X184019Y103180D01*
X184068Y103232D01*
X184090Y103279D01*
X184120Y103321D01*
X184141Y103390D01*
X184172Y103455D01*
X184177Y103507D01*
X184193Y103557D01*
X184191Y103628D01*
X184199Y103699D01*
X184188Y103750D01*
X184186Y103802D01*
X184162Y103870D01*
X184146Y103940D01*
X184120Y103985D01*
X184102Y104033D01*
X184057Y104089D01*
X184020Y104151D01*
X183981Y104185D01*
X183948Y104225D01*
X183888Y104264D01*
X183833Y104311D01*
X183785Y104330D01*
X183741Y104358D01*
X183672Y104376D01*
X183605Y104403D01*
X183534Y104411D01*
X183503Y104419D01*
X183479Y104417D01*
X183438Y104421D01*
X179622Y104421D01*
X177333Y106710D01*
X177259Y106763D01*
X177190Y106823D01*
X177160Y106835D01*
X177134Y106854D01*
X177047Y106881D01*
X176962Y106915D01*
X176921Y106919D01*
X176898Y106926D01*
X176866Y106925D01*
X176795Y106933D01*
X79832Y106933D01*
X48640Y138125D01*
X48640Y192285D01*
X48626Y192376D01*
X48618Y192466D01*
X48606Y192496D01*
X48601Y192528D01*
X48558Y192609D01*
X48522Y192693D01*
X48496Y192725D01*
X48485Y192746D01*
X48462Y192768D01*
X48417Y192824D01*
X46901Y194340D01*
X46827Y194393D01*
X46757Y194453D01*
X46727Y194465D01*
X46701Y194484D01*
X46614Y194511D01*
X46529Y194545D01*
X46488Y194549D01*
X46466Y194556D01*
X46434Y194555D01*
X46362Y194563D01*
X42480Y194563D01*
X42365Y194544D01*
X42249Y194527D01*
X42243Y194525D01*
X42237Y194524D01*
X42134Y194469D01*
X42029Y194416D01*
X42025Y194411D01*
X42020Y194408D01*
X41940Y194324D01*
X41857Y194240D01*
X41854Y194234D01*
X41850Y194230D01*
X41842Y194213D01*
X41776Y194093D01*
X40773Y191670D01*
X38200Y189097D01*
X34839Y187705D01*
X15961Y187705D01*
X12600Y189097D01*
X10027Y191670D01*
X8635Y195031D01*
X8635Y198669D01*
X10027Y202030D01*
X12600Y204603D01*
X15961Y205995D01*
X34839Y205995D01*
X38200Y204603D01*
X40773Y202030D01*
X41776Y199607D01*
X41838Y199507D01*
X41898Y199407D01*
X41903Y199403D01*
X41906Y199398D01*
X41996Y199323D01*
X42085Y199247D01*
X42091Y199245D01*
X42095Y199241D01*
X42204Y199199D01*
X42313Y199155D01*
X42320Y199154D01*
X42325Y199153D01*
X42343Y199152D01*
X42480Y199137D01*
X48572Y199137D01*
X50389Y197320D01*
X50447Y197278D01*
X50499Y197229D01*
X50546Y197207D01*
X50588Y197177D01*
X50657Y197156D01*
X50722Y197125D01*
X50774Y197120D01*
X50824Y197104D01*
X50895Y197106D01*
X50966Y197098D01*
X51017Y197109D01*
X51069Y197111D01*
X51137Y197135D01*
X51207Y197150D01*
X51252Y197177D01*
X51300Y197195D01*
X51356Y197240D01*
X51418Y197277D01*
X51452Y197316D01*
X51492Y197349D01*
X51531Y197409D01*
X51578Y197464D01*
X51597Y197512D01*
X51625Y197556D01*
X51643Y197625D01*
X51670Y197692D01*
X51678Y197763D01*
X51686Y197794D01*
X51684Y197818D01*
X51688Y197858D01*
X51688Y208287D01*
X51674Y208378D01*
X51666Y208468D01*
X51654Y208498D01*
X51649Y208530D01*
X51606Y208611D01*
X51570Y208695D01*
X51544Y208727D01*
X51533Y208748D01*
X51510Y208770D01*
X51465Y208826D01*
X42295Y217996D01*
X42258Y218023D01*
X42227Y218056D01*
X42159Y218094D01*
X42096Y218139D01*
X42052Y218153D01*
X42011Y218175D01*
X41935Y218189D01*
X41860Y218212D01*
X41815Y218211D01*
X41769Y218219D01*
X41692Y218207D01*
X41615Y218205D01*
X41572Y218190D01*
X41526Y218183D01*
X41457Y218148D01*
X41384Y218121D01*
X41348Y218092D01*
X41307Y218071D01*
X41252Y218016D01*
X41192Y217967D01*
X41167Y217929D01*
X41135Y217896D01*
X41069Y217776D01*
X41059Y217760D01*
X41057Y217755D01*
X41054Y217749D01*
X40773Y217070D01*
X38200Y214497D01*
X34839Y213105D01*
X15961Y213105D01*
X12600Y214497D01*
X10027Y217070D01*
X8635Y220431D01*
X8635Y224069D01*
X10027Y227430D01*
X12600Y230003D01*
X15961Y231395D01*
X34839Y231395D01*
X38200Y230003D01*
X40773Y227430D01*
X41776Y225007D01*
X41838Y224907D01*
X41898Y224807D01*
X41903Y224803D01*
X41906Y224798D01*
X41996Y224723D01*
X42085Y224647D01*
X42091Y224645D01*
X42095Y224641D01*
X42132Y224627D01*
X53564Y213195D01*
X53622Y213153D01*
X53674Y213104D01*
X53721Y213082D01*
X53763Y213052D01*
X53832Y213031D01*
X53897Y213000D01*
X53949Y212995D01*
X53999Y212979D01*
X54070Y212981D01*
X54141Y212973D01*
X54192Y212984D01*
X54244Y212986D01*
X54312Y213010D01*
X54382Y213025D01*
X54427Y213052D01*
X54475Y213070D01*
X54531Y213115D01*
X54593Y213152D01*
X54627Y213191D01*
X54667Y213224D01*
X54706Y213284D01*
X54753Y213339D01*
X54772Y213387D01*
X54800Y213431D01*
X54818Y213500D01*
X54845Y213567D01*
X54853Y213638D01*
X54861Y213669D01*
X54859Y213693D01*
X54863Y213733D01*
X54863Y233687D01*
X54849Y233778D01*
X54841Y233868D01*
X54829Y233898D01*
X54824Y233930D01*
X54781Y234011D01*
X54745Y234095D01*
X54719Y234127D01*
X54708Y234148D01*
X54685Y234170D01*
X54640Y234226D01*
X43726Y245140D01*
X43652Y245193D01*
X43582Y245253D01*
X43552Y245265D01*
X43526Y245284D01*
X43439Y245311D01*
X43354Y245345D01*
X43313Y245349D01*
X43291Y245356D01*
X43259Y245355D01*
X43187Y245363D01*
X42480Y245363D01*
X42365Y245344D01*
X42249Y245327D01*
X42243Y245325D01*
X42237Y245324D01*
X42134Y245269D01*
X42029Y245216D01*
X42025Y245211D01*
X42020Y245208D01*
X41940Y245124D01*
X41857Y245040D01*
X41854Y245034D01*
X41850Y245030D01*
X41842Y245013D01*
X41776Y244893D01*
X40773Y242470D01*
X38200Y239897D01*
X34839Y238505D01*
X15961Y238505D01*
X12600Y239897D01*
X10027Y242470D01*
X8635Y245831D01*
X8635Y249469D01*
X10027Y252830D01*
X12600Y255403D01*
X15961Y256795D01*
X34839Y256795D01*
X37419Y255726D01*
X37514Y255704D01*
X37607Y255675D01*
X37633Y255676D01*
X37658Y255670D01*
X37755Y255679D01*
X37853Y255682D01*
X37877Y255691D01*
X37903Y255693D01*
X37992Y255733D01*
X38084Y255766D01*
X38104Y255782D01*
X38128Y255793D01*
X38200Y255859D01*
X38276Y255920D01*
X38290Y255942D01*
X38309Y255959D01*
X38356Y256045D01*
X38409Y256127D01*
X38415Y256152D01*
X38428Y256175D01*
X38445Y256271D01*
X38469Y256365D01*
X38467Y256391D01*
X38471Y256417D01*
X38457Y256514D01*
X38449Y256610D01*
X38439Y256634D01*
X38435Y256660D01*
X38391Y256747D01*
X38353Y256837D01*
X38333Y256862D01*
X38324Y256880D01*
X38300Y256903D01*
X38248Y256968D01*
X31534Y263682D01*
X31460Y263735D01*
X31390Y263795D01*
X31360Y263807D01*
X31334Y263826D01*
X31247Y263853D01*
X31162Y263887D01*
X31121Y263891D01*
X31099Y263898D01*
X31067Y263897D01*
X30995Y263905D01*
X15961Y263905D01*
X12600Y265297D01*
X10027Y267870D01*
X8635Y271231D01*
X8635Y274869D01*
X10027Y278230D01*
X12600Y280803D01*
X15961Y282195D01*
X34839Y282195D01*
X38200Y280803D01*
X40773Y278230D01*
X42165Y274869D01*
X42165Y271231D01*
X40773Y267870D01*
X38200Y265297D01*
X37970Y265202D01*
X37931Y265178D01*
X37888Y265162D01*
X37827Y265114D01*
X37761Y265073D01*
X37732Y265037D01*
X37696Y265009D01*
X37654Y264943D01*
X37604Y264883D01*
X37588Y264840D01*
X37563Y264802D01*
X37544Y264726D01*
X37516Y264654D01*
X37514Y264608D01*
X37503Y264563D01*
X37509Y264486D01*
X37506Y264408D01*
X37519Y264364D01*
X37522Y264318D01*
X37553Y264246D01*
X37574Y264172D01*
X37600Y264134D01*
X37618Y264092D01*
X37704Y263985D01*
X37715Y263970D01*
X37719Y263967D01*
X37723Y263961D01*
X76924Y224760D01*
X76998Y224707D01*
X77068Y224647D01*
X77098Y224635D01*
X77124Y224616D01*
X77211Y224589D01*
X77296Y224555D01*
X77337Y224551D01*
X77359Y224544D01*
X77391Y224545D01*
X77463Y224537D01*
X153935Y224537D01*
X154025Y224551D01*
X154116Y224559D01*
X154146Y224571D01*
X154178Y224576D01*
X154258Y224619D01*
X154342Y224655D01*
X154374Y224681D01*
X154395Y224692D01*
X154417Y224715D01*
X154473Y224760D01*
X156762Y227049D01*
X160738Y227049D01*
X163549Y224238D01*
X163549Y220262D01*
X160738Y217451D01*
X156762Y217451D01*
X154473Y219740D01*
X154399Y219793D01*
X154330Y219853D01*
X154300Y219865D01*
X154274Y219884D01*
X154187Y219911D01*
X154102Y219945D01*
X154061Y219949D01*
X154038Y219956D01*
X154006Y219955D01*
X153935Y219963D01*
X75253Y219963D01*
X73690Y221526D01*
X60736Y234480D01*
X60678Y234522D01*
X60626Y234571D01*
X60579Y234593D01*
X60537Y234623D01*
X60468Y234644D01*
X60403Y234675D01*
X60351Y234680D01*
X60301Y234696D01*
X60230Y234694D01*
X60159Y234702D01*
X60108Y234691D01*
X60056Y234689D01*
X59988Y234665D01*
X59918Y234650D01*
X59873Y234623D01*
X59825Y234605D01*
X59769Y234560D01*
X59707Y234523D01*
X59673Y234484D01*
X59633Y234451D01*
X59594Y234391D01*
X59547Y234336D01*
X59528Y234288D01*
X59500Y234244D01*
X59482Y234175D01*
X59455Y234108D01*
X59447Y234037D01*
X59439Y234006D01*
X59441Y233982D01*
X59437Y233942D01*
X59437Y144773D01*
X59451Y144683D01*
X59459Y144592D01*
X59471Y144562D01*
X59476Y144530D01*
X59519Y144449D01*
X59555Y144365D01*
X59581Y144333D01*
X59592Y144312D01*
X59615Y144290D01*
X59660Y144234D01*
X60577Y143317D01*
X60635Y143275D01*
X60687Y143226D01*
X60734Y143204D01*
X60776Y143174D01*
X60845Y143153D01*
X60910Y143122D01*
X60962Y143117D01*
X61012Y143101D01*
X61083Y143103D01*
X61154Y143095D01*
X61205Y143106D01*
X61257Y143108D01*
X61325Y143132D01*
X61395Y143147D01*
X61440Y143174D01*
X61488Y143192D01*
X61544Y143237D01*
X61606Y143274D01*
X61640Y143313D01*
X61680Y143346D01*
X61719Y143406D01*
X61766Y143461D01*
X61785Y143509D01*
X61813Y143553D01*
X61831Y143622D01*
X61858Y143689D01*
X61866Y143760D01*
X61874Y143791D01*
X61872Y143815D01*
X61876Y143855D01*
X61876Y148038D01*
X64687Y150849D01*
X66802Y150849D01*
X66822Y150852D01*
X66841Y150850D01*
X66943Y150872D01*
X67045Y150888D01*
X67062Y150898D01*
X67082Y150902D01*
X67171Y150955D01*
X67262Y151004D01*
X67276Y151018D01*
X67293Y151028D01*
X67360Y151107D01*
X67432Y151182D01*
X67440Y151200D01*
X67453Y151215D01*
X67492Y151311D01*
X67535Y151405D01*
X67537Y151425D01*
X67545Y151443D01*
X67563Y151610D01*
X67563Y172985D01*
X67549Y173075D01*
X67541Y173166D01*
X67529Y173196D01*
X67524Y173228D01*
X67481Y173308D01*
X67445Y173392D01*
X67419Y173424D01*
X67408Y173445D01*
X67385Y173467D01*
X67340Y173523D01*
X65051Y175812D01*
X65051Y179788D01*
X67862Y182599D01*
X71838Y182599D01*
X74649Y179788D01*
X74649Y175812D01*
X72360Y173523D01*
X72307Y173449D01*
X72247Y173380D01*
X72235Y173350D01*
X72216Y173324D01*
X72189Y173237D01*
X72155Y173152D01*
X72151Y173111D01*
X72144Y173088D01*
X72145Y173056D01*
X72137Y172985D01*
X72137Y148278D01*
X71697Y147838D01*
X71643Y147764D01*
X71584Y147694D01*
X71572Y147664D01*
X71553Y147638D01*
X71526Y147551D01*
X71492Y147466D01*
X71488Y147425D01*
X71481Y147403D01*
X71482Y147371D01*
X71474Y147300D01*
X71474Y144062D01*
X68663Y141251D01*
X64480Y141251D01*
X64410Y141240D01*
X64338Y141238D01*
X64289Y141220D01*
X64238Y141212D01*
X64174Y141178D01*
X64107Y141153D01*
X64066Y141121D01*
X64020Y141096D01*
X63971Y141044D01*
X63915Y141000D01*
X63887Y140956D01*
X63851Y140918D01*
X63821Y140853D01*
X63782Y140793D01*
X63769Y140742D01*
X63747Y140695D01*
X63739Y140624D01*
X63722Y140554D01*
X63726Y140502D01*
X63720Y140451D01*
X63735Y140380D01*
X63741Y140309D01*
X63761Y140261D01*
X63772Y140210D01*
X63809Y140149D01*
X63837Y140083D01*
X63882Y140027D01*
X63899Y139999D01*
X63916Y139984D01*
X63942Y139952D01*
X83274Y120620D01*
X83348Y120567D01*
X83418Y120507D01*
X83448Y120495D01*
X83474Y120476D01*
X83561Y120449D01*
X83646Y120415D01*
X83687Y120411D01*
X83709Y120404D01*
X83741Y120405D01*
X83813Y120397D01*
X162080Y120397D01*
X162100Y120400D01*
X162119Y120398D01*
X162221Y120420D01*
X162323Y120436D01*
X162340Y120446D01*
X162360Y120450D01*
X162449Y120503D01*
X162540Y120552D01*
X162554Y120566D01*
X162571Y120576D01*
X162638Y120655D01*
X162710Y120730D01*
X162718Y120748D01*
X162731Y120763D01*
X162770Y120859D01*
X162813Y120953D01*
X162815Y120973D01*
X162823Y120991D01*
X162841Y121158D01*
X162841Y122638D01*
X165652Y125449D01*
X169628Y125449D01*
X172439Y122638D01*
X172439Y120357D01*
X172450Y120286D01*
X172452Y120215D01*
X172470Y120166D01*
X172478Y120114D01*
X172512Y120051D01*
X172537Y119984D01*
X172569Y119943D01*
X172594Y119897D01*
X172646Y119847D01*
X172690Y119791D01*
X172734Y119763D01*
X172772Y119727D01*
X172837Y119697D01*
X172897Y119658D01*
X172948Y119646D01*
X172995Y119624D01*
X173066Y119616D01*
X173136Y119598D01*
X173188Y119602D01*
X173239Y119597D01*
X173310Y119612D01*
X173381Y119618D01*
X173429Y119638D01*
X173480Y119649D01*
X173541Y119686D01*
X173607Y119714D01*
X173663Y119759D01*
X173691Y119775D01*
X173706Y119793D01*
X173738Y119819D01*
X175812Y121893D01*
X179788Y121893D01*
X181862Y119819D01*
X181920Y119777D01*
X181972Y119727D01*
X182019Y119706D01*
X182061Y119675D01*
X182130Y119654D01*
X182195Y119624D01*
X182247Y119618D01*
X182297Y119603D01*
X182368Y119605D01*
X182439Y119597D01*
X182490Y119608D01*
X182542Y119609D01*
X182610Y119634D01*
X182680Y119649D01*
X182725Y119676D01*
X182773Y119694D01*
X182829Y119738D01*
X182891Y119775D01*
X182925Y119815D01*
X182965Y119847D01*
X183004Y119908D01*
X183051Y119962D01*
X183068Y120004D01*
X185972Y122909D01*
X189209Y122909D01*
X189300Y122923D01*
X189390Y122931D01*
X189420Y122943D01*
X189452Y122948D01*
X189533Y122991D01*
X189617Y123027D01*
X189649Y123053D01*
X189670Y123064D01*
X189692Y123087D01*
X189748Y123132D01*
X191300Y124684D01*
X191342Y124742D01*
X191391Y124794D01*
X191413Y124841D01*
X191443Y124883D01*
X191464Y124952D01*
X191495Y125017D01*
X191500Y125069D01*
X191516Y125119D01*
X191514Y125190D01*
X191522Y125261D01*
X191511Y125312D01*
X191509Y125364D01*
X191485Y125432D01*
X191470Y125502D01*
X191443Y125547D01*
X191425Y125595D01*
X191380Y125651D01*
X191343Y125713D01*
X191304Y125747D01*
X191271Y125787D01*
X191211Y125826D01*
X191156Y125873D01*
X191108Y125892D01*
X191064Y125920D01*
X190995Y125938D01*
X190928Y125965D01*
X190857Y125973D01*
X190826Y125981D01*
X190802Y125979D01*
X190762Y125983D01*
X186425Y125983D01*
X186335Y125969D01*
X186244Y125961D01*
X186214Y125949D01*
X186182Y125944D01*
X186102Y125901D01*
X186018Y125865D01*
X185985Y125839D01*
X185965Y125828D01*
X185943Y125805D01*
X185887Y125760D01*
X183598Y123471D01*
X179622Y123471D01*
X176811Y126282D01*
X176811Y130258D01*
X179622Y133069D01*
X183598Y133069D01*
X185887Y130780D01*
X185961Y130727D01*
X186030Y130667D01*
X186060Y130655D01*
X186086Y130636D01*
X186173Y130609D01*
X186258Y130575D01*
X186299Y130571D01*
X186322Y130564D01*
X186354Y130565D01*
X186425Y130557D01*
X229877Y130557D01*
X229968Y130571D01*
X230058Y130579D01*
X230088Y130591D01*
X230120Y130596D01*
X230201Y130639D01*
X230285Y130675D01*
X230317Y130701D01*
X230338Y130712D01*
X230360Y130735D01*
X230416Y130780D01*
X231198Y131562D01*
X231251Y131636D01*
X231311Y131706D01*
X231323Y131736D01*
X231342Y131762D01*
X231369Y131849D01*
X231403Y131934D01*
X231407Y131975D01*
X231414Y131997D01*
X231413Y132029D01*
X231421Y132101D01*
X231421Y135338D01*
X232197Y136114D01*
X232239Y136172D01*
X232289Y136224D01*
X232310Y136271D01*
X232341Y136313D01*
X232362Y136382D01*
X232392Y136447D01*
X232398Y136499D01*
X232413Y136549D01*
X232411Y136620D01*
X232419Y136691D01*
X232408Y136742D01*
X232407Y136794D01*
X232382Y136862D01*
X232367Y136932D01*
X232340Y136977D01*
X232322Y137025D01*
X232278Y137081D01*
X232241Y137143D01*
X232201Y137177D01*
X232169Y137217D01*
X232108Y137256D01*
X232054Y137303D01*
X232006Y137322D01*
X231962Y137350D01*
X231892Y137368D01*
X231826Y137395D01*
X231754Y137403D01*
X231723Y137411D01*
X231700Y137409D01*
X231659Y137413D01*
X115305Y137413D01*
X115215Y137399D01*
X115124Y137391D01*
X115094Y137379D01*
X115062Y137374D01*
X114982Y137331D01*
X114898Y137295D01*
X114866Y137269D01*
X114845Y137258D01*
X114823Y137235D01*
X114767Y137190D01*
X112478Y134901D01*
X108502Y134901D01*
X105691Y137712D01*
X105691Y141688D01*
X108502Y144499D01*
X112478Y144499D01*
X114767Y142210D01*
X114841Y142157D01*
X114910Y142097D01*
X114940Y142085D01*
X114966Y142066D01*
X115053Y142039D01*
X115138Y142005D01*
X115179Y142001D01*
X115202Y141994D01*
X115234Y141995D01*
X115305Y141987D01*
X152919Y141987D01*
X152990Y141998D01*
X153061Y142000D01*
X153110Y142018D01*
X153162Y142026D01*
X153225Y142060D01*
X153292Y142085D01*
X153333Y142117D01*
X153379Y142142D01*
X153429Y142194D01*
X153485Y142238D01*
X153513Y142282D01*
X153549Y142320D01*
X153579Y142385D01*
X153618Y142445D01*
X153630Y142496D01*
X153652Y142543D01*
X153660Y142614D01*
X153678Y142684D01*
X153674Y142736D01*
X153679Y142787D01*
X153664Y142858D01*
X153658Y142929D01*
X153638Y142977D01*
X153627Y143028D01*
X153590Y143089D01*
X153562Y143155D01*
X153517Y143211D01*
X153501Y143239D01*
X153483Y143254D01*
X153457Y143286D01*
X151411Y145332D01*
X151411Y149308D01*
X154222Y152119D01*
X158198Y152119D01*
X160487Y149830D01*
X160561Y149777D01*
X160630Y149717D01*
X160660Y149705D01*
X160686Y149686D01*
X160773Y149659D01*
X160858Y149625D01*
X160899Y149621D01*
X160922Y149614D01*
X160954Y149615D01*
X161025Y149607D01*
X173744Y149607D01*
X177585Y145766D01*
X177659Y145713D01*
X177728Y145653D01*
X177758Y145641D01*
X177785Y145622D01*
X177871Y145595D01*
X177956Y145561D01*
X177997Y145557D01*
X178020Y145550D01*
X178052Y145551D01*
X178123Y145543D01*
X240221Y145543D01*
X240311Y145557D01*
X240402Y145565D01*
X240431Y145577D01*
X240463Y145582D01*
X240544Y145625D01*
X240628Y145661D01*
X240660Y145687D01*
X240681Y145698D01*
X240703Y145721D01*
X240759Y145766D01*
X256507Y161514D01*
X256549Y161572D01*
X256598Y161624D01*
X256620Y161671D01*
X256650Y161713D01*
X256671Y161782D01*
X256702Y161847D01*
X256707Y161899D01*
X256723Y161949D01*
X256721Y162020D01*
X256729Y162091D01*
X256718Y162142D01*
X256716Y162194D01*
X256692Y162262D01*
X256677Y162332D01*
X256650Y162377D01*
X256632Y162425D01*
X256587Y162481D01*
X256550Y162543D01*
X256511Y162577D01*
X256478Y162617D01*
X256418Y162656D01*
X256363Y162703D01*
X256315Y162722D01*
X256271Y162750D01*
X256202Y162768D01*
X256135Y162795D01*
X256064Y162803D01*
X256033Y162811D01*
X256010Y162809D01*
X255969Y162813D01*
X191763Y162813D01*
X191672Y162799D01*
X191582Y162791D01*
X191552Y162779D01*
X191520Y162774D01*
X191439Y162731D01*
X191355Y162695D01*
X191323Y162669D01*
X191302Y162658D01*
X191280Y162635D01*
X191224Y162590D01*
X186632Y157998D01*
X186579Y157924D01*
X186519Y157854D01*
X186507Y157824D01*
X186488Y157798D01*
X186461Y157711D01*
X186427Y157626D01*
X186423Y157585D01*
X186416Y157563D01*
X186417Y157531D01*
X186409Y157459D01*
X186409Y154222D01*
X183598Y151411D01*
X179622Y151411D01*
X176811Y154222D01*
X176811Y158198D01*
X179365Y160752D01*
X179377Y160768D01*
X179392Y160780D01*
X179449Y160868D01*
X179509Y160951D01*
X179515Y160970D01*
X179525Y160987D01*
X179551Y161088D01*
X179581Y161187D01*
X179581Y161206D01*
X179586Y161226D01*
X179578Y161329D01*
X179575Y161432D01*
X179568Y161451D01*
X179566Y161471D01*
X179526Y161566D01*
X179490Y161663D01*
X179478Y161679D01*
X179470Y161697D01*
X179365Y161828D01*
X176811Y164382D01*
X176811Y168358D01*
X179623Y171170D01*
X179688Y171180D01*
X179759Y171182D01*
X179808Y171200D01*
X179860Y171208D01*
X179923Y171242D01*
X179990Y171267D01*
X180031Y171299D01*
X180077Y171324D01*
X180127Y171376D01*
X180183Y171420D01*
X180211Y171464D01*
X180247Y171502D01*
X180277Y171567D01*
X180316Y171627D01*
X180328Y171678D01*
X180350Y171725D01*
X180358Y171796D01*
X180376Y171866D01*
X180372Y171918D01*
X180377Y171969D01*
X180362Y172040D01*
X180356Y172111D01*
X180336Y172159D01*
X180325Y172210D01*
X180288Y172271D01*
X180260Y172337D01*
X180215Y172393D01*
X180199Y172421D01*
X180181Y172436D01*
X180155Y172468D01*
X179351Y173272D01*
X179351Y177248D01*
X182162Y180059D01*
X186138Y180059D01*
X188427Y177770D01*
X188501Y177717D01*
X188570Y177657D01*
X188600Y177645D01*
X188626Y177626D01*
X188713Y177599D01*
X188798Y177565D01*
X188839Y177561D01*
X188862Y177554D01*
X188894Y177555D01*
X188965Y177547D01*
X251979Y177547D01*
X252050Y177558D01*
X252121Y177560D01*
X252170Y177578D01*
X252222Y177586D01*
X252285Y177620D01*
X252352Y177645D01*
X252393Y177677D01*
X252439Y177702D01*
X252489Y177754D01*
X252545Y177798D01*
X252573Y177842D01*
X252609Y177880D01*
X252639Y177945D01*
X252678Y178005D01*
X252690Y178056D01*
X252712Y178103D01*
X252720Y178174D01*
X252738Y178244D01*
X252734Y178296D01*
X252739Y178347D01*
X252724Y178418D01*
X252718Y178489D01*
X252698Y178537D01*
X252687Y178588D01*
X252650Y178649D01*
X252622Y178715D01*
X252577Y178771D01*
X252561Y178799D01*
X252543Y178814D01*
X252517Y178846D01*
X250471Y180892D01*
X250471Y181102D01*
X250468Y181122D01*
X250470Y181141D01*
X250448Y181243D01*
X250432Y181345D01*
X250422Y181362D01*
X250418Y181382D01*
X250365Y181471D01*
X250316Y181562D01*
X250302Y181576D01*
X250292Y181593D01*
X250213Y181660D01*
X250138Y181732D01*
X250120Y181740D01*
X250105Y181753D01*
X250009Y181792D01*
X249915Y181835D01*
X249895Y181837D01*
X249877Y181845D01*
X249710Y181863D01*
X178805Y181863D01*
X178715Y181849D01*
X178624Y181841D01*
X178594Y181829D01*
X178562Y181824D01*
X178482Y181781D01*
X178398Y181745D01*
X178366Y181719D01*
X178345Y181708D01*
X178323Y181685D01*
X178267Y181640D01*
X175978Y179351D01*
X172002Y179351D01*
X169448Y181905D01*
X169432Y181917D01*
X169420Y181932D01*
X169332Y181989D01*
X169249Y182049D01*
X169230Y182055D01*
X169213Y182065D01*
X169112Y182091D01*
X169013Y182121D01*
X168994Y182121D01*
X168974Y182126D01*
X168871Y182118D01*
X168768Y182115D01*
X168749Y182108D01*
X168729Y182106D01*
X168634Y182066D01*
X168537Y182030D01*
X168521Y182018D01*
X168503Y182010D01*
X168372Y181905D01*
X165818Y179351D01*
X161842Y179351D01*
X159031Y182162D01*
X159031Y186138D01*
X161842Y188949D01*
X165079Y188949D01*
X165170Y188963D01*
X165260Y188971D01*
X165290Y188983D01*
X165322Y188988D01*
X165403Y189031D01*
X165487Y189067D01*
X165519Y189093D01*
X165540Y189104D01*
X165562Y189127D01*
X165618Y189172D01*
X169233Y192787D01*
X255535Y192787D01*
X255625Y192801D01*
X255716Y192809D01*
X255746Y192821D01*
X255778Y192826D01*
X255858Y192869D01*
X255942Y192905D01*
X255974Y192931D01*
X255995Y192942D01*
X256017Y192965D01*
X256073Y193010D01*
X258362Y195299D01*
X262338Y195299D01*
X265149Y192488D01*
X265149Y188512D01*
X262338Y185701D01*
X260830Y185701D01*
X260810Y185698D01*
X260791Y185700D01*
X260689Y185678D01*
X260587Y185662D01*
X260570Y185652D01*
X260550Y185648D01*
X260461Y185595D01*
X260370Y185546D01*
X260356Y185532D01*
X260339Y185522D01*
X260272Y185443D01*
X260200Y185368D01*
X260192Y185350D01*
X260179Y185335D01*
X260140Y185239D01*
X260097Y185145D01*
X260095Y185125D01*
X260087Y185107D01*
X260069Y184940D01*
X260069Y180892D01*
X258023Y178846D01*
X257981Y178788D01*
X257931Y178736D01*
X257910Y178689D01*
X257879Y178647D01*
X257858Y178578D01*
X257828Y178513D01*
X257822Y178461D01*
X257807Y178411D01*
X257809Y178340D01*
X257801Y178269D01*
X257812Y178218D01*
X257813Y178166D01*
X257838Y178098D01*
X257853Y178028D01*
X257880Y177983D01*
X257898Y177935D01*
X257942Y177879D01*
X257979Y177817D01*
X258019Y177783D01*
X258051Y177743D01*
X258112Y177704D01*
X258166Y177657D01*
X258214Y177638D01*
X258258Y177610D01*
X258328Y177592D01*
X258394Y177565D01*
X258466Y177557D01*
X258497Y177549D01*
X258520Y177551D01*
X258561Y177547D01*
X259088Y177547D01*
X259178Y177561D01*
X259269Y177569D01*
X259298Y177581D01*
X259330Y177586D01*
X259411Y177629D01*
X259495Y177665D01*
X259527Y177691D01*
X259548Y177702D01*
X259570Y177725D01*
X259626Y177770D01*
X273080Y191224D01*
X273133Y191298D01*
X273193Y191368D01*
X273205Y191398D01*
X273224Y191424D01*
X273251Y191511D01*
X273285Y191596D01*
X273289Y191637D01*
X273296Y191659D01*
X273295Y191691D01*
X273303Y191762D01*
X273303Y271457D01*
X274866Y273020D01*
X288320Y286474D01*
X289883Y288037D01*
X318056Y288037D01*
X318127Y288048D01*
X318198Y288050D01*
X318247Y288068D01*
X318299Y288076D01*
X318362Y288110D01*
X318429Y288135D01*
X318470Y288167D01*
X318516Y288192D01*
X318566Y288244D01*
X318622Y288288D01*
X318650Y288332D01*
X318686Y288370D01*
X318716Y288435D01*
X318755Y288495D01*
X318767Y288546D01*
X318789Y288593D01*
X318797Y288664D01*
X318815Y288734D01*
X318811Y288786D01*
X318816Y288837D01*
X318801Y288908D01*
X318795Y288979D01*
X318775Y289027D01*
X318764Y289078D01*
X318727Y289139D01*
X318699Y289205D01*
X318654Y289261D01*
X318638Y289289D01*
X318620Y289304D01*
X318594Y289336D01*
X313689Y294241D01*
X313689Y296927D01*
X323088Y296927D01*
X323108Y296930D01*
X323127Y296928D01*
X323229Y296950D01*
X323331Y296967D01*
X323348Y296976D01*
X323368Y296980D01*
X323457Y297033D01*
X323548Y297082D01*
X323562Y297096D01*
X323579Y297106D01*
X323646Y297185D01*
X323717Y297260D01*
X323726Y297278D01*
X323739Y297293D01*
X323777Y297389D01*
X323821Y297483D01*
X323823Y297503D01*
X323831Y297521D01*
X323849Y297688D01*
X323849Y298451D01*
X323851Y298451D01*
X323851Y297688D01*
X323854Y297668D01*
X323852Y297649D01*
X323874Y297547D01*
X323891Y297445D01*
X323900Y297428D01*
X323904Y297408D01*
X323957Y297319D01*
X324006Y297228D01*
X324020Y297214D01*
X324030Y297197D01*
X324109Y297130D01*
X324184Y297059D01*
X324202Y297050D01*
X324217Y297037D01*
X324313Y296998D01*
X324407Y296955D01*
X324427Y296953D01*
X324445Y296945D01*
X324612Y296927D01*
X334011Y296927D01*
X334011Y294241D01*
X329106Y289336D01*
X329064Y289278D01*
X329014Y289226D01*
X328993Y289179D01*
X328962Y289137D01*
X328941Y289068D01*
X328911Y289003D01*
X328905Y288951D01*
X328890Y288901D01*
X328892Y288830D01*
X328884Y288759D01*
X328895Y288708D01*
X328896Y288656D01*
X328921Y288588D01*
X328936Y288518D01*
X328963Y288473D01*
X328981Y288425D01*
X329025Y288369D01*
X329062Y288307D01*
X329102Y288273D01*
X329134Y288233D01*
X329195Y288194D01*
X329249Y288147D01*
X329297Y288128D01*
X329341Y288100D01*
X329411Y288082D01*
X329477Y288055D01*
X329549Y288047D01*
X329580Y288039D01*
X329603Y288041D01*
X329644Y288037D01*
X335287Y288037D01*
X335378Y288051D01*
X335468Y288059D01*
X335498Y288071D01*
X335530Y288076D01*
X335611Y288119D01*
X335695Y288155D01*
X335727Y288181D01*
X335748Y288192D01*
X335770Y288215D01*
X335826Y288260D01*
X340628Y293062D01*
X340640Y293079D01*
X340656Y293091D01*
X340712Y293178D01*
X340772Y293262D01*
X340778Y293281D01*
X340789Y293298D01*
X340814Y293398D01*
X340844Y293497D01*
X340844Y293517D01*
X340849Y293536D01*
X340841Y293639D01*
X340838Y293743D01*
X340831Y293762D01*
X340830Y293782D01*
X340789Y293877D01*
X340754Y293974D01*
X340741Y293990D01*
X340733Y294008D01*
X340628Y294139D01*
X340105Y294662D01*
X340105Y302238D01*
X345462Y307595D01*
X353038Y307595D01*
X358395Y302238D01*
X358395Y294662D01*
X353038Y289305D01*
X345462Y289305D01*
X344939Y289828D01*
X344923Y289840D01*
X344910Y289856D01*
X344823Y289912D01*
X344739Y289972D01*
X344720Y289978D01*
X344703Y289989D01*
X344603Y290014D01*
X344504Y290044D01*
X344484Y290044D01*
X344465Y290049D01*
X344362Y290041D01*
X344258Y290038D01*
X344239Y290031D01*
X344220Y290030D01*
X344125Y289989D01*
X344027Y289954D01*
X344012Y289941D01*
X343993Y289933D01*
X343862Y289828D01*
X337497Y283463D01*
X328207Y283463D01*
X328136Y283452D01*
X328065Y283450D01*
X328016Y283432D01*
X327964Y283424D01*
X327901Y283390D01*
X327834Y283365D01*
X327793Y283333D01*
X327747Y283308D01*
X327698Y283256D01*
X327642Y283212D01*
X327613Y283168D01*
X327578Y283130D01*
X327547Y283065D01*
X327509Y283005D01*
X327496Y282954D01*
X327474Y282907D01*
X327466Y282836D01*
X327449Y282766D01*
X327453Y282714D01*
X327447Y282663D01*
X327462Y282592D01*
X327468Y282521D01*
X327488Y282473D01*
X327499Y282422D01*
X327536Y282361D01*
X327564Y282295D01*
X327609Y282239D01*
X327625Y282211D01*
X327643Y282196D01*
X327647Y282190D01*
X327651Y282186D01*
X327669Y282164D01*
X332995Y276838D01*
X332995Y269262D01*
X327638Y263905D01*
X320062Y263905D01*
X314705Y269262D01*
X314705Y270002D01*
X314702Y270022D01*
X314704Y270041D01*
X314682Y270143D01*
X314666Y270245D01*
X314656Y270262D01*
X314652Y270282D01*
X314599Y270371D01*
X314550Y270462D01*
X314536Y270476D01*
X314526Y270493D01*
X314447Y270560D01*
X314372Y270632D01*
X314354Y270640D01*
X314339Y270653D01*
X314243Y270692D01*
X314149Y270735D01*
X314129Y270737D01*
X314111Y270745D01*
X313944Y270763D01*
X289553Y270763D01*
X289462Y270749D01*
X289372Y270741D01*
X289342Y270729D01*
X289310Y270724D01*
X289229Y270681D01*
X289145Y270645D01*
X289113Y270619D01*
X289092Y270608D01*
X289070Y270585D01*
X289014Y270540D01*
X283180Y264706D01*
X283127Y264632D01*
X283067Y264562D01*
X283055Y264532D01*
X283036Y264506D01*
X283009Y264419D01*
X282975Y264334D01*
X282971Y264293D01*
X282964Y264271D01*
X282965Y264239D01*
X282957Y264167D01*
X282957Y239768D01*
X282968Y239698D01*
X282970Y239626D01*
X282988Y239577D01*
X282996Y239526D01*
X283030Y239462D01*
X283055Y239395D01*
X283087Y239354D01*
X283112Y239308D01*
X283164Y239259D01*
X283208Y239203D01*
X283252Y239175D01*
X283290Y239139D01*
X283355Y239109D01*
X283415Y239070D01*
X283466Y239057D01*
X283513Y239035D01*
X283584Y239027D01*
X283654Y239010D01*
X283706Y239014D01*
X283757Y239008D01*
X283828Y239023D01*
X283899Y239029D01*
X283947Y239049D01*
X283998Y239060D01*
X284059Y239097D01*
X284125Y239125D01*
X284181Y239170D01*
X284209Y239187D01*
X284224Y239204D01*
X284256Y239230D01*
X293400Y248374D01*
X294963Y249937D01*
X313944Y249937D01*
X313964Y249940D01*
X313983Y249938D01*
X314085Y249960D01*
X314187Y249976D01*
X314204Y249986D01*
X314224Y249990D01*
X314313Y250043D01*
X314404Y250092D01*
X314418Y250106D01*
X314435Y250116D01*
X314502Y250195D01*
X314574Y250270D01*
X314582Y250288D01*
X314595Y250303D01*
X314634Y250399D01*
X314677Y250493D01*
X314679Y250513D01*
X314687Y250531D01*
X314705Y250698D01*
X314705Y251438D01*
X320062Y256795D01*
X327638Y256795D01*
X332995Y251438D01*
X332995Y243862D01*
X327669Y238536D01*
X327627Y238478D01*
X327578Y238426D01*
X327556Y238379D01*
X327525Y238337D01*
X327504Y238268D01*
X327474Y238203D01*
X327468Y238151D01*
X327453Y238101D01*
X327455Y238030D01*
X327447Y237959D01*
X327458Y237908D01*
X327459Y237856D01*
X327484Y237788D01*
X327499Y237718D01*
X327526Y237673D01*
X327544Y237625D01*
X327589Y237569D01*
X327625Y237507D01*
X327665Y237473D01*
X327697Y237433D01*
X327758Y237394D01*
X327812Y237347D01*
X327861Y237328D01*
X327904Y237300D01*
X327974Y237282D01*
X328040Y237255D01*
X328112Y237247D01*
X328143Y237239D01*
X328166Y237241D01*
X328207Y237237D01*
X328302Y237237D01*
X328393Y237251D01*
X328483Y237259D01*
X328513Y237271D01*
X328545Y237276D01*
X328626Y237319D01*
X328710Y237355D01*
X328742Y237381D01*
X328763Y237392D01*
X328785Y237415D01*
X328841Y237460D01*
X339755Y248374D01*
X339882Y248501D01*
X339935Y248575D01*
X339995Y248645D01*
X340007Y248675D01*
X340026Y248701D01*
X340053Y248788D01*
X340087Y248873D01*
X340091Y248914D01*
X340098Y248936D01*
X340097Y248968D01*
X340105Y249039D01*
X340105Y251438D01*
X345462Y256795D01*
X353038Y256795D01*
X358395Y251438D01*
X358395Y243862D01*
X353038Y238505D01*
X345462Y238505D01*
X341446Y242521D01*
X341430Y242533D01*
X341418Y242548D01*
X341331Y242604D01*
X341247Y242665D01*
X341228Y242670D01*
X341211Y242681D01*
X341110Y242706D01*
X341012Y242737D01*
X340992Y242736D01*
X340972Y242741D01*
X340869Y242733D01*
X340766Y242731D01*
X340747Y242724D01*
X340727Y242722D01*
X340632Y242682D01*
X340535Y242646D01*
X340519Y242634D01*
X340501Y242626D01*
X340370Y242521D01*
X330512Y232663D01*
X328207Y232663D01*
X328136Y232652D01*
X328065Y232650D01*
X328016Y232632D01*
X327964Y232624D01*
X327901Y232590D01*
X327834Y232565D01*
X327793Y232533D01*
X327747Y232508D01*
X327698Y232456D01*
X327642Y232412D01*
X327613Y232368D01*
X327578Y232330D01*
X327547Y232265D01*
X327509Y232205D01*
X327496Y232154D01*
X327474Y232107D01*
X327466Y232036D01*
X327449Y231966D01*
X327453Y231914D01*
X327447Y231863D01*
X327462Y231792D01*
X327468Y231721D01*
X327488Y231673D01*
X327499Y231622D01*
X327536Y231561D01*
X327564Y231495D01*
X327609Y231439D01*
X327625Y231411D01*
X327643Y231396D01*
X327669Y231364D01*
X332995Y226038D01*
X332995Y218462D01*
X327638Y213105D01*
X320062Y213105D01*
X314705Y218462D01*
X314705Y226038D01*
X320031Y231364D01*
X320073Y231422D01*
X320122Y231474D01*
X320144Y231521D01*
X320175Y231563D01*
X320196Y231632D01*
X320226Y231697D01*
X320232Y231749D01*
X320247Y231799D01*
X320245Y231870D01*
X320253Y231941D01*
X320242Y231992D01*
X320241Y232044D01*
X320216Y232112D01*
X320201Y232182D01*
X320174Y232227D01*
X320156Y232275D01*
X320111Y232331D01*
X320075Y232393D01*
X320035Y232427D01*
X320003Y232467D01*
X319942Y232506D01*
X319888Y232553D01*
X319839Y232572D01*
X319796Y232600D01*
X319726Y232618D01*
X319660Y232645D01*
X319588Y232653D01*
X319557Y232661D01*
X319534Y232659D01*
X319493Y232663D01*
X299713Y232663D01*
X299622Y232649D01*
X299532Y232641D01*
X299502Y232629D01*
X299470Y232624D01*
X299389Y232581D01*
X299305Y232545D01*
X299273Y232519D01*
X299252Y232508D01*
X299230Y232485D01*
X299174Y232440D01*
X294610Y227876D01*
X294557Y227802D01*
X294497Y227732D01*
X294485Y227702D01*
X294466Y227676D01*
X294439Y227589D01*
X294405Y227504D01*
X294401Y227463D01*
X294394Y227441D01*
X294395Y227409D01*
X294387Y227338D01*
X294387Y192926D01*
X292824Y191363D01*
X253637Y152176D01*
X253595Y152118D01*
X253546Y152066D01*
X253524Y152019D01*
X253494Y151977D01*
X253473Y151908D01*
X253442Y151843D01*
X253437Y151791D01*
X253421Y151741D01*
X253423Y151670D01*
X253415Y151599D01*
X253426Y151548D01*
X253428Y151496D01*
X253452Y151428D01*
X253468Y151358D01*
X253494Y151313D01*
X253512Y151265D01*
X253557Y151209D01*
X253594Y151147D01*
X253633Y151113D01*
X253666Y151073D01*
X253726Y151034D01*
X253781Y150987D01*
X253829Y150968D01*
X253873Y150940D01*
X253942Y150922D01*
X254009Y150895D01*
X254080Y150887D01*
X254111Y150879D01*
X254135Y150881D01*
X254176Y150877D01*
X331477Y150877D01*
X331568Y150891D01*
X331658Y150899D01*
X331688Y150911D01*
X331720Y150916D01*
X331801Y150959D01*
X331885Y150995D01*
X331917Y151021D01*
X331938Y151032D01*
X331960Y151055D01*
X332016Y151100D01*
X343803Y162887D01*
X343815Y162904D01*
X343831Y162916D01*
X343887Y163003D01*
X343947Y163087D01*
X343953Y163106D01*
X343964Y163123D01*
X343989Y163223D01*
X344019Y163322D01*
X344019Y163342D01*
X344024Y163361D01*
X344016Y163464D01*
X344013Y163568D01*
X344006Y163587D01*
X344005Y163607D01*
X343964Y163702D01*
X343929Y163799D01*
X343916Y163815D01*
X343908Y163833D01*
X343803Y163964D01*
X340105Y167662D01*
X340105Y175238D01*
X345462Y180595D01*
X353038Y180595D01*
X358395Y175238D01*
X358395Y167662D01*
X353038Y162305D01*
X350005Y162305D01*
X349914Y162291D01*
X349824Y162283D01*
X349794Y162271D01*
X349762Y162266D01*
X349681Y162223D01*
X349597Y162187D01*
X349565Y162161D01*
X349544Y162150D01*
X349522Y162127D01*
X349466Y162082D01*
X333687Y146303D01*
X253104Y146303D01*
X253013Y146289D01*
X252923Y146281D01*
X252893Y146269D01*
X252861Y146264D01*
X252780Y146221D01*
X252696Y146185D01*
X252664Y146159D01*
X252643Y146148D01*
X252621Y146125D01*
X252565Y146080D01*
X243898Y137413D01*
X240781Y137413D01*
X240710Y137402D01*
X240639Y137400D01*
X240590Y137382D01*
X240538Y137374D01*
X240475Y137340D01*
X240408Y137315D01*
X240367Y137283D01*
X240321Y137258D01*
X240271Y137206D01*
X240215Y137162D01*
X240187Y137118D01*
X240151Y137080D01*
X240121Y137015D01*
X240082Y136955D01*
X240070Y136904D01*
X240048Y136857D01*
X240040Y136786D01*
X240022Y136716D01*
X240026Y136664D01*
X240021Y136613D01*
X240036Y136542D01*
X240042Y136471D01*
X240062Y136423D01*
X240073Y136372D01*
X240110Y136311D01*
X240138Y136245D01*
X240183Y136189D01*
X240199Y136161D01*
X240217Y136146D01*
X240243Y136114D01*
X241019Y135338D01*
X241019Y131362D01*
X240165Y130509D01*
X240153Y130492D01*
X240138Y130480D01*
X240082Y130393D01*
X240021Y130309D01*
X240016Y130290D01*
X240005Y130273D01*
X239980Y130173D01*
X239949Y130074D01*
X239950Y130054D01*
X239945Y130035D01*
X239953Y129932D01*
X239955Y129828D01*
X239962Y129809D01*
X239964Y129789D01*
X240004Y129694D01*
X240040Y129597D01*
X240052Y129581D01*
X240060Y129563D01*
X240165Y129432D01*
X242331Y127266D01*
X242331Y123290D01*
X239520Y120479D01*
X235545Y120479D01*
X233312Y122712D01*
X233238Y122765D01*
X233169Y122825D01*
X233138Y122837D01*
X233112Y122856D01*
X233025Y122883D01*
X232940Y122917D01*
X232899Y122921D01*
X232877Y122928D01*
X232845Y122927D01*
X232774Y122935D01*
X196335Y122935D01*
X196244Y122921D01*
X196154Y122913D01*
X196124Y122901D01*
X196092Y122896D01*
X196011Y122853D01*
X195927Y122817D01*
X195895Y122791D01*
X195874Y122780D01*
X195852Y122757D01*
X195796Y122712D01*
X192982Y119898D01*
X192929Y119824D01*
X192869Y119754D01*
X192857Y119724D01*
X192838Y119698D01*
X192811Y119611D01*
X192777Y119526D01*
X192773Y119485D01*
X192766Y119463D01*
X192767Y119431D01*
X192759Y119359D01*
X192759Y116122D01*
X189948Y113311D01*
X186143Y113311D01*
X186072Y113300D01*
X186001Y113298D01*
X185952Y113280D01*
X185900Y113272D01*
X185837Y113238D01*
X185770Y113213D01*
X185729Y113181D01*
X185683Y113156D01*
X185633Y113104D01*
X185577Y113060D01*
X185549Y113016D01*
X185513Y112978D01*
X185483Y112913D01*
X185444Y112853D01*
X185432Y112802D01*
X185410Y112755D01*
X185402Y112684D01*
X185384Y112614D01*
X185388Y112562D01*
X185383Y112511D01*
X185398Y112440D01*
X185404Y112369D01*
X185424Y112321D01*
X185435Y112270D01*
X185472Y112209D01*
X185500Y112143D01*
X185545Y112087D01*
X185561Y112059D01*
X185579Y112044D01*
X185605Y112012D01*
X186409Y111208D01*
X186409Y107392D01*
X186420Y107321D01*
X186422Y107249D01*
X186440Y107200D01*
X186448Y107149D01*
X186482Y107085D01*
X186507Y107018D01*
X186539Y106977D01*
X186564Y106931D01*
X186616Y106882D01*
X186660Y106826D01*
X186704Y106798D01*
X186742Y106762D01*
X186807Y106732D01*
X186867Y106693D01*
X186918Y106680D01*
X186965Y106658D01*
X187036Y106651D01*
X187106Y106633D01*
X187158Y106637D01*
X187209Y106631D01*
X187280Y106647D01*
X187351Y106652D01*
X187399Y106673D01*
X187450Y106684D01*
X187511Y106720D01*
X187577Y106748D01*
X187633Y106793D01*
X187661Y106810D01*
X187676Y106828D01*
X187708Y106853D01*
X191307Y110452D01*
X192870Y112015D01*
X241072Y112015D01*
X241162Y112029D01*
X241253Y112037D01*
X241283Y112049D01*
X241315Y112054D01*
X241395Y112097D01*
X241479Y112133D01*
X241511Y112159D01*
X241532Y112170D01*
X241554Y112193D01*
X241610Y112238D01*
X243137Y113765D01*
X273029Y113765D01*
X273120Y113779D01*
X273210Y113787D01*
X273240Y113799D01*
X273272Y113804D01*
X273353Y113847D01*
X273437Y113883D01*
X273469Y113909D01*
X273490Y113920D01*
X273512Y113943D01*
X273568Y113988D01*
X276647Y117067D01*
X310367Y117067D01*
X310458Y117081D01*
X310548Y117089D01*
X310578Y117101D01*
X310610Y117106D01*
X310691Y117149D01*
X310775Y117185D01*
X310807Y117211D01*
X310828Y117222D01*
X310850Y117245D01*
X310906Y117290D01*
X311208Y117592D01*
X311261Y117666D01*
X311321Y117736D01*
X311333Y117766D01*
X311352Y117792D01*
X311379Y117879D01*
X311413Y117964D01*
X311417Y118005D01*
X311424Y118027D01*
X311423Y118059D01*
X311431Y118131D01*
X311431Y121368D01*
X314242Y124179D01*
X318218Y124179D01*
X321029Y121368D01*
X321029Y117392D01*
X318218Y114581D01*
X314981Y114581D01*
X314890Y114567D01*
X314800Y114559D01*
X314770Y114547D01*
X314738Y114542D01*
X314657Y114499D01*
X314573Y114463D01*
X314541Y114437D01*
X314520Y114426D01*
X314498Y114403D01*
X314442Y114358D01*
X314140Y114056D01*
X312890Y112806D01*
X312848Y112748D01*
X312799Y112696D01*
X312777Y112649D01*
X312747Y112607D01*
X312726Y112538D01*
X312695Y112473D01*
X312690Y112421D01*
X312674Y112371D01*
X312676Y112300D01*
X312668Y112229D01*
X312679Y112178D01*
X312681Y112126D01*
X312705Y112058D01*
X312720Y111988D01*
X312747Y111943D01*
X312765Y111895D01*
X312810Y111839D01*
X312847Y111777D01*
X312886Y111743D01*
X312919Y111703D01*
X312979Y111664D01*
X313034Y111617D01*
X313082Y111598D01*
X313126Y111570D01*
X313195Y111552D01*
X313262Y111525D01*
X313333Y111517D01*
X313364Y111509D01*
X313388Y111511D01*
X313428Y111507D01*
X340367Y111507D01*
X340458Y111521D01*
X340548Y111529D01*
X340578Y111541D01*
X340610Y111546D01*
X340691Y111589D01*
X340775Y111625D01*
X340807Y111651D01*
X340828Y111662D01*
X340850Y111685D01*
X340906Y111730D01*
X344228Y115052D01*
X344281Y115126D01*
X344341Y115196D01*
X344353Y115226D01*
X344372Y115252D01*
X344399Y115339D01*
X344433Y115424D01*
X344437Y115465D01*
X344444Y115487D01*
X344443Y115519D01*
X344451Y115591D01*
X344451Y118828D01*
X347262Y121639D01*
X351238Y121639D01*
X354049Y118828D01*
X354049Y117563D01*
X354060Y117492D01*
X354062Y117421D01*
X354080Y117372D01*
X354088Y117320D01*
X354122Y117257D01*
X354147Y117190D01*
X354179Y117149D01*
X354204Y117103D01*
X354256Y117053D01*
X354300Y116997D01*
X354344Y116969D01*
X354382Y116933D01*
X354447Y116903D01*
X354507Y116864D01*
X354558Y116852D01*
X354605Y116830D01*
X354676Y116822D01*
X354746Y116804D01*
X354798Y116808D01*
X354849Y116803D01*
X354920Y116818D01*
X354991Y116824D01*
X355039Y116844D01*
X355090Y116855D01*
X355151Y116892D01*
X355217Y116920D01*
X355273Y116965D01*
X355301Y116981D01*
X355316Y116999D01*
X355348Y117025D01*
X357422Y119099D01*
X361398Y119099D01*
X364209Y116288D01*
X364209Y112312D01*
X361398Y109501D01*
X357422Y109501D01*
X355754Y111170D01*
X355737Y111182D01*
X355725Y111197D01*
X355638Y111253D01*
X355554Y111314D01*
X355535Y111319D01*
X355518Y111330D01*
X355417Y111356D01*
X355319Y111386D01*
X355299Y111385D01*
X355279Y111390D01*
X355177Y111382D01*
X355073Y111380D01*
X355054Y111373D01*
X355034Y111371D01*
X354940Y111331D01*
X354842Y111295D01*
X354826Y111283D01*
X354808Y111275D01*
X354677Y111170D01*
X347558Y104051D01*
X345995Y102488D01*
X341813Y102488D01*
X341742Y102477D01*
X341670Y102475D01*
X341621Y102457D01*
X341570Y102449D01*
X341507Y102415D01*
X341439Y102390D01*
X341399Y102358D01*
X341353Y102333D01*
X341303Y102282D01*
X341247Y102237D01*
X341219Y102193D01*
X341183Y102155D01*
X341153Y102090D01*
X341114Y102030D01*
X341102Y101979D01*
X341080Y101932D01*
X341072Y101861D01*
X341054Y101791D01*
X341058Y101739D01*
X341053Y101688D01*
X341068Y101617D01*
X341073Y101546D01*
X341094Y101498D01*
X341105Y101447D01*
X341142Y101386D01*
X341170Y101320D01*
X341215Y101264D01*
X341231Y101236D01*
X341249Y101221D01*
X341261Y101206D01*
X341261Y97227D01*
X338450Y94416D01*
X334474Y94416D01*
X332185Y96705D01*
X332111Y96758D01*
X332042Y96818D01*
X332012Y96830D01*
X331985Y96849D01*
X331899Y96876D01*
X331814Y96910D01*
X331773Y96914D01*
X331750Y96921D01*
X331718Y96920D01*
X331647Y96928D01*
X313203Y96928D01*
X313112Y96914D01*
X313022Y96906D01*
X312992Y96894D01*
X312960Y96889D01*
X312879Y96846D01*
X312795Y96810D01*
X312763Y96784D01*
X312742Y96773D01*
X312720Y96750D01*
X312664Y96705D01*
X309822Y93863D01*
X309769Y93789D01*
X309709Y93719D01*
X309697Y93689D01*
X309678Y93663D01*
X309651Y93576D01*
X309617Y93491D01*
X309613Y93450D01*
X309606Y93428D01*
X309607Y93396D01*
X309599Y93324D01*
X309599Y90087D01*
X306788Y87276D01*
X302812Y87276D01*
X300001Y90087D01*
X300001Y94063D01*
X302812Y96874D01*
X306049Y96874D01*
X306140Y96888D01*
X306230Y96896D01*
X306260Y96908D01*
X306292Y96913D01*
X306373Y96956D01*
X306457Y96992D01*
X306489Y97018D01*
X306510Y97029D01*
X306532Y97052D01*
X306588Y97097D01*
X309430Y99939D01*
X310680Y101189D01*
X310722Y101247D01*
X310771Y101299D01*
X310793Y101346D01*
X310823Y101388D01*
X310844Y101457D01*
X310875Y101522D01*
X310880Y101574D01*
X310896Y101624D01*
X310894Y101695D01*
X310902Y101766D01*
X310891Y101817D01*
X310889Y101869D01*
X310865Y101937D01*
X310850Y102007D01*
X310823Y102052D01*
X310805Y102100D01*
X310760Y102156D01*
X310723Y102218D01*
X310684Y102252D01*
X310651Y102292D01*
X310591Y102331D01*
X310536Y102378D01*
X310488Y102397D01*
X310444Y102425D01*
X310375Y102443D01*
X310308Y102470D01*
X310237Y102478D01*
X310206Y102486D01*
X310182Y102484D01*
X310142Y102488D01*
X291958Y102488D01*
X291868Y102474D01*
X291777Y102466D01*
X291747Y102454D01*
X291715Y102449D01*
X291635Y102406D01*
X291551Y102370D01*
X291519Y102344D01*
X291498Y102333D01*
X291476Y102310D01*
X291420Y102265D01*
X281902Y92748D01*
X280340Y91185D01*
X275435Y91185D01*
X275415Y91182D01*
X275396Y91184D01*
X275294Y91162D01*
X275192Y91146D01*
X275175Y91136D01*
X275155Y91132D01*
X275066Y91079D01*
X274975Y91030D01*
X274961Y91016D01*
X274944Y91006D01*
X274877Y90927D01*
X274805Y90852D01*
X274797Y90834D01*
X274784Y90819D01*
X274745Y90723D01*
X274702Y90629D01*
X274700Y90609D01*
X274692Y90591D01*
X274674Y90424D01*
X274674Y88972D01*
X271863Y86161D01*
X267887Y86161D01*
X265076Y88972D01*
X265076Y92953D01*
X265104Y92992D01*
X265154Y93044D01*
X265175Y93091D01*
X265206Y93133D01*
X265227Y93202D01*
X265257Y93267D01*
X265263Y93319D01*
X265278Y93368D01*
X265276Y93440D01*
X265284Y93511D01*
X265273Y93562D01*
X265272Y93614D01*
X265247Y93682D01*
X265232Y93752D01*
X265205Y93797D01*
X265187Y93845D01*
X265143Y93901D01*
X265106Y93963D01*
X265066Y93997D01*
X265034Y94037D01*
X264973Y94076D01*
X264919Y94123D01*
X264871Y94142D01*
X264827Y94170D01*
X264757Y94188D01*
X264691Y94215D01*
X264620Y94223D01*
X264588Y94231D01*
X264565Y94229D01*
X264524Y94233D01*
X218433Y94233D01*
X218342Y94219D01*
X218252Y94211D01*
X218222Y94199D01*
X218190Y94194D01*
X218109Y94151D01*
X218025Y94115D01*
X217993Y94089D01*
X217972Y94078D01*
X217950Y94055D01*
X217894Y94010D01*
X215354Y91470D01*
X189700Y65816D01*
X189658Y65758D01*
X189609Y65706D01*
X189587Y65659D01*
X189557Y65617D01*
X189536Y65548D01*
X189505Y65483D01*
X189500Y65431D01*
X189484Y65381D01*
X189486Y65310D01*
X189478Y65239D01*
X189489Y65188D01*
X189491Y65136D01*
X189515Y65068D01*
X189530Y64998D01*
X189557Y64953D01*
X189575Y64905D01*
X189620Y64849D01*
X189657Y64787D01*
X189696Y64753D01*
X189729Y64713D01*
X189789Y64674D01*
X189844Y64627D01*
X189892Y64608D01*
X189936Y64580D01*
X190005Y64562D01*
X190072Y64535D01*
X190143Y64527D01*
X190174Y64519D01*
X190198Y64521D01*
X190238Y64517D01*
X195845Y64517D01*
X195935Y64531D01*
X196026Y64539D01*
X196056Y64551D01*
X196088Y64556D01*
X196168Y64599D01*
X196252Y64635D01*
X196284Y64661D01*
X196305Y64672D01*
X196327Y64695D01*
X196383Y64740D01*
X198672Y67029D01*
X202648Y67029D01*
X205459Y64218D01*
X205459Y60242D01*
X204175Y58958D01*
X204163Y58942D01*
X204148Y58930D01*
X204091Y58842D01*
X204031Y58759D01*
X204025Y58740D01*
X204015Y58723D01*
X203989Y58622D01*
X203959Y58523D01*
X203959Y58504D01*
X203954Y58484D01*
X203962Y58381D01*
X203965Y58278D01*
X203972Y58259D01*
X203974Y58239D01*
X204014Y58144D01*
X204050Y58047D01*
X204062Y58031D01*
X204070Y58013D01*
X204175Y57882D01*
X205459Y56598D01*
X205459Y52622D01*
X204175Y51338D01*
X204163Y51322D01*
X204148Y51310D01*
X204091Y51222D01*
X204031Y51139D01*
X204025Y51120D01*
X204015Y51103D01*
X203989Y51002D01*
X203959Y50903D01*
X203959Y50884D01*
X203954Y50864D01*
X203962Y50761D01*
X203965Y50658D01*
X203972Y50639D01*
X203974Y50619D01*
X204014Y50524D01*
X204050Y50427D01*
X204062Y50411D01*
X204070Y50393D01*
X204175Y50262D01*
X205459Y48978D01*
X205459Y45002D01*
X202648Y42191D01*
X198672Y42191D01*
X196383Y44480D01*
X196309Y44533D01*
X196240Y44593D01*
X196210Y44605D01*
X196184Y44624D01*
X196097Y44651D01*
X196012Y44685D01*
X195971Y44689D01*
X195948Y44696D01*
X195916Y44695D01*
X195845Y44703D01*
X187953Y44703D01*
X187862Y44689D01*
X187772Y44681D01*
X187742Y44669D01*
X187710Y44664D01*
X187629Y44621D01*
X187545Y44585D01*
X187513Y44559D01*
X187492Y44548D01*
X187470Y44525D01*
X187414Y44480D01*
X180310Y37376D01*
X180257Y37302D01*
X180197Y37232D01*
X180185Y37202D01*
X180166Y37176D01*
X180139Y37089D01*
X180105Y37004D01*
X180101Y36963D01*
X180094Y36941D01*
X180095Y36909D01*
X180087Y36837D01*
X180087Y25135D01*
X180101Y25045D01*
X180109Y24954D01*
X180121Y24924D01*
X180126Y24892D01*
X180169Y24812D01*
X180205Y24728D01*
X180231Y24696D01*
X180242Y24675D01*
X180265Y24653D01*
X180310Y24597D01*
X182599Y22308D01*
X182599Y18332D01*
X179788Y15521D01*
X175812Y15521D01*
X173893Y17440D01*
X173877Y17452D01*
X173865Y17467D01*
X173777Y17524D01*
X173694Y17584D01*
X173675Y17590D01*
X173658Y17600D01*
X173557Y17626D01*
X173458Y17656D01*
X173439Y17656D01*
X173419Y17661D01*
X173316Y17653D01*
X173213Y17650D01*
X173194Y17643D01*
X173174Y17641D01*
X173079Y17601D01*
X172982Y17565D01*
X172966Y17553D01*
X172948Y17545D01*
X172817Y17440D01*
X170898Y15521D01*
X166922Y15521D01*
X165003Y17440D01*
X164987Y17452D01*
X164975Y17467D01*
X164887Y17524D01*
X164804Y17584D01*
X164785Y17590D01*
X164768Y17600D01*
X164667Y17626D01*
X164568Y17656D01*
X164549Y17656D01*
X164529Y17661D01*
X164426Y17653D01*
X164323Y17650D01*
X164304Y17643D01*
X164284Y17641D01*
X164189Y17601D01*
X164092Y17565D01*
X164076Y17553D01*
X164058Y17545D01*
X163927Y17440D01*
X162008Y15521D01*
X158032Y15521D01*
G37*
%LPD*%
%LPC*%
G36*
X15961Y136905D02*
X15961Y136905D01*
X12600Y138297D01*
X10027Y140870D01*
X8635Y144231D01*
X8635Y147869D01*
X10027Y151230D01*
X12600Y153803D01*
X15961Y155195D01*
X34839Y155195D01*
X38200Y153803D01*
X40773Y151230D01*
X42165Y147869D01*
X42165Y144231D01*
X40773Y140870D01*
X38200Y138297D01*
X34839Y136905D01*
X15961Y136905D01*
G37*
%LPD*%
%LPC*%
G36*
X93262Y274601D02*
X93262Y274601D01*
X90451Y277412D01*
X90451Y281388D01*
X93262Y284199D01*
X96499Y284199D01*
X96590Y284213D01*
X96680Y284221D01*
X96710Y284233D01*
X96742Y284238D01*
X96823Y284281D01*
X96907Y284317D01*
X96939Y284343D01*
X96960Y284354D01*
X96964Y284358D01*
X96983Y284378D01*
X97038Y284422D01*
X126053Y313437D01*
X128535Y313437D01*
X128625Y313451D01*
X128716Y313459D01*
X128746Y313471D01*
X128778Y313476D01*
X128858Y313519D01*
X128942Y313555D01*
X128974Y313581D01*
X128995Y313592D01*
X129017Y313615D01*
X129073Y313660D01*
X131362Y315949D01*
X135338Y315949D01*
X138149Y313138D01*
X138149Y309162D01*
X135338Y306351D01*
X131362Y306351D01*
X129073Y308640D01*
X128999Y308693D01*
X128930Y308753D01*
X128900Y308765D01*
X128874Y308784D01*
X128787Y308811D01*
X128702Y308845D01*
X128661Y308849D01*
X128638Y308856D01*
X128606Y308855D01*
X128535Y308863D01*
X128263Y308863D01*
X128172Y308849D01*
X128082Y308841D01*
X128052Y308829D01*
X128020Y308824D01*
X127939Y308781D01*
X127855Y308745D01*
X127823Y308719D01*
X127802Y308708D01*
X127780Y308685D01*
X127724Y308640D01*
X100272Y281188D01*
X100219Y281114D01*
X100159Y281044D01*
X100147Y281014D01*
X100128Y280988D01*
X100101Y280901D01*
X100067Y280816D01*
X100063Y280775D01*
X100056Y280753D01*
X100057Y280721D01*
X100049Y280649D01*
X100049Y277412D01*
X97238Y274601D01*
X93262Y274601D01*
G37*
%LPD*%
%LPC*%
G36*
X156762Y230151D02*
X156762Y230151D01*
X153951Y232962D01*
X153951Y236938D01*
X156240Y239227D01*
X156293Y239301D01*
X156353Y239370D01*
X156365Y239400D01*
X156384Y239426D01*
X156411Y239513D01*
X156445Y239598D01*
X156449Y239639D01*
X156456Y239662D01*
X156455Y239694D01*
X156463Y239765D01*
X156463Y274585D01*
X156449Y274675D01*
X156441Y274766D01*
X156429Y274796D01*
X156424Y274828D01*
X156381Y274908D01*
X156345Y274992D01*
X156319Y275024D01*
X156308Y275045D01*
X156285Y275067D01*
X156240Y275123D01*
X153951Y277412D01*
X153951Y281388D01*
X156762Y284199D01*
X160738Y284199D01*
X163549Y281388D01*
X163549Y277412D01*
X161260Y275123D01*
X161207Y275049D01*
X161147Y274980D01*
X161135Y274950D01*
X161116Y274924D01*
X161089Y274837D01*
X161055Y274752D01*
X161051Y274711D01*
X161044Y274688D01*
X161045Y274656D01*
X161037Y274585D01*
X161037Y239765D01*
X161051Y239675D01*
X161059Y239584D01*
X161071Y239554D01*
X161076Y239522D01*
X161119Y239442D01*
X161155Y239358D01*
X161181Y239326D01*
X161192Y239305D01*
X161215Y239283D01*
X161260Y239227D01*
X163549Y236938D01*
X163549Y232962D01*
X160738Y230151D01*
X156762Y230151D01*
G37*
%LPD*%
%LPC*%
G36*
X345462Y314705D02*
X345462Y314705D01*
X340105Y320062D01*
X340105Y327638D01*
X345462Y332995D01*
X353038Y332995D01*
X358395Y327638D01*
X358395Y320062D01*
X353038Y314705D01*
X345462Y314705D01*
G37*
%LPD*%
%LPC*%
G36*
X320062Y314705D02*
X320062Y314705D01*
X314705Y320062D01*
X314705Y327638D01*
X320062Y332995D01*
X327638Y332995D01*
X332995Y327638D01*
X332995Y320062D01*
X327638Y314705D01*
X320062Y314705D01*
G37*
%LPD*%
%LPC*%
G36*
X345462Y263905D02*
X345462Y263905D01*
X340105Y269262D01*
X340105Y276838D01*
X345462Y282195D01*
X353038Y282195D01*
X358395Y276838D01*
X358395Y269262D01*
X353038Y263905D01*
X345462Y263905D01*
G37*
%LPD*%
%LPC*%
G36*
X345462Y213105D02*
X345462Y213105D01*
X340105Y218462D01*
X340105Y226038D01*
X345462Y231395D01*
X353038Y231395D01*
X358395Y226038D01*
X358395Y218462D01*
X353038Y213105D01*
X345462Y213105D01*
G37*
%LPD*%
%LPC*%
G36*
X345462Y187705D02*
X345462Y187705D01*
X340105Y193062D01*
X340105Y200638D01*
X345462Y205995D01*
X353038Y205995D01*
X358395Y200638D01*
X358395Y193062D01*
X353038Y187705D01*
X345462Y187705D01*
G37*
%LPD*%
%LPC*%
G36*
X320062Y187705D02*
X320062Y187705D01*
X314705Y193062D01*
X314705Y200638D01*
X320062Y205995D01*
X327638Y205995D01*
X332995Y200638D01*
X332995Y193062D01*
X327638Y187705D01*
X320062Y187705D01*
G37*
%LPD*%
%LPC*%
G36*
X26923Y301548D02*
X26923Y301548D01*
X26923Y310186D01*
X33820Y310186D01*
X35399Y309935D01*
X36920Y309441D01*
X38345Y308715D01*
X39639Y307775D01*
X40770Y306644D01*
X41710Y305350D01*
X42436Y303925D01*
X42931Y302404D01*
X43066Y301548D01*
X26923Y301548D01*
G37*
%LPD*%
%LPC*%
G36*
X26923Y172973D02*
X26923Y172973D01*
X26923Y181611D01*
X33820Y181611D01*
X35399Y181361D01*
X36920Y180866D01*
X38345Y180140D01*
X39639Y179200D01*
X40770Y178069D01*
X41710Y176775D01*
X42436Y175350D01*
X42931Y173829D01*
X43066Y172973D01*
X26923Y172973D01*
G37*
%LPD*%
%LPC*%
G36*
X7734Y301548D02*
X7734Y301548D01*
X7869Y302404D01*
X8364Y303925D01*
X9090Y305350D01*
X10030Y306644D01*
X11161Y307775D01*
X12455Y308715D01*
X13880Y309441D01*
X15401Y309935D01*
X16980Y310186D01*
X23877Y310186D01*
X23877Y301548D01*
X7734Y301548D01*
G37*
%LPD*%
%LPC*%
G36*
X7734Y172973D02*
X7734Y172973D01*
X7869Y173829D01*
X8364Y175350D01*
X9090Y176775D01*
X10030Y178069D01*
X11161Y179200D01*
X12455Y180140D01*
X13880Y180866D01*
X15401Y181361D01*
X16980Y181611D01*
X23877Y181611D01*
X23877Y172973D01*
X7734Y172973D01*
G37*
%LPD*%
%LPC*%
G36*
X26923Y289864D02*
X26923Y289864D01*
X26923Y298502D01*
X43066Y298502D01*
X42931Y297646D01*
X42436Y296124D01*
X41710Y294699D01*
X40770Y293405D01*
X39639Y292275D01*
X38345Y291335D01*
X36920Y290609D01*
X35399Y290114D01*
X33820Y289864D01*
X26923Y289864D01*
G37*
%LPD*%
%LPC*%
G36*
X26923Y161289D02*
X26923Y161289D01*
X26923Y169927D01*
X43066Y169927D01*
X42931Y169071D01*
X42436Y167550D01*
X41710Y166125D01*
X40770Y164831D01*
X39639Y163700D01*
X38345Y162760D01*
X36920Y162034D01*
X35399Y161539D01*
X33820Y161289D01*
X26923Y161289D01*
G37*
%LPD*%
%LPC*%
G36*
X16980Y289864D02*
X16980Y289864D01*
X15401Y290114D01*
X13880Y290609D01*
X12455Y291335D01*
X11161Y292275D01*
X10030Y293405D01*
X9090Y294699D01*
X8364Y296124D01*
X7869Y297646D01*
X7734Y298502D01*
X23877Y298502D01*
X23877Y289864D01*
X16980Y289864D01*
G37*
%LPD*%
%LPC*%
G36*
X16980Y161289D02*
X16980Y161289D01*
X15401Y161539D01*
X13880Y162034D01*
X12455Y162760D01*
X11161Y163700D01*
X10030Y164831D01*
X9090Y166125D01*
X8364Y167550D01*
X7869Y169071D01*
X7734Y169927D01*
X23877Y169927D01*
X23877Y161289D01*
X16980Y161289D01*
G37*
%LPD*%
%LPC*%
G36*
X325373Y299973D02*
X325373Y299973D01*
X325373Y308611D01*
X328059Y308611D01*
X334011Y302659D01*
X334011Y299973D01*
X325373Y299973D01*
G37*
%LPD*%
%LPC*%
G36*
X325373Y172973D02*
X325373Y172973D01*
X325373Y181611D01*
X328059Y181611D01*
X334011Y175659D01*
X334011Y172973D01*
X325373Y172973D01*
G37*
%LPD*%
%LPC*%
G36*
X325373Y169927D02*
X325373Y169927D01*
X334011Y169927D01*
X334011Y167241D01*
X328059Y161289D01*
X325373Y161289D01*
X325373Y169927D01*
G37*
%LPD*%
%LPC*%
G36*
X313689Y299973D02*
X313689Y299973D01*
X313689Y302659D01*
X319641Y308611D01*
X322327Y308611D01*
X322327Y299973D01*
X313689Y299973D01*
G37*
%LPD*%
%LPC*%
G36*
X313689Y172973D02*
X313689Y172973D01*
X313689Y175659D01*
X319641Y181611D01*
X322327Y181611D01*
X322327Y172973D01*
X313689Y172973D01*
G37*
%LPD*%
%LPC*%
G36*
X319641Y161289D02*
X319641Y161289D01*
X313689Y167241D01*
X313689Y169927D01*
X322327Y169927D01*
X322327Y161289D01*
X319641Y161289D01*
G37*
%LPD*%
%LPC*%
G36*
X25399Y300024D02*
X25399Y300024D01*
X25399Y300026D01*
X25401Y300026D01*
X25401Y300024D01*
X25399Y300024D01*
G37*
%LPD*%
%LPC*%
G36*
X323849Y171449D02*
X323849Y171449D01*
X323849Y171451D01*
X323851Y171451D01*
X323851Y171449D01*
X323849Y171449D01*
G37*
%LPD*%
%LPC*%
G36*
X25399Y171449D02*
X25399Y171449D01*
X25399Y171451D01*
X25401Y171451D01*
X25401Y171449D01*
X25399Y171449D01*
G37*
%LPD*%
D10*
X33020Y146050D02*
X17780Y146050D01*
X17780Y171450D02*
X33020Y171450D01*
X33020Y196850D02*
X17780Y196850D01*
X17780Y222250D02*
X33020Y222250D01*
X33020Y247650D02*
X17780Y247650D01*
X17780Y273050D02*
X33020Y273050D01*
X33020Y300025D02*
X17780Y300025D01*
X17780Y325425D02*
X33020Y325425D01*
D11*
X349250Y171450D03*
X323850Y171450D03*
X349250Y196850D03*
X323850Y196850D03*
X349250Y222250D03*
X323850Y222250D03*
X349250Y247650D03*
X323850Y247650D03*
X349250Y273050D03*
X323850Y273050D03*
X349250Y298450D03*
X323850Y298450D03*
X349250Y323850D03*
X323850Y323850D03*
D12*
X236220Y133350D03*
D13*
X231140Y128270D01*
X181610Y128270D01*
D12*
X181610Y128270D03*
X108510Y68580D03*
D13*
X121210Y81280D01*
X194310Y81280D02*
X205740Y92710D01*
X205740Y97790D01*
D12*
X205740Y97790D03*
D13*
X194310Y81280D02*
X121210Y81280D01*
D12*
X237533Y125278D03*
X187960Y118110D03*
D13*
X232459Y125278D02*
X237533Y125278D01*
X232459Y125278D02*
X232403Y125222D01*
X195072Y125222D01*
X187960Y118110D01*
D12*
X95250Y279400D03*
X133350Y311150D03*
D13*
X127000Y311150D02*
X95250Y279400D01*
X127000Y311150D02*
X133350Y311150D01*
D12*
X158750Y279400D03*
X158750Y234950D03*
D13*
X158750Y279400D01*
D12*
X160020Y20320D03*
X168910Y20320D03*
X177800Y20320D03*
X200660Y46990D03*
X200660Y54610D03*
X200660Y62230D03*
D13*
X177800Y38100D02*
X177800Y20320D01*
X186690Y46990D02*
X200660Y46990D01*
X186690Y46990D02*
X177800Y38100D01*
X168910Y44450D02*
X179070Y54610D01*
X168910Y44450D02*
X168910Y20320D01*
X179070Y54610D02*
X200660Y54610D01*
X160020Y48260D02*
X160020Y20320D01*
X173990Y62230D02*
X200660Y62230D01*
X173990Y62230D02*
X160020Y48260D01*
D12*
X69850Y177800D03*
D13*
X69850Y149225D01*
X66675Y146050D01*
D12*
X66675Y146050D03*
X153670Y185420D03*
X101600Y101600D03*
X254000Y234950D03*
X254000Y334010D03*
D13*
X254000Y336550D01*
X266700Y336550D01*
X266700Y330200D01*
D12*
X237242Y115570D03*
X304800Y306070D03*
X302260Y224790D03*
X127705Y102870D03*
X185632Y148816D03*
X368300Y118110D03*
X138430Y36830D03*
X335788Y137160D03*
D13*
X339090Y139700D01*
X342900Y139700D01*
D12*
X269240Y137160D03*
X302768Y137160D03*
D13*
X304800Y139700D01*
D12*
X193040Y20320D03*
X193040Y10160D03*
X93980Y20320D03*
X93980Y10160D03*
X128510Y68580D03*
D13*
X154940Y68580D01*
X158550Y72390D01*
D12*
X158550Y72390D03*
X118510Y68580D03*
X183550Y72390D03*
D13*
X127880Y77950D02*
X118510Y68580D01*
X127880Y77950D02*
X160853Y77950D01*
X177990Y77950D01*
X183550Y72390D01*
D12*
X98510Y68580D03*
D13*
X115020Y85090D01*
X189230Y85090D02*
X194310Y90170D01*
X194310Y92710D01*
D12*
X194310Y92710D03*
D13*
X189230Y85090D02*
X115020Y85090D01*
D12*
X181610Y156210D03*
D13*
X190500Y165100D01*
X259017Y165100D01*
X285750Y191834D01*
X285750Y237490D01*
X295910Y247650D01*
X323850Y247650D01*
D12*
X181610Y166370D03*
D13*
X184150Y168910D01*
X258311Y168910D02*
X280670Y191269D01*
X280670Y265430D02*
X287020Y271780D01*
X288290Y273050D01*
X258311Y168910D02*
X184150Y168910D01*
X280670Y191269D02*
X280670Y265430D01*
X288290Y273050D02*
X323850Y273050D01*
D12*
X184150Y175260D03*
D13*
X260350Y175260D01*
X275590Y190500D01*
X275590Y270510D02*
X290830Y285750D01*
X336550Y285750D01*
X275590Y270510D02*
X275590Y190500D01*
X336550Y285750D02*
X349250Y298450D01*
X298450Y234950D02*
X292100Y228600D01*
X298450Y234950D02*
X329565Y234950D01*
X342265Y247650D01*
D12*
X156210Y147320D03*
D13*
X172797Y147320D01*
X176861Y143256D01*
X241483Y143256D01*
X292100Y193873D01*
X292100Y228600D01*
X342265Y247650D02*
X349250Y247650D01*
D12*
X163830Y184150D03*
D13*
X170180Y190500D01*
X260350Y190500D01*
D12*
X260350Y190500D03*
X173990Y184150D03*
D13*
X254000Y184150D01*
X255270Y182880D01*
D12*
X255270Y182880D03*
X110490Y139700D03*
D13*
X242951Y139700D01*
X332740Y148590D02*
X349250Y165100D01*
X332740Y148590D02*
X251841Y148590D01*
X242951Y139700D01*
X349250Y165100D02*
X349250Y171450D01*
D12*
X181610Y109220D03*
D13*
X47625Y196850D02*
X25400Y196850D01*
X50927Y193548D02*
X50927Y139072D01*
X80779Y109220D01*
X181610Y109220D01*
X50927Y193548D02*
X47625Y196850D01*
D12*
X177800Y117094D03*
D13*
X173736Y113030D01*
X82550Y113030D01*
X53975Y141605D02*
X53975Y209550D01*
X53975Y141605D02*
X82550Y113030D01*
X41275Y222250D02*
X25400Y222250D01*
X41275Y222250D02*
X53975Y209550D01*
D12*
X167640Y120650D03*
D13*
X165100Y118110D01*
X82550Y118110D01*
X57150Y143510D01*
X57150Y234950D02*
X44450Y247650D01*
X25400Y247650D01*
X57150Y234950D02*
X57150Y143510D01*
D12*
X158750Y222250D03*
D13*
X76200Y222250D02*
X25400Y273050D01*
X76200Y222250D02*
X158750Y222250D01*
X25400Y325425D02*
X7925Y325425D01*
X3175Y320675D01*
X3175Y117475D01*
X12700Y107950D01*
X60325Y107950D02*
X79375Y88900D01*
D12*
X79375Y88900D03*
D13*
X60325Y107950D02*
X12700Y107950D01*
D12*
X67310Y67310D03*
D13*
X82550Y67310D01*
X208043Y103350D02*
X208523Y102870D01*
X246380Y102870D02*
X247650Y102870D01*
D12*
X247650Y102870D03*
D13*
X103378Y88138D02*
X82550Y67310D01*
X103378Y88138D02*
X180848Y88138D01*
X196060Y103350D01*
X208043Y103350D01*
X208523Y102870D02*
X246380Y102870D01*
D12*
X62021Y74112D03*
D13*
X85041Y74112D01*
X102115Y91186D01*
X179585Y91186D02*
X190250Y101850D01*
X194797Y106398D01*
X179585Y91186D02*
X102115Y91186D01*
X194797Y106398D02*
X195079Y106680D01*
D12*
X279897Y109220D03*
D13*
X245347Y108430D02*
X243597Y106680D01*
X279107Y108430D02*
X279897Y109220D01*
X279107Y108430D02*
X245347Y108430D01*
X243597Y106680D02*
X195079Y106680D01*
X194797Y106398D01*
D12*
X55742Y80634D03*
D13*
X87253Y80634D01*
X100853Y94234D01*
X178323Y94234D01*
X193817Y109728D01*
X242334Y109728D02*
X244084Y111478D01*
X274292Y111478D02*
X277594Y114780D01*
X311630Y114780D02*
X316230Y119380D01*
D12*
X316230Y119380D03*
D13*
X242334Y109728D02*
X193817Y109728D01*
X244084Y111478D02*
X274292Y111478D01*
X277594Y114780D02*
X311630Y114780D01*
D12*
X172720Y72390D03*
D13*
X175687Y72390D01*
X181247Y66830D01*
X186210Y66830D01*
D12*
X349250Y116840D03*
D13*
X187480Y66830D02*
X186210Y66830D01*
X187480Y66830D02*
X214630Y93980D01*
X217170Y96520D01*
X241300Y96520D01*
X278130Y96520D01*
X290830Y109220D01*
X341630Y109220D02*
X349250Y116840D01*
X341630Y109220D02*
X290830Y109220D01*
D12*
X359410Y114300D03*
D13*
X354573Y114300D01*
D12*
X269875Y90960D03*
D13*
X279393Y93472D02*
X290696Y104775D01*
X272387Y93472D02*
X269875Y90960D01*
X272387Y93472D02*
X279393Y93472D01*
X345048Y104775D02*
X354573Y114300D01*
X345048Y104775D02*
X290696Y104775D01*
D12*
X304800Y92075D03*
D13*
X311940Y99215D01*
X336462Y99215D01*
D12*
X336462Y99215D03*
M02*
