G04 EAGLE Gerber RS-274X export*
G75*
%MOMM*%
%FSLAX34Y34*%
%LPD*%
%INTop Copper*%
%IPPOS*%
%AMOC8*
5,1,8,0,0,1.08239X$1,22.5*%
G01*
%ADD10R,1.788300X0.363200*%
%ADD11R,0.363200X1.788300*%
%ADD12R,1.636400X0.300000*%
%ADD13C,1.524000*%
%ADD14R,1.000000X1.100000*%
%ADD15R,2.540000X1.270000*%
%ADD16R,1.100000X1.000000*%
%ADD17R,0.787400X0.889000*%
%ADD18R,0.900000X0.650000*%
%ADD19R,0.600000X2.000000*%
%ADD20R,2.500000X2.000000*%
%ADD21P,1.649562X8X112.500000*%
%ADD22R,1.300000X1.300000*%
%ADD23C,0.152400*%
%ADD24C,0.654800*%

G36*
X71156Y2552D02*
X71156Y2552D01*
X71228Y2554D01*
X71277Y2572D01*
X71328Y2580D01*
X71391Y2614D01*
X71459Y2639D01*
X71499Y2671D01*
X71545Y2696D01*
X71595Y2747D01*
X71651Y2792D01*
X71679Y2836D01*
X71715Y2874D01*
X71745Y2939D01*
X71784Y2999D01*
X71796Y3050D01*
X71818Y3097D01*
X71826Y3168D01*
X71844Y3238D01*
X71840Y3290D01*
X71845Y3341D01*
X71830Y3412D01*
X71825Y3483D01*
X71804Y3531D01*
X71793Y3582D01*
X71756Y3643D01*
X71728Y3709D01*
X71683Y3765D01*
X71667Y3793D01*
X71649Y3808D01*
X71623Y3840D01*
X71485Y3978D01*
X71485Y25242D01*
X72378Y26135D01*
X98642Y26135D01*
X99535Y25242D01*
X99535Y3978D01*
X99397Y3840D01*
X99355Y3782D01*
X99305Y3730D01*
X99283Y3683D01*
X99253Y3641D01*
X99232Y3572D01*
X99202Y3507D01*
X99196Y3455D01*
X99181Y3405D01*
X99183Y3334D01*
X99175Y3263D01*
X99186Y3212D01*
X99187Y3160D01*
X99212Y3092D01*
X99227Y3022D01*
X99254Y2977D01*
X99271Y2929D01*
X99316Y2873D01*
X99353Y2811D01*
X99393Y2777D01*
X99425Y2737D01*
X99485Y2698D01*
X99540Y2651D01*
X99588Y2632D01*
X99632Y2604D01*
X99701Y2586D01*
X99768Y2559D01*
X99839Y2551D01*
X99871Y2543D01*
X99894Y2545D01*
X99935Y2541D01*
X171902Y2541D01*
X171973Y2552D01*
X172044Y2554D01*
X172093Y2572D01*
X172145Y2580D01*
X172208Y2614D01*
X172275Y2639D01*
X172316Y2671D01*
X172362Y2696D01*
X172412Y2748D01*
X172468Y2792D01*
X172496Y2836D01*
X172532Y2874D01*
X172562Y2939D01*
X172601Y2999D01*
X172613Y3050D01*
X172635Y3097D01*
X172643Y3168D01*
X172661Y3238D01*
X172657Y3290D01*
X172662Y3341D01*
X172647Y3412D01*
X172641Y3483D01*
X172621Y3531D01*
X172610Y3582D01*
X172573Y3643D01*
X172545Y3709D01*
X172500Y3765D01*
X172484Y3793D01*
X172466Y3808D01*
X172440Y3840D01*
X170941Y5339D01*
X170941Y7234D01*
X172281Y8573D01*
X186724Y8573D01*
X186744Y8576D01*
X186763Y8574D01*
X186865Y8596D01*
X186967Y8613D01*
X186984Y8622D01*
X187004Y8627D01*
X187093Y8680D01*
X187184Y8728D01*
X187198Y8742D01*
X187215Y8753D01*
X187282Y8831D01*
X187354Y8906D01*
X187362Y8924D01*
X187375Y8940D01*
X187414Y9036D01*
X187457Y9129D01*
X187459Y9149D01*
X187467Y9168D01*
X187485Y9334D01*
X187485Y25242D01*
X188378Y26135D01*
X214642Y26135D01*
X215535Y25242D01*
X215535Y3978D01*
X215397Y3840D01*
X215355Y3782D01*
X215305Y3730D01*
X215283Y3683D01*
X215253Y3641D01*
X215232Y3572D01*
X215202Y3507D01*
X215196Y3455D01*
X215181Y3405D01*
X215183Y3334D01*
X215175Y3263D01*
X215186Y3212D01*
X215187Y3160D01*
X215212Y3092D01*
X215227Y3022D01*
X215254Y2977D01*
X215271Y2929D01*
X215316Y2873D01*
X215353Y2811D01*
X215393Y2777D01*
X215425Y2737D01*
X215485Y2698D01*
X215540Y2651D01*
X215588Y2632D01*
X215632Y2604D01*
X215701Y2586D01*
X215768Y2559D01*
X215839Y2551D01*
X215871Y2543D01*
X215894Y2545D01*
X215935Y2541D01*
X306979Y2541D01*
X306997Y2544D01*
X307029Y2542D01*
X309913Y2731D01*
X309936Y2737D01*
X310060Y2756D01*
X315633Y4249D01*
X315647Y4255D01*
X315663Y4257D01*
X315816Y4325D01*
X320812Y7209D01*
X320831Y7224D01*
X320865Y7248D01*
X320893Y7263D01*
X320906Y7277D01*
X320933Y7296D01*
X323107Y9202D01*
X323118Y9216D01*
X323143Y9236D01*
X370797Y56890D01*
X371431Y57524D01*
X371764Y57857D01*
X371775Y57872D01*
X371798Y57893D01*
X373704Y60067D01*
X373717Y60087D01*
X373791Y60188D01*
X376675Y65184D01*
X376681Y65199D01*
X376690Y65211D01*
X376751Y65367D01*
X378244Y70940D01*
X378247Y70963D01*
X378269Y71087D01*
X378458Y73971D01*
X378456Y73990D01*
X378459Y74021D01*
X378459Y321410D01*
X378456Y321429D01*
X378458Y321460D01*
X378267Y324357D01*
X378262Y324379D01*
X378242Y324504D01*
X376737Y330098D01*
X376730Y330113D01*
X376728Y330129D01*
X376717Y330155D01*
X376716Y330158D01*
X376713Y330162D01*
X376660Y330282D01*
X373753Y335292D01*
X373738Y335311D01*
X373666Y335414D01*
X371745Y337590D01*
X371731Y337602D01*
X371711Y337627D01*
X356929Y352313D01*
X355959Y353277D01*
X355943Y353288D01*
X355922Y353311D01*
X353752Y355202D01*
X353732Y355215D01*
X353631Y355288D01*
X348650Y358150D01*
X348636Y358155D01*
X348623Y358164D01*
X348467Y358225D01*
X345382Y359048D01*
X345264Y359060D01*
X345147Y359073D01*
X345142Y359072D01*
X345137Y359072D01*
X345023Y359046D01*
X344906Y359021D01*
X344902Y359018D01*
X344898Y359017D01*
X344797Y358955D01*
X344695Y358894D01*
X344692Y358891D01*
X344688Y358889D01*
X344612Y358798D01*
X344535Y358708D01*
X344533Y358703D01*
X344530Y358700D01*
X344488Y358590D01*
X344443Y358479D01*
X344443Y358474D01*
X344441Y358471D01*
X344441Y358456D01*
X344425Y358313D01*
X344425Y352545D01*
X344439Y352454D01*
X344447Y352364D01*
X344459Y352334D01*
X344464Y352302D01*
X344507Y352221D01*
X344543Y352137D01*
X344569Y352105D01*
X344580Y352084D01*
X344603Y352062D01*
X344648Y352006D01*
X373127Y323527D01*
X373127Y159962D01*
X371564Y158399D01*
X364841Y151676D01*
X364788Y151602D01*
X364728Y151532D01*
X364716Y151502D01*
X364697Y151476D01*
X364670Y151389D01*
X364636Y151304D01*
X364632Y151263D01*
X364625Y151241D01*
X364626Y151209D01*
X364618Y151138D01*
X364618Y144148D01*
X363725Y143255D01*
X354587Y143255D01*
X353694Y144148D01*
X353694Y154302D01*
X354587Y155195D01*
X361577Y155195D01*
X361667Y155209D01*
X361758Y155217D01*
X361787Y155229D01*
X361819Y155234D01*
X361900Y155277D01*
X361984Y155313D01*
X362016Y155339D01*
X362037Y155350D01*
X362059Y155373D01*
X362115Y155418D01*
X368330Y161633D01*
X368383Y161707D01*
X368443Y161777D01*
X368455Y161807D01*
X368474Y161833D01*
X368501Y161920D01*
X368535Y162005D01*
X368539Y162046D01*
X368546Y162068D01*
X368545Y162100D01*
X368553Y162171D01*
X368553Y321317D01*
X368539Y321408D01*
X368531Y321498D01*
X368519Y321528D01*
X368514Y321560D01*
X368471Y321641D01*
X368435Y321725D01*
X368409Y321757D01*
X368398Y321778D01*
X368375Y321800D01*
X368330Y321856D01*
X345439Y344747D01*
X345423Y344758D01*
X345411Y344774D01*
X345324Y344830D01*
X345240Y344890D01*
X345221Y344896D01*
X345204Y344907D01*
X345103Y344932D01*
X345005Y344963D01*
X344985Y344962D01*
X344965Y344967D01*
X344862Y344959D01*
X344759Y344956D01*
X344740Y344949D01*
X344720Y344948D01*
X344625Y344907D01*
X344528Y344872D01*
X344512Y344859D01*
X344494Y344851D01*
X344363Y344747D01*
X343532Y343915D01*
X316868Y343915D01*
X315975Y344808D01*
X315975Y358928D01*
X315987Y358958D01*
X315988Y358985D01*
X315996Y359011D01*
X315994Y359107D01*
X315998Y359203D01*
X315991Y359230D01*
X315990Y359257D01*
X315957Y359347D01*
X315931Y359440D01*
X315915Y359462D01*
X315906Y359488D01*
X315846Y359563D01*
X315791Y359642D01*
X315769Y359659D01*
X315752Y359680D01*
X315671Y359732D01*
X315594Y359790D01*
X315568Y359798D01*
X315545Y359813D01*
X315452Y359837D01*
X315361Y359867D01*
X315326Y359868D01*
X315307Y359873D01*
X315274Y359871D01*
X315193Y359875D01*
X313018Y359734D01*
X312993Y359728D01*
X312873Y359711D01*
X307377Y358261D01*
X307364Y358255D01*
X307350Y358253D01*
X307195Y358187D01*
X302251Y355383D01*
X302231Y355367D01*
X302131Y355298D01*
X299970Y353443D01*
X299958Y353429D01*
X299933Y353410D01*
X298955Y352454D01*
X297886Y351409D01*
X292581Y349253D01*
X289718Y349257D01*
X288350Y349260D01*
X38746Y349674D01*
X37379Y349676D01*
X37363Y349674D01*
X37336Y349675D01*
X32102Y349390D01*
X32070Y349383D01*
X31975Y349372D01*
X21766Y347057D01*
X21764Y347056D01*
X21763Y347056D01*
X21605Y347001D01*
X12168Y342470D01*
X12167Y342469D01*
X12165Y342469D01*
X12023Y342380D01*
X3833Y335861D01*
X3832Y335859D01*
X3830Y335859D01*
X3712Y335740D01*
X-2821Y327560D01*
X-2821Y327559D01*
X-2822Y327558D01*
X-2911Y327416D01*
X-7458Y317987D01*
X-7458Y317985D01*
X-7459Y317984D01*
X-7514Y317826D01*
X-9846Y307621D01*
X-9848Y307589D01*
X-9864Y307494D01*
X-10158Y302260D01*
X-10156Y302243D01*
X-10159Y302217D01*
X-10159Y74021D01*
X-10156Y74003D01*
X-10158Y73971D01*
X-9969Y71087D01*
X-9963Y71064D01*
X-9944Y70940D01*
X-8451Y65367D01*
X-8445Y65353D01*
X-8443Y65337D01*
X-8375Y65184D01*
X-5491Y60188D01*
X-5476Y60170D01*
X-5404Y60067D01*
X-3498Y57893D01*
X-3483Y57881D01*
X-3464Y57857D01*
X-2497Y56890D01*
X45157Y9236D01*
X45172Y9225D01*
X45193Y9202D01*
X47367Y7296D01*
X47387Y7283D01*
X47457Y7232D01*
X47473Y7219D01*
X47478Y7216D01*
X47488Y7209D01*
X52484Y4325D01*
X52499Y4319D01*
X52511Y4310D01*
X52667Y4249D01*
X58240Y2756D01*
X58263Y2753D01*
X58387Y2731D01*
X61271Y2542D01*
X61290Y2544D01*
X61321Y2541D01*
X71085Y2541D01*
X71156Y2552D01*
G37*
%LPC*%
G36*
X167328Y29463D02*
X167328Y29463D01*
X165765Y31026D01*
X158026Y38765D01*
X156463Y40328D01*
X156463Y42324D01*
X156460Y42344D01*
X156462Y42363D01*
X156440Y42465D01*
X156424Y42567D01*
X156414Y42584D01*
X156410Y42604D01*
X156357Y42693D01*
X156308Y42784D01*
X156294Y42798D01*
X156284Y42815D01*
X156205Y42882D01*
X156130Y42954D01*
X156112Y42962D01*
X156097Y42975D01*
X156001Y43014D01*
X155907Y43057D01*
X155887Y43059D01*
X155869Y43067D01*
X155702Y43085D01*
X154878Y43085D01*
X154048Y43915D01*
X154032Y43927D01*
X154020Y43943D01*
X153932Y43999D01*
X153849Y44059D01*
X153830Y44065D01*
X153813Y44076D01*
X153712Y44101D01*
X153613Y44131D01*
X153594Y44131D01*
X153574Y44136D01*
X153471Y44128D01*
X153368Y44125D01*
X153349Y44118D01*
X153329Y44117D01*
X153234Y44076D01*
X153137Y44041D01*
X153121Y44028D01*
X153103Y44020D01*
X152972Y43915D01*
X152142Y43085D01*
X144878Y43085D01*
X144048Y43915D01*
X144032Y43927D01*
X144020Y43943D01*
X143932Y43999D01*
X143849Y44059D01*
X143830Y44065D01*
X143813Y44076D01*
X143712Y44101D01*
X143613Y44131D01*
X143594Y44131D01*
X143574Y44136D01*
X143471Y44128D01*
X143368Y44125D01*
X143349Y44118D01*
X143329Y44117D01*
X143234Y44076D01*
X143137Y44041D01*
X143121Y44028D01*
X143103Y44020D01*
X142972Y43915D01*
X142142Y43085D01*
X141558Y43085D01*
X141538Y43082D01*
X141519Y43084D01*
X141417Y43062D01*
X141315Y43046D01*
X141298Y43036D01*
X141278Y43032D01*
X141189Y42979D01*
X141098Y42930D01*
X141084Y42916D01*
X141067Y42906D01*
X141000Y42827D01*
X140928Y42752D01*
X140920Y42734D01*
X140907Y42719D01*
X140868Y42623D01*
X140825Y42529D01*
X140823Y42509D01*
X140815Y42491D01*
X140797Y42324D01*
X140797Y41565D01*
X140811Y41475D01*
X140819Y41384D01*
X140831Y41354D01*
X140836Y41322D01*
X140879Y41242D01*
X140915Y41158D01*
X140941Y41126D01*
X140952Y41105D01*
X140975Y41083D01*
X141020Y41027D01*
X143229Y38818D01*
X143229Y34842D01*
X140418Y32031D01*
X136442Y32031D01*
X133631Y34842D01*
X133631Y38818D01*
X136000Y41187D01*
X136053Y41261D01*
X136113Y41330D01*
X136125Y41360D01*
X136144Y41386D01*
X136171Y41473D01*
X136205Y41558D01*
X136209Y41599D01*
X136216Y41622D01*
X136215Y41654D01*
X136223Y41725D01*
X136223Y42324D01*
X136220Y42344D01*
X136222Y42363D01*
X136200Y42465D01*
X136184Y42567D01*
X136174Y42584D01*
X136170Y42604D01*
X136117Y42693D01*
X136068Y42784D01*
X136054Y42798D01*
X136044Y42815D01*
X135965Y42882D01*
X135890Y42954D01*
X135872Y42962D01*
X135857Y42975D01*
X135761Y43014D01*
X135667Y43057D01*
X135647Y43059D01*
X135629Y43067D01*
X135462Y43085D01*
X134878Y43085D01*
X134048Y43915D01*
X134032Y43927D01*
X134020Y43943D01*
X133932Y43999D01*
X133849Y44059D01*
X133830Y44065D01*
X133813Y44076D01*
X133712Y44101D01*
X133613Y44131D01*
X133594Y44131D01*
X133574Y44136D01*
X133471Y44128D01*
X133368Y44125D01*
X133349Y44118D01*
X133329Y44117D01*
X133234Y44076D01*
X133137Y44041D01*
X133121Y44028D01*
X133103Y44020D01*
X132972Y43915D01*
X132142Y43085D01*
X124878Y43085D01*
X124048Y43915D01*
X124032Y43927D01*
X124020Y43943D01*
X123932Y43999D01*
X123849Y44059D01*
X123830Y44065D01*
X123813Y44076D01*
X123712Y44101D01*
X123613Y44131D01*
X123594Y44131D01*
X123574Y44136D01*
X123471Y44128D01*
X123368Y44125D01*
X123349Y44118D01*
X123329Y44117D01*
X123234Y44076D01*
X123137Y44041D01*
X123121Y44028D01*
X123103Y44020D01*
X122972Y43915D01*
X122142Y43085D01*
X114878Y43085D01*
X114048Y43915D01*
X114032Y43927D01*
X114020Y43943D01*
X113932Y43999D01*
X113849Y44059D01*
X113830Y44065D01*
X113813Y44076D01*
X113712Y44101D01*
X113613Y44131D01*
X113594Y44131D01*
X113574Y44136D01*
X113471Y44128D01*
X113368Y44125D01*
X113349Y44118D01*
X113329Y44117D01*
X113234Y44076D01*
X113137Y44041D01*
X113121Y44028D01*
X113103Y44020D01*
X112972Y43915D01*
X112142Y43085D01*
X104878Y43085D01*
X104048Y43915D01*
X104032Y43927D01*
X104020Y43943D01*
X103932Y43999D01*
X103849Y44059D01*
X103830Y44065D01*
X103813Y44076D01*
X103712Y44101D01*
X103613Y44131D01*
X103594Y44131D01*
X103574Y44136D01*
X103471Y44128D01*
X103368Y44125D01*
X103349Y44118D01*
X103329Y44117D01*
X103234Y44076D01*
X103137Y44041D01*
X103121Y44028D01*
X103103Y44020D01*
X102972Y43915D01*
X102142Y43085D01*
X94878Y43085D01*
X93985Y43978D01*
X93985Y65242D01*
X93997Y65258D01*
X94013Y65270D01*
X94069Y65357D01*
X94129Y65441D01*
X94135Y65460D01*
X94146Y65477D01*
X94171Y65578D01*
X94201Y65676D01*
X94201Y65696D01*
X94206Y65716D01*
X94198Y65819D01*
X94195Y65922D01*
X94188Y65941D01*
X94186Y65961D01*
X94146Y66056D01*
X94110Y66153D01*
X94098Y66169D01*
X94090Y66187D01*
X93985Y66318D01*
X93711Y66592D01*
X93711Y70568D01*
X96522Y73379D01*
X100498Y73379D01*
X102972Y70905D01*
X102988Y70893D01*
X103000Y70878D01*
X103088Y70821D01*
X103171Y70761D01*
X103190Y70755D01*
X103207Y70745D01*
X103308Y70719D01*
X103407Y70689D01*
X103426Y70689D01*
X103446Y70684D01*
X103549Y70692D01*
X103652Y70695D01*
X103671Y70702D01*
X103691Y70704D01*
X103786Y70744D01*
X103883Y70780D01*
X103899Y70792D01*
X103917Y70800D01*
X104048Y70905D01*
X106522Y73379D01*
X110498Y73379D01*
X112972Y70905D01*
X112988Y70893D01*
X113000Y70878D01*
X113088Y70821D01*
X113171Y70761D01*
X113190Y70755D01*
X113207Y70745D01*
X113308Y70719D01*
X113407Y70689D01*
X113426Y70689D01*
X113446Y70684D01*
X113549Y70692D01*
X113652Y70695D01*
X113671Y70702D01*
X113691Y70704D01*
X113786Y70744D01*
X113883Y70780D01*
X113899Y70792D01*
X113917Y70800D01*
X114048Y70905D01*
X115302Y72158D01*
X115313Y72174D01*
X115329Y72187D01*
X115385Y72274D01*
X115445Y72358D01*
X115451Y72377D01*
X115462Y72393D01*
X115487Y72494D01*
X115517Y72593D01*
X115517Y72613D01*
X115522Y72632D01*
X115514Y72735D01*
X115511Y72839D01*
X115504Y72857D01*
X115503Y72877D01*
X115462Y72972D01*
X115427Y73070D01*
X115414Y73085D01*
X115406Y73104D01*
X115302Y73235D01*
X111263Y77273D01*
X111263Y77557D01*
X111260Y77576D01*
X111262Y77596D01*
X111240Y77697D01*
X111224Y77799D01*
X111214Y77817D01*
X111210Y77836D01*
X111157Y77925D01*
X111108Y78017D01*
X111094Y78030D01*
X111084Y78047D01*
X111005Y78115D01*
X110930Y78186D01*
X110912Y78194D01*
X110897Y78207D01*
X110801Y78246D01*
X110707Y78290D01*
X110687Y78292D01*
X110669Y78299D01*
X110502Y78318D01*
X106102Y78318D01*
X105209Y79211D01*
X105209Y96585D01*
X105198Y96656D01*
X105196Y96727D01*
X105178Y96776D01*
X105170Y96828D01*
X105136Y96891D01*
X105111Y96959D01*
X105079Y96999D01*
X105054Y97045D01*
X105002Y97095D01*
X104958Y97151D01*
X104914Y97179D01*
X104876Y97215D01*
X104811Y97245D01*
X104751Y97284D01*
X104700Y97296D01*
X104653Y97318D01*
X104582Y97326D01*
X104512Y97344D01*
X104460Y97340D01*
X104409Y97345D01*
X104338Y97330D01*
X104267Y97324D01*
X104219Y97304D01*
X104168Y97293D01*
X104107Y97256D01*
X104041Y97228D01*
X103985Y97183D01*
X103957Y97167D01*
X103942Y97149D01*
X103910Y97123D01*
X103588Y96801D01*
X99612Y96801D01*
X96801Y99612D01*
X96801Y103588D01*
X97123Y103910D01*
X97165Y103968D01*
X97215Y104020D01*
X97236Y104067D01*
X97267Y104109D01*
X97288Y104178D01*
X97318Y104243D01*
X97324Y104295D01*
X97339Y104345D01*
X97337Y104416D01*
X97345Y104487D01*
X97334Y104538D01*
X97333Y104590D01*
X97308Y104658D01*
X97293Y104728D01*
X97266Y104773D01*
X97248Y104821D01*
X97204Y104877D01*
X97167Y104939D01*
X97127Y104973D01*
X97095Y105013D01*
X97035Y105052D01*
X96980Y105099D01*
X96931Y105118D01*
X96888Y105146D01*
X96818Y105164D01*
X96752Y105191D01*
X96680Y105199D01*
X96649Y105207D01*
X96626Y105205D01*
X96585Y105209D01*
X79211Y105209D01*
X78318Y106102D01*
X78318Y120502D01*
X78315Y120522D01*
X78317Y120541D01*
X78295Y120643D01*
X78278Y120745D01*
X78269Y120762D01*
X78264Y120782D01*
X78211Y120871D01*
X78163Y120962D01*
X78149Y120976D01*
X78138Y120993D01*
X78060Y121060D01*
X77985Y121132D01*
X77967Y121140D01*
X77951Y121153D01*
X77855Y121192D01*
X77762Y121235D01*
X77742Y121237D01*
X77723Y121245D01*
X77557Y121263D01*
X72742Y121263D01*
X72652Y121249D01*
X72561Y121241D01*
X72532Y121229D01*
X72500Y121224D01*
X72419Y121181D01*
X72335Y121145D01*
X72303Y121119D01*
X72282Y121108D01*
X72260Y121085D01*
X72204Y121040D01*
X68550Y117386D01*
X68497Y117312D01*
X68437Y117242D01*
X68425Y117212D01*
X68406Y117186D01*
X68379Y117099D01*
X68345Y117014D01*
X68341Y116973D01*
X68334Y116951D01*
X68335Y116919D01*
X68327Y116847D01*
X68327Y114846D01*
X68330Y114826D01*
X68328Y114807D01*
X68350Y114705D01*
X68366Y114603D01*
X68376Y114586D01*
X68380Y114566D01*
X68433Y114477D01*
X68482Y114386D01*
X68496Y114372D01*
X68506Y114355D01*
X68585Y114288D01*
X68660Y114216D01*
X68678Y114208D01*
X68693Y114195D01*
X68789Y114156D01*
X68883Y114113D01*
X68903Y114111D01*
X68921Y114103D01*
X69088Y114085D01*
X72172Y114085D01*
X73065Y113192D01*
X73065Y105109D01*
X73079Y105019D01*
X73087Y104928D01*
X73099Y104899D01*
X73104Y104867D01*
X73147Y104786D01*
X73183Y104702D01*
X73209Y104670D01*
X73220Y104649D01*
X73243Y104627D01*
X73288Y104571D01*
X81662Y96197D01*
X81662Y93715D01*
X81676Y93625D01*
X81684Y93534D01*
X81696Y93504D01*
X81701Y93472D01*
X81744Y93392D01*
X81780Y93308D01*
X81806Y93276D01*
X81817Y93255D01*
X81840Y93233D01*
X81885Y93177D01*
X84174Y90888D01*
X84174Y86912D01*
X81363Y84101D01*
X77387Y84101D01*
X75380Y86108D01*
X75322Y86150D01*
X75270Y86200D01*
X75223Y86221D01*
X75181Y86252D01*
X75112Y86273D01*
X75047Y86303D01*
X74995Y86309D01*
X74945Y86324D01*
X74874Y86322D01*
X74803Y86330D01*
X74752Y86319D01*
X74700Y86318D01*
X74632Y86293D01*
X74562Y86278D01*
X74517Y86251D01*
X74469Y86233D01*
X74413Y86189D01*
X74351Y86152D01*
X74317Y86112D01*
X74277Y86080D01*
X74238Y86019D01*
X74191Y85965D01*
X74172Y85917D01*
X74144Y85873D01*
X74126Y85803D01*
X74099Y85737D01*
X74091Y85665D01*
X74083Y85634D01*
X74085Y85611D01*
X74081Y85570D01*
X74081Y85226D01*
X73908Y84579D01*
X73573Y84000D01*
X73100Y83527D01*
X72521Y83192D01*
X71874Y83019D01*
X67563Y83019D01*
X67563Y89798D01*
X67560Y89818D01*
X67562Y89837D01*
X67540Y89939D01*
X67523Y90041D01*
X67514Y90058D01*
X67510Y90078D01*
X67457Y90167D01*
X67408Y90258D01*
X67394Y90272D01*
X67384Y90289D01*
X67305Y90356D01*
X67230Y90427D01*
X67212Y90436D01*
X67197Y90449D01*
X67101Y90488D01*
X67007Y90531D01*
X66987Y90533D01*
X66969Y90541D01*
X66802Y90559D01*
X66039Y90559D01*
X66039Y90561D01*
X66802Y90561D01*
X66822Y90564D01*
X66841Y90562D01*
X66943Y90584D01*
X67045Y90601D01*
X67062Y90610D01*
X67082Y90614D01*
X67171Y90667D01*
X67262Y90716D01*
X67276Y90730D01*
X67293Y90740D01*
X67360Y90819D01*
X67431Y90894D01*
X67440Y90912D01*
X67453Y90927D01*
X67492Y91023D01*
X67535Y91117D01*
X67537Y91137D01*
X67545Y91155D01*
X67563Y91322D01*
X67563Y98101D01*
X71453Y98101D01*
X71523Y98112D01*
X71595Y98114D01*
X71644Y98132D01*
X71695Y98140D01*
X71759Y98174D01*
X71826Y98199D01*
X71867Y98231D01*
X71913Y98256D01*
X71962Y98307D01*
X72018Y98352D01*
X72046Y98396D01*
X72082Y98434D01*
X72112Y98499D01*
X72151Y98559D01*
X72164Y98610D01*
X72186Y98657D01*
X72194Y98728D01*
X72211Y98798D01*
X72207Y98850D01*
X72213Y98901D01*
X72198Y98972D01*
X72192Y99043D01*
X72172Y99091D01*
X72161Y99142D01*
X72124Y99203D01*
X72096Y99269D01*
X72051Y99325D01*
X72034Y99353D01*
X72017Y99368D01*
X71991Y99400D01*
X70579Y100812D01*
X70505Y100865D01*
X70435Y100925D01*
X70405Y100937D01*
X70379Y100956D01*
X70292Y100983D01*
X70207Y101017D01*
X70166Y101021D01*
X70144Y101028D01*
X70112Y101027D01*
X70041Y101035D01*
X59908Y101035D01*
X59015Y101928D01*
X59015Y113192D01*
X59908Y114085D01*
X62992Y114085D01*
X63012Y114088D01*
X63031Y114086D01*
X63133Y114108D01*
X63235Y114124D01*
X63252Y114134D01*
X63272Y114138D01*
X63361Y114191D01*
X63452Y114240D01*
X63466Y114254D01*
X63483Y114264D01*
X63550Y114343D01*
X63622Y114418D01*
X63630Y114436D01*
X63643Y114451D01*
X63682Y114547D01*
X63725Y114641D01*
X63727Y114661D01*
X63735Y114679D01*
X63753Y114846D01*
X63753Y119057D01*
X65316Y120620D01*
X68970Y124274D01*
X69380Y124684D01*
X69422Y124742D01*
X69471Y124794D01*
X69493Y124841D01*
X69523Y124883D01*
X69544Y124952D01*
X69575Y125017D01*
X69580Y125069D01*
X69596Y125119D01*
X69594Y125190D01*
X69602Y125261D01*
X69591Y125312D01*
X69589Y125364D01*
X69565Y125432D01*
X69550Y125502D01*
X69523Y125547D01*
X69505Y125595D01*
X69460Y125651D01*
X69423Y125713D01*
X69384Y125747D01*
X69351Y125787D01*
X69291Y125826D01*
X69236Y125873D01*
X69188Y125892D01*
X69144Y125920D01*
X69075Y125938D01*
X69008Y125965D01*
X68937Y125973D01*
X68906Y125981D01*
X68882Y125979D01*
X68842Y125983D01*
X67303Y125983D01*
X67212Y125969D01*
X67122Y125961D01*
X67092Y125949D01*
X67060Y125944D01*
X66979Y125901D01*
X66895Y125865D01*
X66863Y125839D01*
X66842Y125828D01*
X66820Y125805D01*
X66764Y125760D01*
X53818Y112814D01*
X53765Y112740D01*
X53705Y112670D01*
X53693Y112640D01*
X53674Y112614D01*
X53647Y112527D01*
X53613Y112442D01*
X53609Y112401D01*
X53602Y112379D01*
X53603Y112347D01*
X53595Y112275D01*
X53595Y86331D01*
X53609Y86241D01*
X53617Y86150D01*
X53629Y86120D01*
X53634Y86088D01*
X53677Y86007D01*
X53713Y85923D01*
X53739Y85891D01*
X53750Y85871D01*
X53773Y85848D01*
X53818Y85792D01*
X53954Y85656D01*
X54028Y85603D01*
X54098Y85543D01*
X54128Y85531D01*
X54154Y85512D01*
X54241Y85486D01*
X54326Y85451D01*
X54367Y85447D01*
X54389Y85440D01*
X54421Y85441D01*
X54493Y85433D01*
X57238Y85433D01*
X57258Y85436D01*
X57277Y85434D01*
X57379Y85456D01*
X57481Y85473D01*
X57498Y85482D01*
X57518Y85486D01*
X57607Y85539D01*
X57698Y85588D01*
X57712Y85602D01*
X57729Y85612D01*
X57796Y85691D01*
X57868Y85766D01*
X57876Y85784D01*
X57889Y85799D01*
X57928Y85895D01*
X57971Y85989D01*
X57973Y86009D01*
X57981Y86027D01*
X57999Y86194D01*
X57999Y89037D01*
X64517Y89037D01*
X64517Y83019D01*
X61302Y83019D01*
X61282Y83016D01*
X61263Y83018D01*
X61161Y82996D01*
X61059Y82980D01*
X61042Y82970D01*
X61022Y82966D01*
X60933Y82913D01*
X60842Y82864D01*
X60828Y82850D01*
X60811Y82840D01*
X60744Y82761D01*
X60672Y82686D01*
X60664Y82668D01*
X60651Y82653D01*
X60612Y82557D01*
X60569Y82463D01*
X60567Y82443D01*
X60559Y82425D01*
X60541Y82258D01*
X60541Y79672D01*
X60544Y79652D01*
X60542Y79633D01*
X60564Y79531D01*
X60580Y79429D01*
X60590Y79412D01*
X60594Y79392D01*
X60647Y79303D01*
X60696Y79212D01*
X60710Y79198D01*
X60720Y79181D01*
X60799Y79114D01*
X60874Y79042D01*
X60892Y79034D01*
X60907Y79021D01*
X61003Y78982D01*
X61097Y78939D01*
X61117Y78937D01*
X61135Y78929D01*
X61302Y78911D01*
X64009Y78911D01*
X66820Y76100D01*
X66820Y72870D01*
X66823Y72850D01*
X66821Y72831D01*
X66843Y72729D01*
X66860Y72627D01*
X66869Y72610D01*
X66873Y72590D01*
X66926Y72501D01*
X66975Y72410D01*
X66989Y72396D01*
X66999Y72379D01*
X67078Y72312D01*
X67153Y72240D01*
X67171Y72232D01*
X67186Y72219D01*
X67282Y72180D01*
X67376Y72137D01*
X67396Y72135D01*
X67414Y72127D01*
X67581Y72109D01*
X69298Y72109D01*
X72109Y69298D01*
X72109Y65322D01*
X69298Y62511D01*
X65322Y62511D01*
X63033Y64800D01*
X62959Y64853D01*
X62890Y64913D01*
X62860Y64925D01*
X62834Y64944D01*
X62747Y64971D01*
X62662Y65005D01*
X62621Y65009D01*
X62598Y65016D01*
X62566Y65015D01*
X62495Y65023D01*
X54933Y65023D01*
X42163Y77793D01*
X42163Y119057D01*
X63943Y140837D01*
X77435Y140837D01*
X77506Y140848D01*
X77578Y140850D01*
X77627Y140868D01*
X77678Y140876D01*
X77741Y140910D01*
X77809Y140935D01*
X77849Y140967D01*
X77895Y140992D01*
X77945Y141044D01*
X78001Y141088D01*
X78029Y141132D01*
X78065Y141170D01*
X78095Y141235D01*
X78134Y141295D01*
X78146Y141346D01*
X78168Y141393D01*
X78176Y141464D01*
X78194Y141534D01*
X78190Y141586D01*
X78195Y141637D01*
X78180Y141708D01*
X78175Y141779D01*
X78154Y141827D01*
X78143Y141878D01*
X78106Y141939D01*
X78078Y142005D01*
X78034Y142061D01*
X78017Y142089D01*
X77999Y142104D01*
X77973Y142136D01*
X48552Y171558D01*
X46989Y173120D01*
X46989Y291254D01*
X60002Y304267D01*
X62588Y304267D01*
X62608Y304270D01*
X62627Y304268D01*
X62729Y304290D01*
X62831Y304306D01*
X62848Y304316D01*
X62868Y304320D01*
X62957Y304373D01*
X63048Y304422D01*
X63062Y304436D01*
X63079Y304446D01*
X63146Y304525D01*
X63218Y304600D01*
X63226Y304618D01*
X63239Y304633D01*
X63278Y304729D01*
X63321Y304823D01*
X63323Y304843D01*
X63331Y304861D01*
X63349Y305028D01*
X63349Y309216D01*
X63365Y309278D01*
X63395Y309377D01*
X63395Y309397D01*
X63400Y309416D01*
X63392Y309519D01*
X63389Y309622D01*
X63382Y309641D01*
X63381Y309661D01*
X63349Y309735D01*
X63349Y314216D01*
X63365Y314278D01*
X63395Y314377D01*
X63395Y314397D01*
X63400Y314416D01*
X63392Y314519D01*
X63389Y314622D01*
X63382Y314641D01*
X63381Y314661D01*
X63349Y314735D01*
X63349Y319216D01*
X63365Y319278D01*
X63395Y319377D01*
X63395Y319397D01*
X63400Y319416D01*
X63392Y319519D01*
X63389Y319622D01*
X63382Y319641D01*
X63381Y319661D01*
X63349Y319735D01*
X63349Y324216D01*
X63365Y324278D01*
X63395Y324377D01*
X63395Y324397D01*
X63400Y324416D01*
X63392Y324519D01*
X63389Y324622D01*
X63382Y324641D01*
X63381Y324661D01*
X63349Y324735D01*
X63349Y329216D01*
X63365Y329278D01*
X63395Y329377D01*
X63395Y329397D01*
X63400Y329416D01*
X63392Y329519D01*
X63389Y329622D01*
X63382Y329641D01*
X63381Y329661D01*
X63349Y329735D01*
X63349Y334216D01*
X63365Y334278D01*
X63395Y334377D01*
X63395Y334397D01*
X63400Y334416D01*
X63392Y334519D01*
X63389Y334622D01*
X63382Y334641D01*
X63381Y334661D01*
X63349Y334735D01*
X63349Y339216D01*
X63365Y339278D01*
X63395Y339377D01*
X63395Y339397D01*
X63400Y339416D01*
X63392Y339519D01*
X63389Y339622D01*
X63382Y339641D01*
X63381Y339661D01*
X63349Y339735D01*
X63349Y344112D01*
X64242Y345005D01*
X81870Y345005D01*
X82778Y344096D01*
X82785Y344016D01*
X82797Y343986D01*
X82802Y343954D01*
X82845Y343874D01*
X82881Y343790D01*
X82907Y343758D01*
X82918Y343737D01*
X82941Y343715D01*
X82986Y343659D01*
X185837Y240808D01*
X185837Y214258D01*
X185851Y214168D01*
X185859Y214077D01*
X185871Y214048D01*
X185876Y214016D01*
X185919Y213935D01*
X185955Y213851D01*
X185981Y213819D01*
X185992Y213798D01*
X186015Y213776D01*
X186060Y213720D01*
X186891Y212889D01*
X186891Y193743D01*
X185998Y192850D01*
X161598Y192850D01*
X161578Y192847D01*
X161559Y192849D01*
X161457Y192827D01*
X161355Y192810D01*
X161338Y192801D01*
X161318Y192796D01*
X161229Y192743D01*
X161138Y192695D01*
X161124Y192681D01*
X161107Y192670D01*
X161040Y192592D01*
X160968Y192517D01*
X160960Y192499D01*
X160947Y192483D01*
X160908Y192387D01*
X160865Y192294D01*
X160863Y192274D01*
X160855Y192255D01*
X160837Y192089D01*
X160837Y189710D01*
X160840Y189690D01*
X160838Y189671D01*
X160860Y189569D01*
X160876Y189467D01*
X160886Y189450D01*
X160890Y189430D01*
X160943Y189341D01*
X160992Y189250D01*
X161006Y189236D01*
X161016Y189219D01*
X161095Y189152D01*
X161170Y189080D01*
X161188Y189072D01*
X161203Y189059D01*
X161299Y189020D01*
X161393Y188977D01*
X161413Y188975D01*
X161431Y188967D01*
X161598Y188949D01*
X165818Y188949D01*
X168372Y186395D01*
X168388Y186383D01*
X168400Y186368D01*
X168488Y186311D01*
X168571Y186251D01*
X168590Y186245D01*
X168607Y186235D01*
X168708Y186209D01*
X168807Y186179D01*
X168826Y186179D01*
X168846Y186174D01*
X168949Y186182D01*
X169052Y186185D01*
X169071Y186192D01*
X169091Y186194D01*
X169186Y186234D01*
X169283Y186270D01*
X169299Y186282D01*
X169317Y186290D01*
X169448Y186395D01*
X172002Y188949D01*
X175978Y188949D01*
X178789Y186138D01*
X178789Y182162D01*
X175978Y179351D01*
X172741Y179351D01*
X172650Y179337D01*
X172560Y179329D01*
X172530Y179317D01*
X172498Y179312D01*
X172417Y179269D01*
X172333Y179233D01*
X172301Y179207D01*
X172280Y179196D01*
X172258Y179173D01*
X172202Y179128D01*
X124654Y131580D01*
X124601Y131506D01*
X124542Y131437D01*
X124530Y131407D01*
X124511Y131381D01*
X124484Y131294D01*
X124450Y131209D01*
X124445Y131168D01*
X124438Y131146D01*
X124439Y131113D01*
X124431Y131042D01*
X124431Y108221D01*
X124443Y108150D01*
X124445Y108078D01*
X124463Y108029D01*
X124471Y107978D01*
X124505Y107915D01*
X124529Y107847D01*
X124562Y107807D01*
X124586Y107761D01*
X124638Y107712D01*
X124683Y107655D01*
X124727Y107627D01*
X124765Y107591D01*
X124830Y107561D01*
X124890Y107522D01*
X124940Y107510D01*
X124988Y107488D01*
X125059Y107480D01*
X125128Y107462D01*
X125180Y107466D01*
X125232Y107461D01*
X125302Y107476D01*
X125374Y107482D01*
X125422Y107502D01*
X125472Y107513D01*
X125534Y107550D01*
X125600Y107578D01*
X125656Y107623D01*
X125684Y107639D01*
X125699Y107657D01*
X125714Y107669D01*
X129692Y107669D01*
X129964Y107397D01*
X130022Y107355D01*
X130074Y107306D01*
X130121Y107284D01*
X130163Y107254D01*
X130232Y107233D01*
X130297Y107202D01*
X130349Y107197D01*
X130399Y107181D01*
X130470Y107183D01*
X130541Y107175D01*
X130592Y107186D01*
X130644Y107188D01*
X130712Y107212D01*
X130782Y107228D01*
X130827Y107254D01*
X130875Y107272D01*
X130931Y107317D01*
X130993Y107354D01*
X131027Y107393D01*
X131067Y107426D01*
X131106Y107486D01*
X131153Y107541D01*
X131172Y107589D01*
X131200Y107633D01*
X131218Y107702D01*
X131245Y107769D01*
X131253Y107840D01*
X131261Y107871D01*
X131259Y107895D01*
X131263Y107936D01*
X131263Y135767D01*
X173043Y177547D01*
X179335Y177547D01*
X179425Y177561D01*
X179516Y177569D01*
X179546Y177581D01*
X179578Y177586D01*
X179658Y177629D01*
X179742Y177665D01*
X179774Y177691D01*
X179795Y177702D01*
X179817Y177725D01*
X179873Y177770D01*
X182162Y180059D01*
X186138Y180059D01*
X188949Y177248D01*
X188949Y173272D01*
X186137Y170460D01*
X186072Y170450D01*
X186001Y170448D01*
X185952Y170430D01*
X185900Y170422D01*
X185837Y170388D01*
X185770Y170363D01*
X185729Y170331D01*
X185683Y170306D01*
X185633Y170254D01*
X185577Y170210D01*
X185549Y170166D01*
X185513Y170128D01*
X185483Y170063D01*
X185444Y170003D01*
X185432Y169952D01*
X185410Y169905D01*
X185402Y169834D01*
X185384Y169764D01*
X185388Y169712D01*
X185383Y169661D01*
X185398Y169590D01*
X185404Y169519D01*
X185424Y169471D01*
X185435Y169420D01*
X185472Y169359D01*
X185500Y169293D01*
X185545Y169237D01*
X185561Y169209D01*
X185579Y169194D01*
X185605Y169162D01*
X186409Y168358D01*
X186409Y164382D01*
X183855Y161828D01*
X183843Y161812D01*
X183828Y161800D01*
X183771Y161712D01*
X183711Y161629D01*
X183705Y161610D01*
X183695Y161593D01*
X183669Y161492D01*
X183639Y161393D01*
X183639Y161374D01*
X183634Y161354D01*
X183642Y161251D01*
X183645Y161148D01*
X183652Y161129D01*
X183654Y161109D01*
X183694Y161014D01*
X183730Y160917D01*
X183742Y160901D01*
X183750Y160883D01*
X183855Y160752D01*
X186409Y158198D01*
X186409Y154376D01*
X186412Y154356D01*
X186410Y154337D01*
X186432Y154235D01*
X186448Y154133D01*
X186458Y154116D01*
X186462Y154096D01*
X186515Y154007D01*
X186564Y153916D01*
X186578Y153902D01*
X186588Y153885D01*
X186667Y153818D01*
X186742Y153746D01*
X186760Y153738D01*
X186775Y153725D01*
X186871Y153686D01*
X186965Y153643D01*
X186985Y153641D01*
X187003Y153633D01*
X187170Y153615D01*
X187619Y153615D01*
X190174Y151060D01*
X190248Y151007D01*
X190318Y150947D01*
X190348Y150935D01*
X190374Y150916D01*
X190461Y150889D01*
X190546Y150855D01*
X190587Y150851D01*
X190609Y150844D01*
X190641Y150845D01*
X190713Y150837D01*
X192089Y150837D01*
X192108Y150840D01*
X192128Y150838D01*
X192229Y150860D01*
X192331Y150876D01*
X192349Y150886D01*
X192368Y150890D01*
X192457Y150943D01*
X192549Y150992D01*
X192562Y151006D01*
X192579Y151016D01*
X192647Y151095D01*
X192718Y151170D01*
X192726Y151188D01*
X192739Y151203D01*
X192778Y151299D01*
X192822Y151393D01*
X192824Y151413D01*
X192831Y151431D01*
X192850Y151598D01*
X192850Y185998D01*
X193743Y186891D01*
X200268Y186891D01*
X200288Y186894D01*
X200307Y186892D01*
X200409Y186914D01*
X200511Y186930D01*
X200528Y186940D01*
X200548Y186944D01*
X200637Y186997D01*
X200728Y187046D01*
X200742Y187060D01*
X200759Y187070D01*
X200826Y187149D01*
X200898Y187224D01*
X200906Y187242D01*
X200919Y187257D01*
X200958Y187353D01*
X201001Y187447D01*
X201003Y187467D01*
X201011Y187485D01*
X201029Y187652D01*
X201029Y310123D01*
X235173Y344267D01*
X259977Y344267D01*
X260067Y344281D01*
X260158Y344289D01*
X260188Y344301D01*
X260220Y344306D01*
X260301Y344349D01*
X260384Y344385D01*
X260417Y344411D01*
X260437Y344422D01*
X260459Y344445D01*
X260515Y344490D01*
X261030Y345005D01*
X278658Y345005D01*
X279551Y344112D01*
X279551Y339744D01*
X279535Y339682D01*
X279505Y339583D01*
X279505Y339563D01*
X279500Y339544D01*
X279508Y339441D01*
X279511Y339338D01*
X279518Y339319D01*
X279519Y339299D01*
X279551Y339225D01*
X279551Y334744D01*
X279535Y334682D01*
X279505Y334583D01*
X279505Y334563D01*
X279500Y334544D01*
X279508Y334441D01*
X279511Y334338D01*
X279518Y334319D01*
X279519Y334299D01*
X279551Y334225D01*
X279551Y329744D01*
X279535Y329682D01*
X279505Y329583D01*
X279505Y329563D01*
X279500Y329544D01*
X279508Y329441D01*
X279511Y329338D01*
X279518Y329319D01*
X279519Y329299D01*
X279551Y329225D01*
X279551Y324744D01*
X279535Y324682D01*
X279505Y324583D01*
X279505Y324563D01*
X279500Y324544D01*
X279508Y324441D01*
X279511Y324338D01*
X279518Y324319D01*
X279519Y324299D01*
X279551Y324225D01*
X279551Y319744D01*
X279535Y319682D01*
X279505Y319583D01*
X279505Y319563D01*
X279500Y319544D01*
X279508Y319441D01*
X279511Y319338D01*
X279518Y319319D01*
X279519Y319299D01*
X279551Y319225D01*
X279551Y314744D01*
X279535Y314682D01*
X279505Y314583D01*
X279505Y314563D01*
X279500Y314544D01*
X279508Y314441D01*
X279511Y314338D01*
X279518Y314319D01*
X279519Y314299D01*
X279551Y314225D01*
X279551Y309744D01*
X279535Y309682D01*
X279505Y309583D01*
X279505Y309563D01*
X279500Y309544D01*
X279508Y309441D01*
X279511Y309338D01*
X279518Y309319D01*
X279519Y309299D01*
X279551Y309225D01*
X279551Y304744D01*
X279535Y304682D01*
X279505Y304583D01*
X279505Y304563D01*
X279500Y304544D01*
X279508Y304441D01*
X279511Y304338D01*
X279518Y304319D01*
X279519Y304299D01*
X279551Y304225D01*
X279551Y299744D01*
X279535Y299682D01*
X279505Y299583D01*
X279505Y299563D01*
X279500Y299544D01*
X279508Y299441D01*
X279511Y299338D01*
X279518Y299319D01*
X279519Y299299D01*
X279551Y299225D01*
X279551Y294744D01*
X279535Y294682D01*
X279505Y294583D01*
X279505Y294563D01*
X279500Y294544D01*
X279508Y294441D01*
X279511Y294338D01*
X279518Y294319D01*
X279519Y294299D01*
X279551Y294225D01*
X279551Y290864D01*
X279565Y290774D01*
X279573Y290683D01*
X279585Y290653D01*
X279590Y290621D01*
X279633Y290540D01*
X279669Y290456D01*
X279695Y290424D01*
X279706Y290404D01*
X279729Y290381D01*
X279774Y290325D01*
X280059Y290040D01*
X280394Y289461D01*
X280567Y288814D01*
X280567Y287741D01*
X269844Y287741D01*
X259121Y287741D01*
X259121Y288915D01*
X259120Y288924D01*
X259125Y288971D01*
X259124Y288975D01*
X259124Y288979D01*
X259098Y289095D01*
X259073Y289212D01*
X259071Y289215D01*
X259070Y289219D01*
X259008Y289320D01*
X258946Y289423D01*
X258944Y289425D01*
X258942Y289428D01*
X258851Y289505D01*
X258760Y289583D01*
X258756Y289584D01*
X258753Y289587D01*
X258644Y289629D01*
X258531Y289675D01*
X258527Y289675D01*
X258524Y289676D01*
X258512Y289677D01*
X258365Y289693D01*
X236093Y289693D01*
X236002Y289679D01*
X235912Y289671D01*
X235882Y289659D01*
X235850Y289654D01*
X235769Y289611D01*
X235685Y289575D01*
X235653Y289549D01*
X235632Y289538D01*
X235610Y289515D01*
X235554Y289470D01*
X230602Y284518D01*
X230549Y284444D01*
X230489Y284374D01*
X230477Y284344D01*
X230458Y284318D01*
X230431Y284231D01*
X230397Y284146D01*
X230393Y284105D01*
X230386Y284083D01*
X230387Y284051D01*
X230379Y283979D01*
X230379Y279900D01*
X230390Y279830D01*
X230392Y279758D01*
X230410Y279709D01*
X230418Y279658D01*
X230452Y279594D01*
X230477Y279527D01*
X230509Y279486D01*
X230534Y279440D01*
X230585Y279391D01*
X230630Y279335D01*
X230674Y279307D01*
X230712Y279271D01*
X230777Y279241D01*
X230837Y279202D01*
X230888Y279189D01*
X230935Y279167D01*
X231006Y279159D01*
X231076Y279142D01*
X231128Y279146D01*
X231179Y279140D01*
X231250Y279155D01*
X231321Y279161D01*
X231369Y279181D01*
X231420Y279192D01*
X231481Y279229D01*
X231547Y279257D01*
X231559Y279267D01*
X259376Y279267D01*
X259396Y279270D01*
X259415Y279268D01*
X259517Y279290D01*
X259619Y279306D01*
X259636Y279316D01*
X259656Y279320D01*
X259745Y279373D01*
X259836Y279422D01*
X259850Y279436D01*
X259867Y279446D01*
X259934Y279525D01*
X260006Y279600D01*
X260014Y279618D01*
X260027Y279633D01*
X260066Y279729D01*
X260109Y279823D01*
X260111Y279843D01*
X260119Y279861D01*
X260137Y280028D01*
X260137Y283096D01*
X260123Y283186D01*
X260115Y283277D01*
X260103Y283307D01*
X260098Y283339D01*
X260055Y283420D01*
X260019Y283504D01*
X259993Y283536D01*
X259982Y283556D01*
X259959Y283579D01*
X259914Y283635D01*
X259629Y283920D01*
X259294Y284499D01*
X259121Y285146D01*
X259121Y286219D01*
X269844Y286219D01*
X280567Y286219D01*
X280567Y285145D01*
X280394Y284499D01*
X280059Y283920D01*
X279774Y283635D01*
X279721Y283561D01*
X279661Y283491D01*
X279649Y283461D01*
X279630Y283435D01*
X279603Y283348D01*
X279569Y283263D01*
X279565Y283222D01*
X279558Y283200D01*
X279559Y283168D01*
X279551Y283096D01*
X279551Y279744D01*
X279535Y279682D01*
X279505Y279583D01*
X279505Y279563D01*
X279500Y279544D01*
X279508Y279441D01*
X279511Y279338D01*
X279518Y279319D01*
X279519Y279299D01*
X279551Y279225D01*
X279551Y274744D01*
X279535Y274682D01*
X279505Y274583D01*
X279505Y274563D01*
X279500Y274544D01*
X279508Y274441D01*
X279511Y274338D01*
X279518Y274319D01*
X279519Y274299D01*
X279551Y274225D01*
X279551Y269744D01*
X279535Y269682D01*
X279505Y269583D01*
X279505Y269563D01*
X279500Y269544D01*
X279508Y269441D01*
X279511Y269338D01*
X279518Y269319D01*
X279519Y269299D01*
X279551Y269225D01*
X279551Y264744D01*
X279535Y264682D01*
X279505Y264583D01*
X279505Y264563D01*
X279500Y264544D01*
X279508Y264441D01*
X279511Y264338D01*
X279518Y264319D01*
X279519Y264299D01*
X279551Y264225D01*
X279551Y259744D01*
X279535Y259682D01*
X279505Y259583D01*
X279505Y259563D01*
X279500Y259544D01*
X279508Y259441D01*
X279511Y259338D01*
X279518Y259319D01*
X279519Y259299D01*
X279551Y259225D01*
X279551Y254744D01*
X279535Y254682D01*
X279505Y254583D01*
X279505Y254563D01*
X279500Y254544D01*
X279508Y254441D01*
X279511Y254338D01*
X279518Y254319D01*
X279519Y254299D01*
X279551Y254225D01*
X279551Y249744D01*
X279535Y249682D01*
X279505Y249584D01*
X279505Y249564D01*
X279500Y249544D01*
X279508Y249441D01*
X279511Y249338D01*
X279518Y249319D01*
X279519Y249299D01*
X279551Y249225D01*
X279551Y244744D01*
X279535Y244682D01*
X279505Y244583D01*
X279505Y244563D01*
X279500Y244544D01*
X279508Y244441D01*
X279511Y244338D01*
X279518Y244319D01*
X279519Y244299D01*
X279551Y244225D01*
X279551Y240028D01*
X279552Y240017D01*
X279552Y240011D01*
X279553Y240004D01*
X279552Y239989D01*
X279574Y239887D01*
X279590Y239785D01*
X279600Y239768D01*
X279604Y239748D01*
X279657Y239659D01*
X279706Y239568D01*
X279720Y239554D01*
X279730Y239537D01*
X279809Y239470D01*
X279884Y239398D01*
X279902Y239390D01*
X279917Y239377D01*
X280013Y239338D01*
X280107Y239295D01*
X280127Y239293D01*
X280145Y239285D01*
X280312Y239267D01*
X287354Y239267D01*
X287374Y239270D01*
X287393Y239268D01*
X287495Y239290D01*
X287597Y239306D01*
X287614Y239316D01*
X287634Y239320D01*
X287723Y239373D01*
X287814Y239422D01*
X287828Y239436D01*
X287845Y239446D01*
X287912Y239525D01*
X287984Y239600D01*
X287992Y239618D01*
X288005Y239633D01*
X288044Y239729D01*
X288087Y239823D01*
X288089Y239843D01*
X288097Y239861D01*
X288115Y240028D01*
X288115Y249092D01*
X289008Y249985D01*
X300272Y249985D01*
X301165Y249092D01*
X301165Y236828D01*
X300272Y235935D01*
X297688Y235935D01*
X297668Y235932D01*
X297649Y235934D01*
X297547Y235912D01*
X297445Y235896D01*
X297428Y235886D01*
X297408Y235882D01*
X297319Y235829D01*
X297228Y235780D01*
X297214Y235766D01*
X297197Y235756D01*
X297130Y235677D01*
X297058Y235602D01*
X297050Y235584D01*
X297037Y235569D01*
X296998Y235473D01*
X296955Y235379D01*
X296953Y235359D01*
X296945Y235341D01*
X296927Y235174D01*
X296927Y233673D01*
X296941Y233582D01*
X296949Y233492D01*
X296961Y233462D01*
X296966Y233430D01*
X297009Y233349D01*
X297045Y233265D01*
X297071Y233233D01*
X297082Y233212D01*
X297105Y233190D01*
X297150Y233134D01*
X300472Y229812D01*
X300546Y229759D01*
X300616Y229699D01*
X300646Y229687D01*
X300672Y229668D01*
X300759Y229641D01*
X300844Y229607D01*
X300885Y229603D01*
X300907Y229596D01*
X300939Y229597D01*
X301011Y229589D01*
X304248Y229589D01*
X307059Y226778D01*
X307059Y222802D01*
X304248Y219991D01*
X300272Y219991D01*
X297461Y222802D01*
X297461Y226039D01*
X297447Y226130D01*
X297439Y226220D01*
X297427Y226250D01*
X297422Y226282D01*
X297379Y226363D01*
X297343Y226447D01*
X297317Y226479D01*
X297306Y226500D01*
X297283Y226522D01*
X297238Y226578D01*
X292353Y231463D01*
X292353Y235174D01*
X292350Y235194D01*
X292352Y235213D01*
X292330Y235315D01*
X292314Y235417D01*
X292304Y235434D01*
X292300Y235454D01*
X292247Y235543D01*
X292198Y235634D01*
X292184Y235648D01*
X292174Y235665D01*
X292095Y235732D01*
X292020Y235804D01*
X292002Y235812D01*
X291987Y235825D01*
X291891Y235864D01*
X291797Y235907D01*
X291777Y235909D01*
X291759Y235917D01*
X291592Y235935D01*
X291165Y235935D01*
X291074Y235921D01*
X290984Y235913D01*
X290954Y235901D01*
X290922Y235896D01*
X290841Y235853D01*
X290757Y235817D01*
X290725Y235791D01*
X290704Y235780D01*
X290682Y235757D01*
X290626Y235712D01*
X289607Y234693D01*
X280312Y234693D01*
X280292Y234690D01*
X280273Y234692D01*
X280171Y234670D01*
X280069Y234654D01*
X280052Y234644D01*
X280032Y234640D01*
X279943Y234587D01*
X279852Y234538D01*
X279838Y234524D01*
X279821Y234514D01*
X279754Y234435D01*
X279682Y234360D01*
X279674Y234342D01*
X279661Y234327D01*
X279622Y234231D01*
X279579Y234137D01*
X279577Y234117D01*
X279569Y234099D01*
X279551Y233932D01*
X279551Y229744D01*
X279535Y229682D01*
X279505Y229583D01*
X279505Y229563D01*
X279500Y229544D01*
X279508Y229441D01*
X279511Y229338D01*
X279518Y229319D01*
X279519Y229299D01*
X279551Y229225D01*
X279551Y224848D01*
X278658Y223955D01*
X261030Y223955D01*
X260515Y224470D01*
X260441Y224523D01*
X260372Y224583D01*
X260342Y224595D01*
X260316Y224614D01*
X260229Y224641D01*
X260144Y224675D01*
X260103Y224679D01*
X260081Y224686D01*
X260048Y224685D01*
X259977Y224693D01*
X253643Y224693D01*
X253552Y224679D01*
X253462Y224671D01*
X253432Y224659D01*
X253400Y224654D01*
X253319Y224611D01*
X253235Y224575D01*
X253203Y224549D01*
X253182Y224538D01*
X253160Y224515D01*
X253104Y224470D01*
X248890Y220256D01*
X248837Y220182D01*
X248777Y220112D01*
X248765Y220082D01*
X248746Y220056D01*
X248719Y219969D01*
X248685Y219884D01*
X248681Y219843D01*
X248674Y219821D01*
X248675Y219789D01*
X248667Y219717D01*
X248667Y157099D01*
X241778Y150210D01*
X241725Y150136D01*
X241665Y150066D01*
X241653Y150036D01*
X241634Y150010D01*
X241607Y149923D01*
X241573Y149838D01*
X241569Y149797D01*
X241562Y149775D01*
X241563Y149743D01*
X241555Y149671D01*
X241555Y139428D01*
X241569Y139337D01*
X241577Y139247D01*
X241589Y139217D01*
X241594Y139185D01*
X241637Y139104D01*
X241673Y139020D01*
X241699Y138988D01*
X241710Y138967D01*
X241733Y138945D01*
X241778Y138889D01*
X244067Y136600D01*
X244067Y134904D01*
X244078Y134833D01*
X244080Y134761D01*
X244098Y134712D01*
X244106Y134661D01*
X244140Y134598D01*
X244165Y134530D01*
X244197Y134490D01*
X244222Y134444D01*
X244274Y134394D01*
X244318Y134338D01*
X244362Y134310D01*
X244400Y134274D01*
X244465Y134244D01*
X244525Y134205D01*
X244576Y134193D01*
X244623Y134171D01*
X244694Y134163D01*
X244764Y134145D01*
X244816Y134149D01*
X244867Y134144D01*
X244938Y134159D01*
X245009Y134164D01*
X245057Y134185D01*
X245108Y134196D01*
X245169Y134233D01*
X245235Y134261D01*
X245291Y134306D01*
X245319Y134322D01*
X245334Y134340D01*
X245366Y134366D01*
X245875Y134875D01*
X255013Y134875D01*
X255906Y133982D01*
X255906Y123828D01*
X255013Y122935D01*
X253492Y122935D01*
X253472Y122932D01*
X253453Y122934D01*
X253351Y122912D01*
X253249Y122896D01*
X253232Y122886D01*
X253212Y122882D01*
X253123Y122829D01*
X253032Y122780D01*
X253018Y122766D01*
X253001Y122756D01*
X252934Y122677D01*
X252862Y122602D01*
X252854Y122584D01*
X252841Y122569D01*
X252802Y122473D01*
X252759Y122379D01*
X252757Y122359D01*
X252749Y122341D01*
X252731Y122174D01*
X252731Y115070D01*
X252742Y114999D01*
X252744Y114927D01*
X252762Y114878D01*
X252770Y114827D01*
X252804Y114764D01*
X252829Y114696D01*
X252861Y114656D01*
X252886Y114610D01*
X252937Y114560D01*
X252982Y114504D01*
X253026Y114476D01*
X253064Y114440D01*
X253129Y114410D01*
X253189Y114371D01*
X253240Y114359D01*
X253287Y114337D01*
X253358Y114329D01*
X253428Y114311D01*
X253480Y114315D01*
X253531Y114310D01*
X253602Y114325D01*
X253673Y114330D01*
X253721Y114351D01*
X253772Y114362D01*
X253833Y114399D01*
X253899Y114427D01*
X253955Y114472D01*
X253983Y114488D01*
X253998Y114506D01*
X254030Y114532D01*
X254218Y114720D01*
X257048Y114720D01*
X257068Y114723D01*
X257087Y114721D01*
X257189Y114743D01*
X257291Y114759D01*
X257308Y114769D01*
X257328Y114773D01*
X257417Y114826D01*
X257508Y114875D01*
X257522Y114889D01*
X257539Y114899D01*
X257606Y114978D01*
X257678Y115053D01*
X257686Y115071D01*
X257699Y115086D01*
X257738Y115182D01*
X257781Y115276D01*
X257783Y115296D01*
X257791Y115314D01*
X257809Y115481D01*
X257809Y142494D01*
X257806Y142514D01*
X257808Y142533D01*
X257786Y142635D01*
X257770Y142737D01*
X257760Y142754D01*
X257756Y142774D01*
X257703Y142863D01*
X257654Y142954D01*
X257640Y142968D01*
X257630Y142985D01*
X257551Y143052D01*
X257476Y143124D01*
X257458Y143132D01*
X257443Y143145D01*
X257347Y143184D01*
X257253Y143227D01*
X257233Y143229D01*
X257215Y143237D01*
X257048Y143255D01*
X255527Y143255D01*
X254634Y144148D01*
X254634Y154302D01*
X255527Y155195D01*
X264665Y155195D01*
X265558Y154302D01*
X265558Y144148D01*
X264665Y143255D01*
X263144Y143255D01*
X263124Y143252D01*
X263105Y143254D01*
X263003Y143232D01*
X262901Y143216D01*
X262884Y143206D01*
X262864Y143202D01*
X262775Y143149D01*
X262684Y143100D01*
X262670Y143086D01*
X262653Y143076D01*
X262586Y142997D01*
X262514Y142922D01*
X262506Y142904D01*
X262493Y142889D01*
X262454Y142793D01*
X262411Y142699D01*
X262409Y142679D01*
X262401Y142661D01*
X262383Y142494D01*
X262383Y115481D01*
X262386Y115461D01*
X262384Y115442D01*
X262406Y115340D01*
X262422Y115238D01*
X262432Y115221D01*
X262436Y115201D01*
X262489Y115112D01*
X262538Y115021D01*
X262552Y115007D01*
X262562Y114990D01*
X262641Y114923D01*
X262716Y114851D01*
X262734Y114843D01*
X262749Y114830D01*
X262845Y114791D01*
X262939Y114748D01*
X262959Y114746D01*
X262977Y114738D01*
X263144Y114720D01*
X266482Y114720D01*
X267375Y113827D01*
X267375Y102563D01*
X266482Y101670D01*
X260642Y101670D01*
X260552Y101656D01*
X260461Y101648D01*
X260431Y101636D01*
X260399Y101631D01*
X260318Y101588D01*
X260234Y101552D01*
X260202Y101526D01*
X260182Y101515D01*
X260159Y101492D01*
X260103Y101447D01*
X257675Y99019D01*
X257633Y98961D01*
X257584Y98909D01*
X257562Y98862D01*
X257532Y98820D01*
X257511Y98751D01*
X257480Y98686D01*
X257475Y98634D01*
X257459Y98584D01*
X257461Y98513D01*
X257453Y98442D01*
X257464Y98391D01*
X257466Y98339D01*
X257490Y98271D01*
X257506Y98201D01*
X257532Y98156D01*
X257550Y98108D01*
X257595Y98052D01*
X257632Y97990D01*
X257671Y97956D01*
X257704Y97916D01*
X257764Y97877D01*
X257819Y97830D01*
X257867Y97811D01*
X257911Y97783D01*
X257980Y97765D01*
X258047Y97738D01*
X258118Y97730D01*
X258149Y97722D01*
X258173Y97724D01*
X258214Y97720D01*
X266482Y97720D01*
X267375Y96827D01*
X267375Y96520D01*
X267378Y96500D01*
X267376Y96481D01*
X267398Y96379D01*
X267414Y96277D01*
X267424Y96260D01*
X267428Y96240D01*
X267481Y96151D01*
X267530Y96060D01*
X267544Y96046D01*
X267554Y96029D01*
X267633Y95962D01*
X267708Y95890D01*
X267726Y95882D01*
X267741Y95869D01*
X267837Y95830D01*
X267931Y95787D01*
X267951Y95785D01*
X267969Y95777D01*
X268136Y95759D01*
X271863Y95759D01*
X274674Y92948D01*
X274674Y88972D01*
X271863Y86161D01*
X268136Y86161D01*
X268116Y86158D01*
X268097Y86160D01*
X267995Y86138D01*
X267893Y86122D01*
X267876Y86112D01*
X267856Y86108D01*
X267767Y86055D01*
X267676Y86006D01*
X267662Y85992D01*
X267645Y85982D01*
X267578Y85903D01*
X267506Y85828D01*
X267498Y85810D01*
X267485Y85795D01*
X267446Y85699D01*
X267403Y85605D01*
X267401Y85590D01*
X266482Y84670D01*
X254218Y84670D01*
X254150Y84739D01*
X254133Y84751D01*
X254121Y84766D01*
X254034Y84822D01*
X253950Y84883D01*
X253931Y84889D01*
X253914Y84899D01*
X253814Y84925D01*
X253715Y84955D01*
X253695Y84954D01*
X253676Y84959D01*
X253573Y84951D01*
X253469Y84949D01*
X253450Y84942D01*
X253430Y84940D01*
X253335Y84900D01*
X253238Y84864D01*
X253222Y84852D01*
X253204Y84844D01*
X253073Y84739D01*
X251295Y82961D01*
X251253Y82903D01*
X251204Y82851D01*
X251182Y82804D01*
X251152Y82762D01*
X251131Y82693D01*
X251100Y82628D01*
X251095Y82576D01*
X251079Y82526D01*
X251081Y82455D01*
X251073Y82384D01*
X251084Y82333D01*
X251086Y82281D01*
X251110Y82213D01*
X251125Y82143D01*
X251152Y82098D01*
X251170Y82050D01*
X251215Y81994D01*
X251252Y81932D01*
X251291Y81898D01*
X251324Y81858D01*
X251384Y81819D01*
X251439Y81772D01*
X251487Y81753D01*
X251531Y81725D01*
X251600Y81707D01*
X251667Y81680D01*
X251738Y81672D01*
X251769Y81664D01*
X251793Y81666D01*
X251833Y81662D01*
X274962Y81662D01*
X275053Y81676D01*
X275143Y81684D01*
X275173Y81696D01*
X275205Y81701D01*
X275286Y81744D01*
X275370Y81780D01*
X275402Y81806D01*
X275423Y81817D01*
X275445Y81840D01*
X275501Y81885D01*
X276890Y83274D01*
X276943Y83348D01*
X277003Y83418D01*
X277015Y83448D01*
X277034Y83474D01*
X277061Y83561D01*
X277095Y83646D01*
X277099Y83687D01*
X277106Y83709D01*
X277105Y83741D01*
X277113Y83813D01*
X277113Y95172D01*
X278676Y96735D01*
X286122Y104181D01*
X286175Y104255D01*
X286235Y104325D01*
X286247Y104355D01*
X286266Y104381D01*
X286293Y104468D01*
X286327Y104553D01*
X286331Y104594D01*
X286338Y104616D01*
X286337Y104648D01*
X286345Y104719D01*
X286345Y110597D01*
X286334Y110667D01*
X286332Y110739D01*
X286314Y110788D01*
X286306Y110839D01*
X286272Y110903D01*
X286247Y110970D01*
X286215Y111011D01*
X286190Y111057D01*
X286139Y111106D01*
X286094Y111162D01*
X286050Y111190D01*
X286012Y111226D01*
X285947Y111256D01*
X285887Y111295D01*
X285836Y111308D01*
X285789Y111330D01*
X285718Y111338D01*
X285648Y111355D01*
X285596Y111351D01*
X285545Y111357D01*
X285474Y111342D01*
X285403Y111336D01*
X285355Y111316D01*
X285304Y111305D01*
X285243Y111268D01*
X285177Y111240D01*
X285121Y111195D01*
X285093Y111178D01*
X285078Y111161D01*
X285046Y111135D01*
X284919Y111008D01*
X284865Y110934D01*
X284806Y110864D01*
X284794Y110834D01*
X284775Y110808D01*
X284748Y110721D01*
X284714Y110636D01*
X284710Y110595D01*
X284703Y110573D01*
X284704Y110541D01*
X284696Y110469D01*
X284696Y107232D01*
X281885Y104421D01*
X277909Y104421D01*
X275098Y107232D01*
X275098Y111208D01*
X277909Y114019D01*
X280416Y114019D01*
X280436Y114022D01*
X280455Y114020D01*
X280557Y114042D01*
X280659Y114058D01*
X280676Y114068D01*
X280696Y114072D01*
X280785Y114125D01*
X280876Y114174D01*
X280890Y114188D01*
X280907Y114198D01*
X280974Y114277D01*
X281046Y114352D01*
X281054Y114370D01*
X281067Y114385D01*
X281106Y114481D01*
X281149Y114575D01*
X281151Y114595D01*
X281159Y114613D01*
X281177Y114780D01*
X281177Y122174D01*
X281174Y122194D01*
X281176Y122213D01*
X281154Y122315D01*
X281138Y122417D01*
X281128Y122434D01*
X281124Y122454D01*
X281071Y122543D01*
X281022Y122634D01*
X281008Y122648D01*
X280998Y122665D01*
X280919Y122732D01*
X280844Y122804D01*
X280826Y122812D01*
X280811Y122825D01*
X280715Y122864D01*
X280621Y122907D01*
X280601Y122909D01*
X280583Y122917D01*
X280416Y122935D01*
X278895Y122935D01*
X278002Y123828D01*
X278002Y133982D01*
X278895Y134875D01*
X288033Y134875D01*
X288926Y133982D01*
X288926Y123828D01*
X288033Y122935D01*
X286512Y122935D01*
X286492Y122932D01*
X286473Y122934D01*
X286371Y122912D01*
X286269Y122896D01*
X286252Y122886D01*
X286232Y122882D01*
X286143Y122829D01*
X286052Y122780D01*
X286038Y122766D01*
X286021Y122756D01*
X285954Y122677D01*
X285882Y122602D01*
X285874Y122584D01*
X285861Y122569D01*
X285822Y122473D01*
X285779Y122379D01*
X285777Y122359D01*
X285769Y122341D01*
X285751Y122174D01*
X285751Y115070D01*
X285762Y114999D01*
X285764Y114927D01*
X285782Y114878D01*
X285790Y114827D01*
X285824Y114764D01*
X285849Y114696D01*
X285881Y114656D01*
X285906Y114610D01*
X285957Y114560D01*
X286002Y114504D01*
X286046Y114476D01*
X286084Y114440D01*
X286149Y114410D01*
X286209Y114371D01*
X286260Y114359D01*
X286307Y114337D01*
X286378Y114329D01*
X286448Y114311D01*
X286500Y114315D01*
X286551Y114310D01*
X286622Y114325D01*
X286693Y114330D01*
X286741Y114351D01*
X286792Y114362D01*
X286853Y114399D01*
X286919Y114427D01*
X286975Y114472D01*
X287003Y114488D01*
X287018Y114506D01*
X287050Y114532D01*
X287238Y114720D01*
X290068Y114720D01*
X290088Y114723D01*
X290107Y114721D01*
X290209Y114743D01*
X290311Y114759D01*
X290328Y114769D01*
X290348Y114773D01*
X290437Y114826D01*
X290528Y114875D01*
X290542Y114889D01*
X290559Y114899D01*
X290626Y114978D01*
X290698Y115053D01*
X290706Y115071D01*
X290719Y115086D01*
X290758Y115182D01*
X290801Y115276D01*
X290803Y115296D01*
X290811Y115314D01*
X290829Y115481D01*
X290829Y142494D01*
X290826Y142514D01*
X290828Y142533D01*
X290806Y142635D01*
X290790Y142737D01*
X290780Y142754D01*
X290776Y142774D01*
X290723Y142863D01*
X290674Y142954D01*
X290660Y142968D01*
X290650Y142985D01*
X290571Y143052D01*
X290496Y143124D01*
X290478Y143132D01*
X290463Y143145D01*
X290367Y143184D01*
X290273Y143227D01*
X290253Y143229D01*
X290235Y143237D01*
X290068Y143255D01*
X288547Y143255D01*
X287654Y144148D01*
X287654Y154302D01*
X288547Y155195D01*
X297685Y155195D01*
X298578Y154302D01*
X298578Y144148D01*
X297685Y143255D01*
X296164Y143255D01*
X296144Y143252D01*
X296125Y143254D01*
X296023Y143232D01*
X295921Y143216D01*
X295904Y143206D01*
X295884Y143202D01*
X295795Y143149D01*
X295704Y143100D01*
X295690Y143086D01*
X295673Y143076D01*
X295606Y142997D01*
X295534Y142922D01*
X295526Y142904D01*
X295513Y142889D01*
X295474Y142793D01*
X295431Y142699D01*
X295429Y142679D01*
X295421Y142661D01*
X295403Y142494D01*
X295403Y115481D01*
X295406Y115461D01*
X295404Y115442D01*
X295426Y115340D01*
X295442Y115238D01*
X295452Y115221D01*
X295456Y115201D01*
X295509Y115112D01*
X295558Y115021D01*
X295572Y115007D01*
X295582Y114990D01*
X295661Y114923D01*
X295736Y114851D01*
X295754Y114843D01*
X295769Y114830D01*
X295865Y114791D01*
X295959Y114748D01*
X295979Y114746D01*
X295997Y114738D01*
X296164Y114720D01*
X299502Y114720D01*
X300395Y113827D01*
X300395Y102563D01*
X299502Y101670D01*
X290394Y101670D01*
X290304Y101656D01*
X290213Y101648D01*
X290184Y101636D01*
X290152Y101631D01*
X290071Y101588D01*
X289987Y101552D01*
X289955Y101526D01*
X289934Y101515D01*
X289912Y101492D01*
X289856Y101447D01*
X287428Y99019D01*
X287386Y98961D01*
X287337Y98909D01*
X287315Y98862D01*
X287285Y98820D01*
X287264Y98751D01*
X287233Y98686D01*
X287228Y98634D01*
X287212Y98584D01*
X287214Y98513D01*
X287206Y98442D01*
X287217Y98391D01*
X287219Y98339D01*
X287243Y98271D01*
X287258Y98201D01*
X287285Y98157D01*
X287303Y98108D01*
X287348Y98052D01*
X287385Y97990D01*
X287424Y97956D01*
X287457Y97916D01*
X287517Y97877D01*
X287572Y97830D01*
X287620Y97811D01*
X287664Y97783D01*
X287733Y97765D01*
X287800Y97738D01*
X287871Y97730D01*
X287902Y97722D01*
X287926Y97724D01*
X287966Y97720D01*
X299502Y97720D01*
X300395Y96827D01*
X300395Y96294D01*
X300406Y96223D01*
X300408Y96152D01*
X300426Y96103D01*
X300434Y96051D01*
X300468Y95988D01*
X300493Y95921D01*
X300525Y95880D01*
X300550Y95834D01*
X300602Y95784D01*
X300646Y95728D01*
X300690Y95700D01*
X300728Y95664D01*
X300793Y95634D01*
X300853Y95595D01*
X300904Y95583D01*
X300951Y95561D01*
X301022Y95553D01*
X301092Y95535D01*
X301144Y95539D01*
X301195Y95534D01*
X301266Y95549D01*
X301337Y95555D01*
X301385Y95575D01*
X301436Y95586D01*
X301497Y95623D01*
X301563Y95651D01*
X301619Y95696D01*
X301647Y95712D01*
X301662Y95730D01*
X301694Y95756D01*
X302812Y96874D01*
X306788Y96874D01*
X308773Y94888D01*
X308789Y94877D01*
X308802Y94861D01*
X308889Y94805D01*
X308973Y94745D01*
X308992Y94739D01*
X309008Y94728D01*
X309109Y94703D01*
X309208Y94673D01*
X309228Y94673D01*
X309247Y94668D01*
X309350Y94676D01*
X309454Y94679D01*
X309472Y94686D01*
X309492Y94687D01*
X309587Y94728D01*
X309685Y94763D01*
X309700Y94776D01*
X309719Y94784D01*
X309850Y94888D01*
X310426Y95465D01*
X319142Y104181D01*
X319195Y104255D01*
X319255Y104325D01*
X319267Y104355D01*
X319286Y104381D01*
X319313Y104468D01*
X319347Y104553D01*
X319351Y104594D01*
X319358Y104616D01*
X319357Y104648D01*
X319365Y104719D01*
X319365Y113891D01*
X319354Y113962D01*
X319352Y114034D01*
X319334Y114083D01*
X319326Y114134D01*
X319292Y114197D01*
X319267Y114265D01*
X319235Y114305D01*
X319210Y114351D01*
X319159Y114401D01*
X319114Y114457D01*
X319070Y114485D01*
X319032Y114521D01*
X318967Y114551D01*
X318907Y114590D01*
X318856Y114602D01*
X318809Y114624D01*
X318738Y114632D01*
X318668Y114650D01*
X318616Y114646D01*
X318565Y114651D01*
X318494Y114636D01*
X318423Y114630D01*
X318375Y114610D01*
X318324Y114599D01*
X318295Y114581D01*
X314242Y114581D01*
X311431Y117392D01*
X311431Y121368D01*
X311919Y121855D01*
X311930Y121871D01*
X311946Y121884D01*
X312002Y121971D01*
X312062Y122055D01*
X312068Y122074D01*
X312079Y122091D01*
X312104Y122191D01*
X312135Y122290D01*
X312134Y122310D01*
X312139Y122329D01*
X312131Y122432D01*
X312128Y122536D01*
X312122Y122555D01*
X312120Y122575D01*
X312080Y122669D01*
X312044Y122767D01*
X312031Y122783D01*
X312024Y122801D01*
X311919Y122932D01*
X311022Y123828D01*
X311022Y133982D01*
X311915Y134875D01*
X321053Y134875D01*
X321946Y133982D01*
X321946Y123828D01*
X320971Y122854D01*
X320925Y122837D01*
X320885Y122805D01*
X320839Y122780D01*
X320789Y122728D01*
X320733Y122684D01*
X320705Y122640D01*
X320669Y122602D01*
X320639Y122537D01*
X320600Y122477D01*
X320588Y122426D01*
X320566Y122379D01*
X320558Y122308D01*
X320540Y122238D01*
X320544Y122186D01*
X320539Y122135D01*
X320554Y122064D01*
X320560Y121993D01*
X320580Y121945D01*
X320591Y121894D01*
X320628Y121833D01*
X320656Y121767D01*
X320701Y121711D01*
X320717Y121683D01*
X320735Y121668D01*
X320761Y121636D01*
X321029Y121368D01*
X321029Y117392D01*
X319656Y116019D01*
X319614Y115961D01*
X319564Y115909D01*
X319543Y115862D01*
X319512Y115820D01*
X319491Y115751D01*
X319461Y115686D01*
X319455Y115634D01*
X319440Y115584D01*
X319442Y115513D01*
X319434Y115442D01*
X319445Y115391D01*
X319446Y115339D01*
X319471Y115271D01*
X319486Y115201D01*
X319513Y115156D01*
X319531Y115108D01*
X319575Y115052D01*
X319612Y114990D01*
X319652Y114956D01*
X319684Y114916D01*
X319745Y114877D01*
X319799Y114830D01*
X319847Y114811D01*
X319891Y114783D01*
X319961Y114765D01*
X320027Y114738D01*
X320099Y114730D01*
X320130Y114722D01*
X320153Y114724D01*
X320194Y114720D01*
X323342Y114720D01*
X323362Y114723D01*
X323381Y114721D01*
X323483Y114743D01*
X323585Y114759D01*
X323602Y114769D01*
X323622Y114773D01*
X323711Y114826D01*
X323802Y114875D01*
X323816Y114889D01*
X323833Y114899D01*
X323900Y114978D01*
X323972Y115053D01*
X323980Y115071D01*
X323993Y115086D01*
X324032Y115182D01*
X324075Y115276D01*
X324077Y115296D01*
X324085Y115314D01*
X324103Y115481D01*
X324103Y142494D01*
X324100Y142514D01*
X324102Y142533D01*
X324080Y142635D01*
X324064Y142737D01*
X324054Y142754D01*
X324050Y142774D01*
X323997Y142863D01*
X323948Y142954D01*
X323934Y142968D01*
X323924Y142985D01*
X323845Y143052D01*
X323770Y143124D01*
X323752Y143132D01*
X323737Y143145D01*
X323641Y143184D01*
X323547Y143227D01*
X323527Y143229D01*
X323509Y143237D01*
X323342Y143255D01*
X321567Y143255D01*
X320674Y144148D01*
X320674Y154302D01*
X321567Y155195D01*
X330705Y155195D01*
X331598Y154302D01*
X331598Y144148D01*
X330705Y143255D01*
X329438Y143255D01*
X329418Y143252D01*
X329399Y143254D01*
X329297Y143232D01*
X329195Y143216D01*
X329178Y143206D01*
X329158Y143202D01*
X329069Y143149D01*
X328978Y143100D01*
X328964Y143086D01*
X328947Y143076D01*
X328880Y142997D01*
X328808Y142922D01*
X328800Y142904D01*
X328787Y142889D01*
X328748Y142793D01*
X328705Y142699D01*
X328703Y142679D01*
X328695Y142661D01*
X328677Y142494D01*
X328677Y115481D01*
X328680Y115461D01*
X328678Y115442D01*
X328700Y115340D01*
X328716Y115238D01*
X328726Y115221D01*
X328730Y115201D01*
X328783Y115112D01*
X328832Y115021D01*
X328846Y115007D01*
X328856Y114990D01*
X328935Y114923D01*
X329010Y114851D01*
X329028Y114843D01*
X329043Y114830D01*
X329139Y114791D01*
X329233Y114748D01*
X329253Y114746D01*
X329271Y114738D01*
X329438Y114720D01*
X332522Y114720D01*
X333415Y113827D01*
X333415Y104775D01*
X333418Y104755D01*
X333416Y104736D01*
X333438Y104634D01*
X333454Y104532D01*
X333464Y104515D01*
X333468Y104495D01*
X333521Y104406D01*
X333570Y104315D01*
X333584Y104301D01*
X333594Y104284D01*
X333673Y104217D01*
X333748Y104145D01*
X333766Y104137D01*
X333781Y104124D01*
X333877Y104085D01*
X333971Y104042D01*
X333991Y104040D01*
X334009Y104032D01*
X334176Y104014D01*
X337711Y104014D01*
X337802Y104028D01*
X337892Y104036D01*
X337922Y104048D01*
X337954Y104053D01*
X338035Y104096D01*
X338119Y104132D01*
X338151Y104158D01*
X338172Y104169D01*
X338194Y104192D01*
X338250Y104237D01*
X342352Y108339D01*
X342405Y108413D01*
X342465Y108483D01*
X342477Y108513D01*
X342496Y108539D01*
X342523Y108626D01*
X342557Y108711D01*
X342561Y108752D01*
X342568Y108774D01*
X342567Y108806D01*
X342575Y108878D01*
X342575Y109712D01*
X343468Y110605D01*
X346861Y110605D01*
X346932Y110616D01*
X347003Y110618D01*
X347052Y110636D01*
X347104Y110644D01*
X347167Y110678D01*
X347234Y110703D01*
X347275Y110735D01*
X347321Y110760D01*
X347371Y110812D01*
X347427Y110856D01*
X347455Y110900D01*
X347491Y110938D01*
X347521Y111003D01*
X347560Y111063D01*
X347572Y111114D01*
X347594Y111161D01*
X347602Y111232D01*
X347620Y111302D01*
X347616Y111354D01*
X347621Y111405D01*
X347606Y111476D01*
X347600Y111547D01*
X347580Y111595D01*
X347569Y111646D01*
X347532Y111707D01*
X347504Y111773D01*
X347459Y111829D01*
X347443Y111857D01*
X347425Y111872D01*
X347399Y111904D01*
X344451Y114852D01*
X344451Y118828D01*
X346740Y121117D01*
X346793Y121191D01*
X346853Y121260D01*
X346865Y121290D01*
X346884Y121316D01*
X346911Y121403D01*
X346945Y121488D01*
X346949Y121529D01*
X346956Y121552D01*
X346955Y121584D01*
X346963Y121655D01*
X346963Y122174D01*
X346960Y122194D01*
X346962Y122213D01*
X346940Y122315D01*
X346924Y122417D01*
X346914Y122434D01*
X346910Y122454D01*
X346857Y122543D01*
X346808Y122634D01*
X346794Y122648D01*
X346784Y122665D01*
X346705Y122732D01*
X346630Y122804D01*
X346612Y122812D01*
X346597Y122825D01*
X346501Y122864D01*
X346407Y122907D01*
X346387Y122909D01*
X346369Y122917D01*
X346202Y122935D01*
X344935Y122935D01*
X344042Y123828D01*
X344042Y133982D01*
X344935Y134875D01*
X354073Y134875D01*
X354966Y133982D01*
X354966Y123828D01*
X354073Y122935D01*
X352298Y122935D01*
X352278Y122932D01*
X352259Y122934D01*
X352157Y122912D01*
X352055Y122896D01*
X352038Y122886D01*
X352018Y122882D01*
X351929Y122829D01*
X351838Y122780D01*
X351824Y122766D01*
X351807Y122756D01*
X351740Y122677D01*
X351668Y122602D01*
X351660Y122584D01*
X351647Y122569D01*
X351608Y122473D01*
X351565Y122379D01*
X351563Y122359D01*
X351555Y122341D01*
X351537Y122174D01*
X351537Y121655D01*
X351551Y121565D01*
X351559Y121474D01*
X351571Y121444D01*
X351576Y121412D01*
X351619Y121332D01*
X351655Y121248D01*
X351681Y121216D01*
X351692Y121195D01*
X351715Y121173D01*
X351760Y121117D01*
X354049Y118828D01*
X354049Y117563D01*
X354060Y117492D01*
X354062Y117421D01*
X354080Y117372D01*
X354088Y117320D01*
X354122Y117257D01*
X354147Y117190D01*
X354179Y117149D01*
X354204Y117103D01*
X354256Y117053D01*
X354300Y116997D01*
X354344Y116969D01*
X354382Y116933D01*
X354447Y116903D01*
X354507Y116864D01*
X354558Y116852D01*
X354605Y116830D01*
X354676Y116822D01*
X354746Y116804D01*
X354798Y116808D01*
X354849Y116803D01*
X354920Y116818D01*
X354991Y116824D01*
X355039Y116844D01*
X355090Y116855D01*
X355151Y116892D01*
X355217Y116920D01*
X355273Y116965D01*
X355301Y116981D01*
X355316Y116999D01*
X355348Y117025D01*
X357422Y119099D01*
X361398Y119099D01*
X362202Y118295D01*
X362260Y118253D01*
X362312Y118203D01*
X362359Y118182D01*
X362401Y118151D01*
X362470Y118130D01*
X362535Y118100D01*
X362587Y118094D01*
X362637Y118079D01*
X362708Y118081D01*
X362779Y118073D01*
X362830Y118084D01*
X362882Y118085D01*
X362950Y118110D01*
X363020Y118125D01*
X363065Y118152D01*
X363113Y118170D01*
X363169Y118214D01*
X363231Y118251D01*
X363265Y118291D01*
X363305Y118323D01*
X363344Y118384D01*
X363391Y118438D01*
X363410Y118486D01*
X363438Y118530D01*
X363456Y118600D01*
X363483Y118666D01*
X363491Y118738D01*
X363499Y118769D01*
X363497Y118792D01*
X363501Y118833D01*
X363501Y120098D01*
X365039Y121636D01*
X365081Y121694D01*
X365131Y121746D01*
X365152Y121793D01*
X365183Y121835D01*
X365204Y121904D01*
X365234Y121969D01*
X365240Y122021D01*
X365255Y122071D01*
X365253Y122142D01*
X365261Y122213D01*
X365250Y122264D01*
X365249Y122316D01*
X365224Y122384D01*
X365209Y122454D01*
X365182Y122499D01*
X365164Y122547D01*
X365120Y122603D01*
X365083Y122665D01*
X365043Y122699D01*
X365011Y122739D01*
X364950Y122778D01*
X364896Y122825D01*
X364848Y122844D01*
X364804Y122872D01*
X364734Y122890D01*
X364668Y122917D01*
X364596Y122925D01*
X364565Y122933D01*
X364542Y122931D01*
X364501Y122935D01*
X364239Y122935D01*
X363346Y123828D01*
X363346Y133982D01*
X364239Y134875D01*
X373377Y134875D01*
X374270Y133982D01*
X374270Y123828D01*
X373377Y122935D01*
X372099Y122935D01*
X372028Y122924D01*
X371957Y122922D01*
X371908Y122904D01*
X371856Y122896D01*
X371793Y122862D01*
X371726Y122837D01*
X371685Y122805D01*
X371639Y122780D01*
X371589Y122728D01*
X371533Y122684D01*
X371505Y122640D01*
X371469Y122602D01*
X371439Y122537D01*
X371400Y122477D01*
X371388Y122426D01*
X371366Y122379D01*
X371358Y122308D01*
X371340Y122238D01*
X371344Y122186D01*
X371339Y122135D01*
X371354Y122064D01*
X371360Y121993D01*
X371380Y121945D01*
X371391Y121894D01*
X371428Y121833D01*
X371456Y121767D01*
X371501Y121711D01*
X371517Y121683D01*
X371535Y121668D01*
X371561Y121636D01*
X373099Y120098D01*
X373099Y116122D01*
X370288Y113311D01*
X366312Y113311D01*
X365508Y114115D01*
X365450Y114157D01*
X365398Y114207D01*
X365351Y114228D01*
X365309Y114259D01*
X365240Y114280D01*
X365175Y114310D01*
X365123Y114316D01*
X365073Y114331D01*
X365002Y114329D01*
X364931Y114337D01*
X364880Y114326D01*
X364828Y114325D01*
X364760Y114300D01*
X364690Y114285D01*
X364645Y114258D01*
X364597Y114240D01*
X364541Y114196D01*
X364479Y114159D01*
X364445Y114119D01*
X364405Y114087D01*
X364366Y114026D01*
X364319Y113972D01*
X364300Y113924D01*
X364272Y113880D01*
X364254Y113810D01*
X364227Y113744D01*
X364219Y113672D01*
X364211Y113641D01*
X364213Y113618D01*
X364209Y113577D01*
X364209Y113051D01*
X364223Y112960D01*
X364231Y112870D01*
X364243Y112840D01*
X364248Y112808D01*
X364291Y112727D01*
X364327Y112643D01*
X364353Y112611D01*
X364364Y112590D01*
X364387Y112568D01*
X364432Y112512D01*
X364887Y112057D01*
X364887Y111366D01*
X364890Y111346D01*
X364888Y111327D01*
X364910Y111225D01*
X364926Y111123D01*
X364936Y111106D01*
X364940Y111086D01*
X364993Y110997D01*
X365042Y110906D01*
X365056Y110892D01*
X365066Y110875D01*
X365145Y110808D01*
X365220Y110736D01*
X365238Y110728D01*
X365253Y110715D01*
X365349Y110676D01*
X365443Y110633D01*
X365463Y110631D01*
X365481Y110623D01*
X365648Y110605D01*
X367732Y110605D01*
X368625Y109712D01*
X368625Y101948D01*
X368176Y101499D01*
X368106Y101403D01*
X368036Y101307D01*
X368034Y101303D01*
X368032Y101300D01*
X367997Y101186D01*
X367961Y101073D01*
X367961Y101068D01*
X367960Y101064D01*
X367963Y100946D01*
X367965Y100827D01*
X367966Y100823D01*
X367966Y100819D01*
X368007Y100707D01*
X368046Y100595D01*
X368049Y100591D01*
X368050Y100588D01*
X368125Y100495D01*
X368198Y100401D01*
X368202Y100398D01*
X368204Y100396D01*
X368216Y100388D01*
X368333Y100302D01*
X368660Y100113D01*
X369133Y99640D01*
X369468Y99061D01*
X369641Y98414D01*
X369641Y96353D01*
X363362Y96353D01*
X363342Y96350D01*
X363323Y96352D01*
X363221Y96330D01*
X363119Y96313D01*
X363102Y96304D01*
X363082Y96300D01*
X362993Y96247D01*
X362902Y96198D01*
X362888Y96184D01*
X362871Y96174D01*
X362804Y96095D01*
X362733Y96020D01*
X362724Y96002D01*
X362711Y95987D01*
X362672Y95890D01*
X362629Y95797D01*
X362627Y95777D01*
X362619Y95759D01*
X362601Y95592D01*
X362601Y94829D01*
X361838Y94829D01*
X361818Y94826D01*
X361799Y94828D01*
X361697Y94806D01*
X361595Y94789D01*
X361578Y94780D01*
X361558Y94776D01*
X361469Y94723D01*
X361378Y94674D01*
X361364Y94660D01*
X361347Y94650D01*
X361280Y94571D01*
X361209Y94496D01*
X361200Y94478D01*
X361187Y94463D01*
X361148Y94367D01*
X361105Y94273D01*
X361103Y94253D01*
X361095Y94235D01*
X361077Y94068D01*
X361077Y89039D01*
X357766Y89039D01*
X357119Y89212D01*
X356540Y89547D01*
X356067Y90020D01*
X355695Y90664D01*
X355620Y90756D01*
X355546Y90849D01*
X355542Y90851D01*
X355539Y90854D01*
X355440Y90917D01*
X355339Y90982D01*
X355335Y90983D01*
X355331Y90985D01*
X355216Y91012D01*
X355100Y91042D01*
X355096Y91041D01*
X355092Y91042D01*
X354973Y91032D01*
X354855Y91023D01*
X354851Y91021D01*
X354847Y91021D01*
X354737Y90972D01*
X354629Y90926D01*
X354625Y90923D01*
X354622Y90922D01*
X354611Y90912D01*
X354498Y90821D01*
X353732Y90055D01*
X343468Y90055D01*
X342575Y90948D01*
X342575Y91782D01*
X342572Y91802D01*
X342574Y91821D01*
X342552Y91923D01*
X342536Y92025D01*
X342526Y92042D01*
X342522Y92062D01*
X342469Y92151D01*
X342420Y92242D01*
X342406Y92256D01*
X342396Y92273D01*
X342317Y92340D01*
X342242Y92412D01*
X342224Y92420D01*
X342209Y92433D01*
X342113Y92472D01*
X342019Y92515D01*
X341999Y92517D01*
X341981Y92525D01*
X341814Y92543D01*
X341203Y92543D01*
X341112Y92529D01*
X341022Y92521D01*
X340992Y92509D01*
X340960Y92504D01*
X340879Y92461D01*
X340795Y92425D01*
X340763Y92399D01*
X340742Y92388D01*
X340720Y92365D01*
X340664Y92320D01*
X337252Y88908D01*
X334176Y88908D01*
X334156Y88905D01*
X334137Y88907D01*
X334035Y88885D01*
X333933Y88869D01*
X333916Y88859D01*
X333896Y88855D01*
X333807Y88802D01*
X333716Y88753D01*
X333702Y88739D01*
X333685Y88729D01*
X333618Y88650D01*
X333546Y88575D01*
X333538Y88557D01*
X333525Y88542D01*
X333486Y88446D01*
X333443Y88352D01*
X333441Y88332D01*
X333433Y88314D01*
X333415Y88147D01*
X333415Y85563D01*
X332522Y84670D01*
X320258Y84670D01*
X319365Y85563D01*
X319365Y96099D01*
X319354Y96169D01*
X319352Y96241D01*
X319334Y96290D01*
X319326Y96341D01*
X319292Y96405D01*
X319267Y96472D01*
X319235Y96513D01*
X319210Y96559D01*
X319158Y96608D01*
X319114Y96664D01*
X319070Y96692D01*
X319032Y96728D01*
X318967Y96758D01*
X318907Y96797D01*
X318856Y96810D01*
X318809Y96832D01*
X318738Y96840D01*
X318668Y96857D01*
X318616Y96853D01*
X318565Y96859D01*
X318494Y96844D01*
X318423Y96838D01*
X318375Y96818D01*
X318324Y96807D01*
X318263Y96770D01*
X318197Y96742D01*
X318141Y96697D01*
X318113Y96680D01*
X318098Y96663D01*
X318066Y96637D01*
X313660Y92231D01*
X313607Y92157D01*
X313547Y92087D01*
X313535Y92057D01*
X313516Y92031D01*
X313489Y91944D01*
X313455Y91859D01*
X313451Y91818D01*
X313444Y91796D01*
X313445Y91764D01*
X313437Y91692D01*
X313437Y78428D01*
X308922Y73913D01*
X239388Y73913D01*
X239297Y73899D01*
X239207Y73891D01*
X239177Y73879D01*
X239145Y73874D01*
X239064Y73831D01*
X238980Y73795D01*
X238948Y73769D01*
X238927Y73758D01*
X238905Y73735D01*
X238849Y73690D01*
X231110Y65951D01*
X231057Y65877D01*
X230997Y65807D01*
X230985Y65777D01*
X230966Y65751D01*
X230939Y65664D01*
X230905Y65579D01*
X230901Y65538D01*
X230894Y65516D01*
X230895Y65484D01*
X230887Y65412D01*
X230887Y40328D01*
X220022Y29463D01*
X167328Y29463D01*
G37*
%LPD*%
%LPC*%
G36*
X320062Y162305D02*
X320062Y162305D01*
X314705Y167662D01*
X314705Y175238D01*
X318761Y179294D01*
X318803Y179352D01*
X318852Y179404D01*
X318874Y179451D01*
X318905Y179493D01*
X318926Y179562D01*
X318956Y179627D01*
X318962Y179679D01*
X318977Y179729D01*
X318975Y179800D01*
X318983Y179871D01*
X318972Y179922D01*
X318971Y179974D01*
X318946Y180042D01*
X318931Y180112D01*
X318904Y180157D01*
X318886Y180205D01*
X318841Y180261D01*
X318805Y180323D01*
X318765Y180357D01*
X318733Y180397D01*
X318672Y180436D01*
X318618Y180483D01*
X318569Y180502D01*
X318526Y180530D01*
X318456Y180548D01*
X318390Y180575D01*
X318318Y180583D01*
X318287Y180591D01*
X318264Y180589D01*
X318223Y180593D01*
X260085Y180593D01*
X259995Y180579D01*
X259904Y180571D01*
X259874Y180559D01*
X259842Y180554D01*
X259762Y180511D01*
X259678Y180475D01*
X259646Y180449D01*
X259625Y180438D01*
X259603Y180415D01*
X259547Y180370D01*
X257258Y178081D01*
X253282Y178081D01*
X250471Y180892D01*
X250471Y184868D01*
X253282Y187679D01*
X254790Y187679D01*
X254810Y187682D01*
X254829Y187680D01*
X254931Y187702D01*
X255033Y187718D01*
X255050Y187728D01*
X255070Y187732D01*
X255159Y187785D01*
X255250Y187834D01*
X255264Y187848D01*
X255281Y187858D01*
X255348Y187937D01*
X255420Y188012D01*
X255428Y188030D01*
X255441Y188045D01*
X255480Y188141D01*
X255523Y188235D01*
X255525Y188255D01*
X255533Y188273D01*
X255551Y188440D01*
X255551Y192488D01*
X258362Y195299D01*
X261599Y195299D01*
X261690Y195313D01*
X261780Y195321D01*
X261810Y195333D01*
X261842Y195338D01*
X261923Y195381D01*
X262007Y195417D01*
X262039Y195443D01*
X262060Y195454D01*
X262082Y195477D01*
X262138Y195522D01*
X278453Y211837D01*
X319493Y211837D01*
X319564Y211848D01*
X319635Y211850D01*
X319684Y211868D01*
X319736Y211876D01*
X319799Y211910D01*
X319866Y211935D01*
X319907Y211967D01*
X319953Y211992D01*
X320002Y212044D01*
X320058Y212088D01*
X320087Y212132D01*
X320122Y212170D01*
X320153Y212235D01*
X320191Y212295D01*
X320204Y212346D01*
X320226Y212393D01*
X320234Y212464D01*
X320251Y212534D01*
X320247Y212586D01*
X320253Y212637D01*
X320238Y212708D01*
X320232Y212779D01*
X320212Y212827D01*
X320201Y212878D01*
X320164Y212939D01*
X320136Y213005D01*
X320091Y213061D01*
X320075Y213089D01*
X320057Y213104D01*
X320031Y213136D01*
X314705Y218462D01*
X314705Y226038D01*
X320062Y231395D01*
X327638Y231395D01*
X332995Y226038D01*
X332995Y218462D01*
X327669Y213136D01*
X327627Y213078D01*
X327578Y213026D01*
X327556Y212979D01*
X327525Y212937D01*
X327504Y212868D01*
X327474Y212803D01*
X327468Y212751D01*
X327453Y212701D01*
X327455Y212630D01*
X327447Y212559D01*
X327458Y212508D01*
X327459Y212456D01*
X327484Y212388D01*
X327499Y212318D01*
X327526Y212273D01*
X327544Y212225D01*
X327589Y212169D01*
X327625Y212107D01*
X327665Y212073D01*
X327697Y212033D01*
X327758Y211994D01*
X327812Y211947D01*
X327861Y211928D01*
X327904Y211900D01*
X327974Y211882D01*
X328040Y211855D01*
X328112Y211847D01*
X328143Y211839D01*
X328166Y211841D01*
X328207Y211837D01*
X335287Y211837D01*
X335378Y211851D01*
X335468Y211859D01*
X335498Y211871D01*
X335530Y211876D01*
X335611Y211919D01*
X335695Y211955D01*
X335727Y211981D01*
X335748Y211992D01*
X335770Y212015D01*
X335826Y212060D01*
X340628Y216862D01*
X340640Y216879D01*
X340656Y216891D01*
X340712Y216978D01*
X340772Y217062D01*
X340778Y217081D01*
X340789Y217098D01*
X340814Y217198D01*
X340844Y217297D01*
X340844Y217317D01*
X340849Y217336D01*
X340841Y217439D01*
X340838Y217543D01*
X340831Y217562D01*
X340830Y217582D01*
X340789Y217677D01*
X340754Y217774D01*
X340741Y217790D01*
X340733Y217808D01*
X340628Y217939D01*
X340105Y218462D01*
X340105Y226038D01*
X345462Y231395D01*
X353038Y231395D01*
X358364Y226069D01*
X358422Y226027D01*
X358474Y225978D01*
X358521Y225956D01*
X358563Y225925D01*
X358632Y225904D01*
X358697Y225874D01*
X358749Y225868D01*
X358799Y225853D01*
X358870Y225855D01*
X358941Y225847D01*
X358992Y225858D01*
X359044Y225859D01*
X359112Y225884D01*
X359182Y225899D01*
X359227Y225926D01*
X359275Y225944D01*
X359331Y225989D01*
X359393Y226025D01*
X359427Y226065D01*
X359467Y226097D01*
X359506Y226158D01*
X359553Y226212D01*
X359572Y226261D01*
X359600Y226304D01*
X359618Y226374D01*
X359645Y226440D01*
X359653Y226512D01*
X359661Y226543D01*
X359659Y226566D01*
X359663Y226607D01*
X359663Y243293D01*
X359652Y243364D01*
X359650Y243435D01*
X359632Y243484D01*
X359624Y243536D01*
X359590Y243599D01*
X359565Y243666D01*
X359533Y243707D01*
X359508Y243753D01*
X359456Y243802D01*
X359412Y243858D01*
X359368Y243887D01*
X359330Y243922D01*
X359265Y243953D01*
X359205Y243991D01*
X359154Y244004D01*
X359107Y244026D01*
X359036Y244034D01*
X358966Y244051D01*
X358914Y244047D01*
X358863Y244053D01*
X358792Y244038D01*
X358721Y244032D01*
X358673Y244012D01*
X358622Y244001D01*
X358561Y243964D01*
X358495Y243936D01*
X358439Y243891D01*
X358411Y243875D01*
X358396Y243857D01*
X358364Y243831D01*
X353038Y238505D01*
X345462Y238505D01*
X340105Y243862D01*
X340105Y251438D01*
X345462Y256795D01*
X353038Y256795D01*
X358364Y251469D01*
X358422Y251427D01*
X358474Y251378D01*
X358521Y251356D01*
X358563Y251325D01*
X358632Y251304D01*
X358697Y251274D01*
X358749Y251268D01*
X358799Y251253D01*
X358870Y251255D01*
X358941Y251247D01*
X358992Y251258D01*
X359044Y251259D01*
X359112Y251284D01*
X359182Y251299D01*
X359227Y251326D01*
X359275Y251344D01*
X359331Y251389D01*
X359393Y251425D01*
X359427Y251465D01*
X359467Y251497D01*
X359506Y251558D01*
X359553Y251612D01*
X359572Y251661D01*
X359600Y251704D01*
X359618Y251774D01*
X359645Y251840D01*
X359653Y251912D01*
X359661Y251943D01*
X359659Y251966D01*
X359663Y252007D01*
X359663Y267256D01*
X359652Y267327D01*
X359650Y267398D01*
X359632Y267447D01*
X359624Y267499D01*
X359590Y267562D01*
X359565Y267629D01*
X359533Y267670D01*
X359508Y267716D01*
X359456Y267766D01*
X359412Y267822D01*
X359368Y267850D01*
X359330Y267886D01*
X359265Y267916D01*
X359205Y267955D01*
X359154Y267967D01*
X359107Y267989D01*
X359036Y267997D01*
X358966Y268015D01*
X358914Y268011D01*
X358863Y268016D01*
X358792Y268001D01*
X358721Y267995D01*
X358673Y267975D01*
X358622Y267964D01*
X358561Y267927D01*
X358495Y267899D01*
X358439Y267854D01*
X358411Y267838D01*
X358396Y267820D01*
X358364Y267794D01*
X353459Y262889D01*
X350773Y262889D01*
X350773Y272288D01*
X350770Y272308D01*
X350772Y272327D01*
X350750Y272429D01*
X350733Y272531D01*
X350724Y272548D01*
X350720Y272568D01*
X350667Y272657D01*
X350618Y272748D01*
X350604Y272762D01*
X350594Y272779D01*
X350515Y272846D01*
X350440Y272917D01*
X350422Y272926D01*
X350407Y272939D01*
X350311Y272977D01*
X350217Y273021D01*
X350197Y273023D01*
X350179Y273031D01*
X350012Y273049D01*
X349249Y273049D01*
X349249Y273051D01*
X350012Y273051D01*
X350032Y273054D01*
X350051Y273052D01*
X350153Y273074D01*
X350255Y273091D01*
X350272Y273100D01*
X350292Y273104D01*
X350381Y273157D01*
X350472Y273206D01*
X350486Y273220D01*
X350503Y273230D01*
X350570Y273309D01*
X350641Y273384D01*
X350650Y273402D01*
X350663Y273417D01*
X350702Y273513D01*
X350745Y273607D01*
X350747Y273627D01*
X350755Y273645D01*
X350773Y273812D01*
X350773Y283211D01*
X353459Y283211D01*
X358364Y278306D01*
X358422Y278264D01*
X358474Y278214D01*
X358521Y278193D01*
X358563Y278162D01*
X358632Y278141D01*
X358697Y278111D01*
X358749Y278105D01*
X358799Y278090D01*
X358870Y278092D01*
X358941Y278084D01*
X358992Y278095D01*
X359044Y278096D01*
X359112Y278121D01*
X359182Y278136D01*
X359227Y278163D01*
X359275Y278181D01*
X359331Y278225D01*
X359393Y278262D01*
X359427Y278302D01*
X359467Y278334D01*
X359506Y278395D01*
X359553Y278449D01*
X359572Y278497D01*
X359600Y278541D01*
X359618Y278611D01*
X359645Y278677D01*
X359653Y278749D01*
X359661Y278780D01*
X359659Y278803D01*
X359663Y278844D01*
X359663Y294093D01*
X359652Y294164D01*
X359650Y294235D01*
X359632Y294284D01*
X359624Y294336D01*
X359590Y294399D01*
X359565Y294466D01*
X359533Y294507D01*
X359508Y294553D01*
X359456Y294602D01*
X359412Y294658D01*
X359368Y294687D01*
X359330Y294722D01*
X359265Y294753D01*
X359205Y294791D01*
X359154Y294804D01*
X359107Y294826D01*
X359036Y294834D01*
X358966Y294851D01*
X358914Y294847D01*
X358863Y294853D01*
X358792Y294838D01*
X358721Y294832D01*
X358673Y294812D01*
X358622Y294801D01*
X358561Y294764D01*
X358495Y294736D01*
X358439Y294691D01*
X358411Y294675D01*
X358396Y294657D01*
X358364Y294631D01*
X353038Y289305D01*
X345462Y289305D01*
X340105Y294662D01*
X340105Y302238D01*
X345431Y307564D01*
X345473Y307622D01*
X345522Y307674D01*
X345544Y307721D01*
X345575Y307763D01*
X345596Y307832D01*
X345626Y307897D01*
X345632Y307949D01*
X345647Y307999D01*
X345645Y308070D01*
X345653Y308141D01*
X345642Y308192D01*
X345641Y308244D01*
X345616Y308312D01*
X345601Y308382D01*
X345574Y308427D01*
X345556Y308475D01*
X345511Y308531D01*
X345475Y308593D01*
X345435Y308627D01*
X345403Y308667D01*
X345342Y308706D01*
X345288Y308753D01*
X345239Y308772D01*
X345196Y308800D01*
X345126Y308818D01*
X345060Y308845D01*
X344988Y308853D01*
X344957Y308861D01*
X344934Y308859D01*
X344893Y308863D01*
X328207Y308863D01*
X328136Y308852D01*
X328065Y308850D01*
X328016Y308832D01*
X327964Y308824D01*
X327901Y308790D01*
X327834Y308765D01*
X327793Y308733D01*
X327747Y308708D01*
X327698Y308656D01*
X327642Y308612D01*
X327613Y308568D01*
X327578Y308530D01*
X327547Y308465D01*
X327509Y308405D01*
X327496Y308354D01*
X327474Y308307D01*
X327466Y308236D01*
X327449Y308166D01*
X327453Y308114D01*
X327447Y308063D01*
X327462Y307992D01*
X327468Y307921D01*
X327488Y307873D01*
X327499Y307822D01*
X327536Y307761D01*
X327564Y307695D01*
X327609Y307639D01*
X327625Y307611D01*
X327643Y307596D01*
X327669Y307564D01*
X332995Y302238D01*
X332995Y294662D01*
X327638Y289305D01*
X320062Y289305D01*
X314705Y294662D01*
X314705Y302238D01*
X320031Y307564D01*
X320073Y307622D01*
X320122Y307674D01*
X320144Y307721D01*
X320175Y307763D01*
X320196Y307832D01*
X320226Y307897D01*
X320232Y307949D01*
X320247Y307999D01*
X320245Y308070D01*
X320253Y308141D01*
X320242Y308192D01*
X320241Y308244D01*
X320216Y308312D01*
X320201Y308382D01*
X320174Y308427D01*
X320156Y308475D01*
X320111Y308531D01*
X320075Y308593D01*
X320035Y308627D01*
X320003Y308667D01*
X319942Y308706D01*
X319888Y308753D01*
X319839Y308772D01*
X319796Y308800D01*
X319726Y308818D01*
X319660Y308845D01*
X319588Y308853D01*
X319557Y308861D01*
X319534Y308859D01*
X319493Y308863D01*
X313378Y308863D01*
X300289Y321952D01*
X300215Y322005D01*
X300145Y322065D01*
X300115Y322077D01*
X300089Y322096D01*
X300002Y322123D01*
X299917Y322157D01*
X299876Y322161D01*
X299854Y322168D01*
X299822Y322167D01*
X299750Y322175D01*
X288143Y322175D01*
X287250Y323068D01*
X287250Y337332D01*
X288143Y338225D01*
X302407Y338225D01*
X303300Y337332D01*
X303300Y325725D01*
X303314Y325634D01*
X303322Y325544D01*
X303334Y325514D01*
X303339Y325482D01*
X303382Y325401D01*
X303418Y325317D01*
X303444Y325285D01*
X303455Y325264D01*
X303478Y325242D01*
X303523Y325186D01*
X315049Y313660D01*
X315123Y313607D01*
X315193Y313547D01*
X315223Y313535D01*
X315249Y313516D01*
X315336Y313489D01*
X315421Y313455D01*
X315462Y313451D01*
X315484Y313444D01*
X315516Y313445D01*
X315588Y313437D01*
X319493Y313437D01*
X319564Y313448D01*
X319635Y313450D01*
X319684Y313468D01*
X319736Y313476D01*
X319799Y313510D01*
X319866Y313535D01*
X319907Y313567D01*
X319953Y313592D01*
X320002Y313644D01*
X320058Y313688D01*
X320087Y313732D01*
X320122Y313770D01*
X320153Y313835D01*
X320191Y313895D01*
X320204Y313946D01*
X320226Y313993D01*
X320234Y314064D01*
X320251Y314134D01*
X320247Y314186D01*
X320253Y314237D01*
X320238Y314308D01*
X320232Y314379D01*
X320212Y314427D01*
X320201Y314478D01*
X320164Y314539D01*
X320136Y314605D01*
X320091Y314661D01*
X320075Y314689D01*
X320057Y314704D01*
X320031Y314736D01*
X314705Y320062D01*
X314705Y327638D01*
X320062Y332995D01*
X327638Y332995D01*
X332995Y327638D01*
X332995Y320062D01*
X327669Y314736D01*
X327627Y314678D01*
X327578Y314626D01*
X327556Y314579D01*
X327525Y314537D01*
X327504Y314468D01*
X327474Y314403D01*
X327468Y314351D01*
X327453Y314301D01*
X327455Y314230D01*
X327447Y314159D01*
X327458Y314108D01*
X327459Y314056D01*
X327484Y313988D01*
X327499Y313918D01*
X327526Y313873D01*
X327544Y313825D01*
X327589Y313769D01*
X327625Y313707D01*
X327665Y313673D01*
X327697Y313633D01*
X327758Y313594D01*
X327812Y313547D01*
X327861Y313528D01*
X327904Y313500D01*
X327974Y313482D01*
X328040Y313455D01*
X328112Y313447D01*
X328143Y313439D01*
X328166Y313441D01*
X328207Y313437D01*
X344893Y313437D01*
X344964Y313448D01*
X345035Y313450D01*
X345084Y313468D01*
X345136Y313476D01*
X345199Y313510D01*
X345266Y313535D01*
X345307Y313567D01*
X345353Y313592D01*
X345402Y313644D01*
X345458Y313688D01*
X345487Y313732D01*
X345522Y313770D01*
X345553Y313835D01*
X345591Y313895D01*
X345604Y313946D01*
X345626Y313993D01*
X345634Y314064D01*
X345651Y314134D01*
X345647Y314186D01*
X345653Y314237D01*
X345638Y314308D01*
X345632Y314379D01*
X345612Y314427D01*
X345601Y314478D01*
X345564Y314539D01*
X345536Y314605D01*
X345491Y314661D01*
X345475Y314689D01*
X345457Y314704D01*
X345431Y314736D01*
X340105Y320062D01*
X340105Y327638D01*
X345462Y332995D01*
X353038Y332995D01*
X358395Y327638D01*
X358395Y320062D01*
X353069Y314736D01*
X353027Y314678D01*
X352978Y314626D01*
X352956Y314579D01*
X352925Y314537D01*
X352904Y314468D01*
X352874Y314403D01*
X352868Y314351D01*
X352853Y314301D01*
X352855Y314230D01*
X352847Y314159D01*
X352858Y314108D01*
X352859Y314056D01*
X352884Y313988D01*
X352899Y313918D01*
X352926Y313873D01*
X352944Y313825D01*
X352989Y313769D01*
X353025Y313707D01*
X353065Y313673D01*
X353097Y313633D01*
X353158Y313594D01*
X353212Y313547D01*
X353261Y313528D01*
X353304Y313500D01*
X353374Y313482D01*
X353440Y313455D01*
X353512Y313447D01*
X353543Y313439D01*
X353566Y313441D01*
X353607Y313437D01*
X356547Y313437D01*
X364237Y305747D01*
X364237Y208603D01*
X362674Y207040D01*
X357872Y202238D01*
X357860Y202221D01*
X357844Y202209D01*
X357788Y202122D01*
X357728Y202038D01*
X357722Y202019D01*
X357711Y202002D01*
X357686Y201902D01*
X357656Y201803D01*
X357656Y201783D01*
X357651Y201764D01*
X357659Y201661D01*
X357662Y201557D01*
X357669Y201538D01*
X357670Y201518D01*
X357711Y201423D01*
X357746Y201326D01*
X357759Y201310D01*
X357767Y201292D01*
X357872Y201161D01*
X358395Y200638D01*
X358395Y193062D01*
X353038Y187705D01*
X345462Y187705D01*
X344939Y188228D01*
X344923Y188240D01*
X344910Y188256D01*
X344823Y188312D01*
X344739Y188372D01*
X344720Y188378D01*
X344703Y188389D01*
X344603Y188414D01*
X344504Y188444D01*
X344484Y188444D01*
X344465Y188449D01*
X344362Y188441D01*
X344258Y188438D01*
X344239Y188431D01*
X344220Y188430D01*
X344125Y188389D01*
X344027Y188354D01*
X344012Y188341D01*
X343993Y188333D01*
X343862Y188228D01*
X336227Y180593D01*
X329477Y180593D01*
X329406Y180582D01*
X329335Y180580D01*
X329286Y180562D01*
X329234Y180554D01*
X329171Y180520D01*
X329104Y180495D01*
X329063Y180463D01*
X329017Y180438D01*
X328968Y180386D01*
X328912Y180342D01*
X328883Y180298D01*
X328848Y180260D01*
X328817Y180195D01*
X328779Y180135D01*
X328766Y180084D01*
X328744Y180037D01*
X328736Y179966D01*
X328719Y179896D01*
X328723Y179844D01*
X328717Y179793D01*
X328732Y179722D01*
X328738Y179651D01*
X328758Y179603D01*
X328769Y179552D01*
X328806Y179491D01*
X328834Y179425D01*
X328879Y179369D01*
X328895Y179341D01*
X328913Y179326D01*
X328939Y179294D01*
X332995Y175238D01*
X332995Y167662D01*
X327638Y162305D01*
X320062Y162305D01*
G37*
%LPD*%
G36*
X214728Y40401D02*
X214728Y40401D01*
X214818Y40409D01*
X214848Y40421D01*
X214880Y40426D01*
X214961Y40469D01*
X215045Y40505D01*
X215077Y40531D01*
X215098Y40542D01*
X215120Y40565D01*
X215176Y40610D01*
X219740Y45174D01*
X219793Y45248D01*
X219853Y45318D01*
X219865Y45348D01*
X219884Y45374D01*
X219911Y45461D01*
X219945Y45546D01*
X219949Y45587D01*
X219956Y45609D01*
X219955Y45641D01*
X219963Y45713D01*
X219963Y70554D01*
X234246Y84837D01*
X246387Y84837D01*
X246478Y84851D01*
X246568Y84859D01*
X246598Y84871D01*
X246630Y84876D01*
X246711Y84919D01*
X246795Y84955D01*
X246827Y84981D01*
X246848Y84992D01*
X246870Y85015D01*
X246926Y85060D01*
X250054Y88188D01*
X250107Y88262D01*
X250167Y88332D01*
X250179Y88362D01*
X250198Y88388D01*
X250225Y88475D01*
X250259Y88560D01*
X250263Y88601D01*
X250270Y88623D01*
X250269Y88655D01*
X250277Y88727D01*
X250277Y97310D01*
X250274Y97330D01*
X250276Y97349D01*
X250254Y97451D01*
X250238Y97553D01*
X250228Y97570D01*
X250224Y97590D01*
X250171Y97679D01*
X250122Y97770D01*
X250108Y97784D01*
X250098Y97801D01*
X250019Y97868D01*
X249944Y97940D01*
X249926Y97948D01*
X249911Y97961D01*
X249815Y98000D01*
X249721Y98043D01*
X249701Y98045D01*
X249683Y98053D01*
X249516Y98071D01*
X245662Y98071D01*
X242851Y100882D01*
X242851Y104858D01*
X245662Y107669D01*
X247396Y107669D01*
X247416Y107672D01*
X247435Y107670D01*
X247537Y107692D01*
X247639Y107708D01*
X247656Y107718D01*
X247676Y107722D01*
X247765Y107775D01*
X247856Y107824D01*
X247870Y107838D01*
X247887Y107848D01*
X247954Y107927D01*
X248026Y108002D01*
X248034Y108020D01*
X248047Y108035D01*
X248086Y108131D01*
X248129Y108225D01*
X248131Y108245D01*
X248139Y108263D01*
X248157Y108430D01*
X248157Y122174D01*
X248154Y122194D01*
X248156Y122213D01*
X248134Y122315D01*
X248118Y122417D01*
X248108Y122434D01*
X248104Y122454D01*
X248051Y122543D01*
X248002Y122634D01*
X247988Y122648D01*
X247978Y122665D01*
X247899Y122732D01*
X247824Y122804D01*
X247806Y122812D01*
X247791Y122825D01*
X247695Y122864D01*
X247601Y122907D01*
X247581Y122909D01*
X247563Y122917D01*
X247396Y122935D01*
X245875Y122935D01*
X244982Y123828D01*
X244982Y129177D01*
X244971Y129248D01*
X244969Y129320D01*
X244951Y129369D01*
X244943Y129420D01*
X244909Y129484D01*
X244884Y129551D01*
X244852Y129592D01*
X244827Y129638D01*
X244775Y129687D01*
X244731Y129743D01*
X244687Y129771D01*
X244649Y129807D01*
X244584Y129837D01*
X244524Y129876D01*
X244473Y129889D01*
X244426Y129911D01*
X244355Y129919D01*
X244285Y129936D01*
X244233Y129932D01*
X244182Y129938D01*
X244111Y129922D01*
X244040Y129917D01*
X243992Y129897D01*
X243941Y129885D01*
X243880Y129849D01*
X243814Y129821D01*
X243758Y129776D01*
X243730Y129759D01*
X243715Y129741D01*
X243683Y129716D01*
X242320Y128353D01*
X242309Y128337D01*
X242293Y128325D01*
X242237Y128238D01*
X242177Y128154D01*
X242171Y128134D01*
X242160Y128118D01*
X242135Y128018D01*
X242104Y127918D01*
X242105Y127899D01*
X242100Y127879D01*
X242108Y127776D01*
X242111Y127673D01*
X242118Y127654D01*
X242119Y127634D01*
X242160Y127539D01*
X242195Y127442D01*
X242208Y127426D01*
X242215Y127408D01*
X242320Y127277D01*
X242331Y127266D01*
X242331Y123290D01*
X239858Y120817D01*
X239846Y120801D01*
X239831Y120788D01*
X239775Y120701D01*
X239714Y120617D01*
X239709Y120598D01*
X239698Y120581D01*
X239673Y120481D01*
X239642Y120382D01*
X239643Y120362D01*
X239638Y120343D01*
X239646Y120240D01*
X239648Y120136D01*
X239655Y120117D01*
X239657Y120098D01*
X239697Y120003D01*
X239733Y119905D01*
X239745Y119890D01*
X239753Y119871D01*
X239858Y119740D01*
X242041Y117558D01*
X242041Y113582D01*
X239230Y110771D01*
X235254Y110771D01*
X233884Y112141D01*
X233826Y112183D01*
X233774Y112233D01*
X233727Y112254D01*
X233685Y112285D01*
X233616Y112306D01*
X233551Y112336D01*
X233499Y112342D01*
X233449Y112357D01*
X233378Y112355D01*
X233307Y112363D01*
X233256Y112352D01*
X233204Y112351D01*
X233136Y112326D01*
X233066Y112311D01*
X233021Y112284D01*
X232973Y112266D01*
X232917Y112222D01*
X232855Y112185D01*
X232821Y112145D01*
X232781Y112113D01*
X232742Y112052D01*
X232695Y111998D01*
X232676Y111950D01*
X232648Y111906D01*
X232630Y111836D01*
X232603Y111770D01*
X232595Y111698D01*
X232587Y111667D01*
X232589Y111644D01*
X232585Y111603D01*
X232585Y104748D01*
X231692Y103855D01*
X220428Y103855D01*
X219535Y104748D01*
X219535Y117012D01*
X220428Y117905D01*
X231815Y117905D01*
X231888Y117875D01*
X231929Y117871D01*
X231951Y117864D01*
X231983Y117865D01*
X232055Y117857D01*
X232427Y117857D01*
X232517Y117871D01*
X232608Y117879D01*
X232638Y117891D01*
X232670Y117896D01*
X232750Y117939D01*
X232834Y117975D01*
X232866Y118001D01*
X232887Y118012D01*
X232909Y118035D01*
X232965Y118080D01*
X234917Y120031D01*
X234928Y120047D01*
X234944Y120060D01*
X235000Y120147D01*
X235060Y120231D01*
X235066Y120250D01*
X235077Y120267D01*
X235102Y120367D01*
X235133Y120466D01*
X235132Y120486D01*
X235137Y120505D01*
X235129Y120608D01*
X235126Y120712D01*
X235119Y120730D01*
X235118Y120750D01*
X235077Y120845D01*
X235042Y120943D01*
X235029Y120958D01*
X235021Y120977D01*
X234917Y121108D01*
X234567Y121457D01*
X234471Y121526D01*
X234375Y121597D01*
X234371Y121598D01*
X234368Y121600D01*
X234254Y121635D01*
X234141Y121672D01*
X234137Y121672D01*
X234133Y121673D01*
X234014Y121670D01*
X233895Y121668D01*
X233891Y121667D01*
X233887Y121666D01*
X233776Y121626D01*
X233663Y121586D01*
X233660Y121583D01*
X233656Y121582D01*
X233563Y121508D01*
X233469Y121434D01*
X233466Y121430D01*
X233464Y121428D01*
X233456Y121417D01*
X233370Y121299D01*
X233093Y120820D01*
X232620Y120347D01*
X232041Y120012D01*
X231394Y119839D01*
X227583Y119839D01*
X227583Y127118D01*
X227580Y127138D01*
X227582Y127157D01*
X227560Y127259D01*
X227543Y127361D01*
X227534Y127378D01*
X227530Y127398D01*
X227477Y127487D01*
X227428Y127578D01*
X227414Y127592D01*
X227404Y127609D01*
X227325Y127676D01*
X227250Y127747D01*
X227232Y127756D01*
X227217Y127769D01*
X227121Y127808D01*
X227027Y127851D01*
X227007Y127853D01*
X226989Y127861D01*
X226822Y127879D01*
X226059Y127879D01*
X226059Y127881D01*
X226822Y127881D01*
X226842Y127884D01*
X226861Y127882D01*
X226963Y127904D01*
X227065Y127921D01*
X227082Y127930D01*
X227102Y127934D01*
X227191Y127987D01*
X227282Y128036D01*
X227296Y128050D01*
X227313Y128060D01*
X227380Y128139D01*
X227451Y128214D01*
X227460Y128232D01*
X227473Y128247D01*
X227512Y128343D01*
X227555Y128437D01*
X227557Y128457D01*
X227565Y128475D01*
X227583Y128642D01*
X227583Y135921D01*
X231394Y135921D01*
X231451Y135906D01*
X231518Y135899D01*
X231584Y135882D01*
X231640Y135887D01*
X231696Y135881D01*
X231762Y135896D01*
X231829Y135902D01*
X231881Y135924D01*
X231935Y135936D01*
X231993Y135971D01*
X232055Y135998D01*
X232117Y136047D01*
X232145Y136064D01*
X232159Y136081D01*
X232186Y136103D01*
X233710Y137627D01*
X233763Y137701D01*
X233823Y137770D01*
X233835Y137800D01*
X233854Y137826D01*
X233881Y137913D01*
X233915Y137998D01*
X233919Y138039D01*
X233926Y138062D01*
X233925Y138094D01*
X233933Y138165D01*
X233933Y150105D01*
X233922Y150176D01*
X233920Y150248D01*
X233902Y150297D01*
X233894Y150348D01*
X233860Y150411D01*
X233835Y150479D01*
X233803Y150519D01*
X233778Y150565D01*
X233727Y150615D01*
X233682Y150671D01*
X233638Y150699D01*
X233600Y150735D01*
X233535Y150765D01*
X233475Y150804D01*
X233424Y150816D01*
X233377Y150838D01*
X233306Y150846D01*
X233236Y150864D01*
X233184Y150860D01*
X233133Y150865D01*
X233062Y150850D01*
X232991Y150845D01*
X232943Y150824D01*
X232892Y150813D01*
X232831Y150776D01*
X232765Y150748D01*
X232709Y150704D01*
X232681Y150687D01*
X232666Y150669D01*
X232634Y150643D01*
X218628Y136638D01*
X218614Y136618D01*
X218595Y136603D01*
X218542Y136519D01*
X218485Y136438D01*
X218477Y136415D01*
X218465Y136395D01*
X218441Y136298D01*
X218412Y136203D01*
X218413Y136179D01*
X218407Y136155D01*
X218416Y136057D01*
X218417Y136029D01*
X218405Y136032D01*
X218306Y136024D01*
X218206Y136023D01*
X218183Y136015D01*
X218160Y136013D01*
X218068Y135974D01*
X217974Y135941D01*
X217955Y135926D01*
X217933Y135917D01*
X217802Y135812D01*
X215714Y133724D01*
X214567Y132576D01*
X214541Y132541D01*
X214509Y132511D01*
X214470Y132441D01*
X214423Y132377D01*
X214410Y132335D01*
X214389Y132296D01*
X214374Y132218D01*
X214351Y132142D01*
X214352Y132098D01*
X214344Y132055D01*
X214355Y131976D01*
X214357Y131896D01*
X214372Y131854D01*
X214378Y131811D01*
X214437Y131678D01*
X214442Y131665D01*
X214444Y131662D01*
X214446Y131657D01*
X214625Y131347D01*
X214798Y130700D01*
X214798Y129457D01*
X203462Y129457D01*
X203443Y129454D01*
X203423Y129456D01*
X203339Y129438D01*
X203337Y129439D01*
X203170Y129457D01*
X191834Y129457D01*
X191834Y130700D01*
X192007Y131347D01*
X192341Y131926D01*
X192627Y132211D01*
X192674Y132277D01*
X192683Y132286D01*
X192685Y132291D01*
X192739Y132355D01*
X192751Y132385D01*
X192770Y132411D01*
X192797Y132498D01*
X192831Y132583D01*
X192836Y132624D01*
X192843Y132646D01*
X192842Y132678D01*
X192850Y132750D01*
X192850Y145502D01*
X192847Y145522D01*
X192849Y145541D01*
X192827Y145643D01*
X192810Y145745D01*
X192801Y145762D01*
X192796Y145782D01*
X192743Y145871D01*
X192695Y145962D01*
X192681Y145976D01*
X192670Y145993D01*
X192592Y146060D01*
X192517Y146132D01*
X192499Y146140D01*
X192483Y146153D01*
X192387Y146192D01*
X192294Y146235D01*
X192274Y146237D01*
X192255Y146245D01*
X192089Y146263D01*
X190181Y146263D01*
X190090Y146249D01*
X190000Y146241D01*
X189970Y146229D01*
X189938Y146224D01*
X189857Y146181D01*
X189773Y146145D01*
X189741Y146119D01*
X189720Y146108D01*
X189698Y146085D01*
X189642Y146040D01*
X187619Y144017D01*
X183644Y144017D01*
X180833Y146828D01*
X180833Y149091D01*
X180821Y149162D01*
X180819Y149234D01*
X180801Y149283D01*
X180793Y149334D01*
X180760Y149397D01*
X180735Y149465D01*
X180702Y149505D01*
X180678Y149551D01*
X180626Y149601D01*
X180581Y149657D01*
X180537Y149685D01*
X180500Y149721D01*
X180435Y149751D01*
X180374Y149790D01*
X180324Y149802D01*
X180277Y149824D01*
X180205Y149832D01*
X180136Y149850D01*
X180084Y149846D01*
X180032Y149851D01*
X179962Y149836D01*
X179891Y149831D01*
X179843Y149810D01*
X179792Y149799D01*
X179730Y149762D01*
X179664Y149734D01*
X179608Y149689D01*
X179581Y149673D01*
X179565Y149655D01*
X179533Y149629D01*
X151060Y121156D01*
X151007Y121082D01*
X150947Y121012D01*
X150935Y120982D01*
X150916Y120956D01*
X150889Y120869D01*
X150855Y120784D01*
X150851Y120743D01*
X150844Y120721D01*
X150845Y120689D01*
X150837Y120617D01*
X150837Y101027D01*
X150840Y101008D01*
X150838Y100988D01*
X150860Y100887D01*
X150876Y100785D01*
X150886Y100767D01*
X150890Y100748D01*
X150943Y100659D01*
X150992Y100567D01*
X151006Y100554D01*
X151016Y100537D01*
X151095Y100469D01*
X151170Y100398D01*
X151188Y100390D01*
X151203Y100377D01*
X151299Y100338D01*
X151393Y100294D01*
X151413Y100292D01*
X151431Y100285D01*
X151598Y100266D01*
X152643Y100266D01*
X152643Y88930D01*
X152646Y88911D01*
X152644Y88891D01*
X152662Y88807D01*
X152661Y88805D01*
X152643Y88638D01*
X152643Y77302D01*
X151400Y77302D01*
X150753Y77475D01*
X150174Y77809D01*
X149889Y78095D01*
X149815Y78148D01*
X149745Y78207D01*
X149715Y78220D01*
X149689Y78238D01*
X149602Y78265D01*
X149517Y78299D01*
X149476Y78304D01*
X149454Y78311D01*
X149422Y78310D01*
X149350Y78318D01*
X146464Y78318D01*
X146393Y78306D01*
X146322Y78304D01*
X146273Y78286D01*
X146221Y78278D01*
X146158Y78244D01*
X146091Y78220D01*
X146050Y78187D01*
X146004Y78163D01*
X145954Y78111D01*
X145898Y78066D01*
X145870Y78022D01*
X145834Y77985D01*
X145804Y77920D01*
X145765Y77859D01*
X145753Y77809D01*
X145731Y77762D01*
X145723Y77690D01*
X145705Y77621D01*
X145709Y77569D01*
X145704Y77517D01*
X145719Y77447D01*
X145725Y77376D01*
X145745Y77328D01*
X145756Y77277D01*
X145793Y77215D01*
X145821Y77149D01*
X145866Y77093D01*
X145882Y77066D01*
X145900Y77050D01*
X145926Y77018D01*
X147290Y75654D01*
X150797Y72147D01*
X150797Y66896D01*
X150800Y66876D01*
X150798Y66857D01*
X150820Y66755D01*
X150836Y66653D01*
X150846Y66636D01*
X150850Y66616D01*
X150903Y66527D01*
X150952Y66436D01*
X150966Y66422D01*
X150976Y66405D01*
X151055Y66338D01*
X151130Y66266D01*
X151148Y66258D01*
X151163Y66245D01*
X151259Y66206D01*
X151353Y66163D01*
X151373Y66161D01*
X151391Y66153D01*
X151558Y66135D01*
X152142Y66135D01*
X152972Y65305D01*
X152988Y65293D01*
X153000Y65277D01*
X153088Y65221D01*
X153171Y65161D01*
X153190Y65155D01*
X153207Y65144D01*
X153308Y65119D01*
X153407Y65089D01*
X153426Y65089D01*
X153446Y65084D01*
X153549Y65092D01*
X153652Y65095D01*
X153671Y65102D01*
X153691Y65103D01*
X153786Y65144D01*
X153883Y65179D01*
X153899Y65192D01*
X153917Y65200D01*
X154048Y65305D01*
X154878Y66135D01*
X156181Y66135D01*
X156252Y66146D01*
X156323Y66148D01*
X156372Y66166D01*
X156424Y66174D01*
X156487Y66208D01*
X156554Y66233D01*
X156595Y66265D01*
X156641Y66290D01*
X156691Y66342D01*
X156747Y66386D01*
X156775Y66430D01*
X156811Y66468D01*
X156841Y66533D01*
X156880Y66593D01*
X156892Y66644D01*
X156914Y66691D01*
X156922Y66762D01*
X156940Y66832D01*
X156936Y66884D01*
X156941Y66935D01*
X156926Y67006D01*
X156920Y67077D01*
X156900Y67125D01*
X156889Y67176D01*
X156852Y67237D01*
X156824Y67303D01*
X156779Y67359D01*
X156763Y67387D01*
X156745Y67402D01*
X156719Y67434D01*
X153751Y70402D01*
X153751Y74378D01*
X155376Y76002D01*
X155418Y76060D01*
X155467Y76112D01*
X155489Y76160D01*
X155519Y76202D01*
X155540Y76270D01*
X155571Y76336D01*
X155576Y76387D01*
X155592Y76437D01*
X155590Y76509D01*
X155598Y76580D01*
X155587Y76631D01*
X155585Y76683D01*
X155561Y76750D01*
X155546Y76820D01*
X155519Y76865D01*
X155501Y76914D01*
X155456Y76970D01*
X155419Y77031D01*
X155380Y77065D01*
X155347Y77106D01*
X155287Y77145D01*
X155232Y77191D01*
X155184Y77211D01*
X155140Y77239D01*
X155071Y77256D01*
X155004Y77283D01*
X154933Y77291D01*
X154902Y77299D01*
X154878Y77297D01*
X154838Y77302D01*
X154457Y77302D01*
X154457Y88638D01*
X154454Y88657D01*
X154456Y88677D01*
X154438Y88761D01*
X154439Y88763D01*
X154457Y88930D01*
X154457Y100266D01*
X155700Y100266D01*
X156347Y100093D01*
X156926Y99759D01*
X157211Y99473D01*
X157285Y99420D01*
X157355Y99361D01*
X157385Y99348D01*
X157411Y99330D01*
X157498Y99303D01*
X157583Y99269D01*
X157624Y99264D01*
X157646Y99257D01*
X157678Y99258D01*
X157750Y99250D01*
X160502Y99250D01*
X160522Y99253D01*
X160541Y99251D01*
X160643Y99273D01*
X160745Y99290D01*
X160762Y99299D01*
X160782Y99304D01*
X160871Y99357D01*
X160962Y99405D01*
X160976Y99419D01*
X160993Y99430D01*
X161060Y99508D01*
X161132Y99583D01*
X161140Y99601D01*
X161153Y99617D01*
X161192Y99713D01*
X161235Y99806D01*
X161237Y99826D01*
X161245Y99845D01*
X161263Y100011D01*
X161263Y117507D01*
X162618Y118862D01*
X162671Y118936D01*
X162731Y119006D01*
X162743Y119036D01*
X162762Y119062D01*
X162789Y119149D01*
X162823Y119234D01*
X162827Y119275D01*
X162834Y119297D01*
X162833Y119329D01*
X162841Y119401D01*
X162841Y122638D01*
X165652Y125449D01*
X169628Y125449D01*
X172439Y122638D01*
X172439Y120357D01*
X172450Y120286D01*
X172452Y120215D01*
X172470Y120166D01*
X172478Y120114D01*
X172512Y120051D01*
X172537Y119984D01*
X172569Y119943D01*
X172594Y119897D01*
X172646Y119847D01*
X172690Y119791D01*
X172734Y119763D01*
X172772Y119727D01*
X172837Y119697D01*
X172897Y119658D01*
X172948Y119646D01*
X172995Y119624D01*
X173066Y119616D01*
X173136Y119598D01*
X173188Y119602D01*
X173239Y119597D01*
X173310Y119612D01*
X173381Y119618D01*
X173429Y119638D01*
X173480Y119649D01*
X173541Y119686D01*
X173607Y119714D01*
X173663Y119759D01*
X173691Y119775D01*
X173706Y119793D01*
X173738Y119819D01*
X175812Y121893D01*
X179788Y121893D01*
X181862Y119819D01*
X181920Y119777D01*
X181972Y119727D01*
X182019Y119706D01*
X182061Y119675D01*
X182130Y119654D01*
X182195Y119624D01*
X182247Y119618D01*
X182297Y119603D01*
X182368Y119605D01*
X182439Y119597D01*
X182490Y119608D01*
X182542Y119609D01*
X182610Y119634D01*
X182680Y119649D01*
X182725Y119676D01*
X182773Y119694D01*
X182829Y119738D01*
X182891Y119775D01*
X182925Y119815D01*
X182965Y119847D01*
X183004Y119908D01*
X183051Y119962D01*
X183068Y120004D01*
X184317Y121253D01*
X184328Y121269D01*
X184344Y121282D01*
X184400Y121369D01*
X184460Y121453D01*
X184466Y121472D01*
X184477Y121489D01*
X184502Y121589D01*
X184532Y121688D01*
X184532Y121708D01*
X184537Y121727D01*
X184529Y121830D01*
X184526Y121934D01*
X184519Y121952D01*
X184518Y121972D01*
X184477Y122067D01*
X184442Y122165D01*
X184429Y122180D01*
X184421Y122199D01*
X184317Y122330D01*
X183398Y123248D01*
X183324Y123301D01*
X183254Y123361D01*
X183224Y123373D01*
X183198Y123392D01*
X183111Y123419D01*
X183026Y123453D01*
X182985Y123457D01*
X182963Y123464D01*
X182931Y123463D01*
X182859Y123471D01*
X179622Y123471D01*
X176811Y126282D01*
X176811Y130258D01*
X179622Y133069D01*
X183598Y133069D01*
X186409Y130258D01*
X186409Y127021D01*
X186423Y126930D01*
X186431Y126840D01*
X186443Y126810D01*
X186448Y126778D01*
X186491Y126697D01*
X186527Y126613D01*
X186553Y126581D01*
X186564Y126560D01*
X186587Y126538D01*
X186632Y126482D01*
X186934Y126180D01*
X187008Y126127D01*
X187078Y126067D01*
X187108Y126055D01*
X187134Y126036D01*
X187221Y126009D01*
X187306Y125975D01*
X187347Y125971D01*
X187369Y125964D01*
X187401Y125965D01*
X187473Y125957D01*
X191073Y125957D01*
X191092Y125960D01*
X191112Y125958D01*
X191213Y125980D01*
X191315Y125996D01*
X191333Y126006D01*
X191352Y126010D01*
X191441Y126063D01*
X191533Y126112D01*
X191546Y126126D01*
X191563Y126136D01*
X191631Y126215D01*
X191702Y126290D01*
X191710Y126308D01*
X191723Y126323D01*
X191762Y126419D01*
X191806Y126513D01*
X191808Y126533D01*
X191815Y126551D01*
X191834Y126718D01*
X191834Y127643D01*
X203170Y127643D01*
X203189Y127646D01*
X203209Y127644D01*
X203293Y127662D01*
X203295Y127661D01*
X203462Y127643D01*
X214798Y127643D01*
X214798Y126400D01*
X214625Y125753D01*
X214291Y125174D01*
X214005Y124889D01*
X213952Y124815D01*
X213893Y124745D01*
X213880Y124715D01*
X213862Y124689D01*
X213835Y124602D01*
X213825Y124577D01*
X213810Y124546D01*
X213810Y124539D01*
X213801Y124517D01*
X213796Y124476D01*
X213789Y124454D01*
X213790Y124422D01*
X213782Y124350D01*
X213782Y106102D01*
X212889Y105209D01*
X206364Y105209D01*
X206344Y105206D01*
X206325Y105208D01*
X206223Y105186D01*
X206121Y105170D01*
X206104Y105160D01*
X206084Y105156D01*
X205995Y105103D01*
X205904Y105054D01*
X205890Y105040D01*
X205873Y105030D01*
X205806Y104951D01*
X205734Y104876D01*
X205726Y104858D01*
X205713Y104843D01*
X205674Y104747D01*
X205631Y104653D01*
X205629Y104633D01*
X205621Y104615D01*
X205603Y104448D01*
X205603Y103350D01*
X205606Y103330D01*
X205604Y103311D01*
X205626Y103209D01*
X205642Y103107D01*
X205652Y103090D01*
X205656Y103070D01*
X205709Y102981D01*
X205758Y102890D01*
X205772Y102876D01*
X205782Y102859D01*
X205861Y102792D01*
X205936Y102720D01*
X205954Y102712D01*
X205969Y102699D01*
X206065Y102660D01*
X206159Y102617D01*
X206179Y102615D01*
X206197Y102607D01*
X206364Y102589D01*
X207728Y102589D01*
X210539Y99778D01*
X210539Y95802D01*
X207728Y92991D01*
X203752Y92991D01*
X200941Y95802D01*
X200941Y99831D01*
X200950Y99842D01*
X200977Y99929D01*
X201011Y100014D01*
X201015Y100055D01*
X201022Y100078D01*
X201021Y100110D01*
X201029Y100181D01*
X201029Y104448D01*
X201026Y104468D01*
X201028Y104487D01*
X201006Y104589D01*
X200990Y104691D01*
X200980Y104708D01*
X200976Y104728D01*
X200923Y104817D01*
X200874Y104908D01*
X200860Y104922D01*
X200850Y104939D01*
X200771Y105006D01*
X200696Y105078D01*
X200678Y105086D01*
X200663Y105099D01*
X200567Y105138D01*
X200473Y105181D01*
X200453Y105183D01*
X200435Y105191D01*
X200268Y105209D01*
X193548Y105209D01*
X193528Y105206D01*
X193509Y105208D01*
X193407Y105186D01*
X193305Y105170D01*
X193288Y105160D01*
X193268Y105156D01*
X193179Y105103D01*
X193088Y105054D01*
X193074Y105040D01*
X193057Y105030D01*
X192990Y104951D01*
X192918Y104876D01*
X192910Y104858D01*
X192897Y104843D01*
X192858Y104747D01*
X192815Y104653D01*
X192813Y104633D01*
X192805Y104615D01*
X192787Y104448D01*
X192787Y98270D01*
X192790Y98250D01*
X192788Y98231D01*
X192810Y98129D01*
X192826Y98027D01*
X192836Y98010D01*
X192840Y97990D01*
X192893Y97901D01*
X192942Y97810D01*
X192956Y97796D01*
X192966Y97779D01*
X193045Y97712D01*
X193120Y97640D01*
X193138Y97632D01*
X193153Y97619D01*
X193249Y97580D01*
X193343Y97537D01*
X193363Y97535D01*
X193381Y97527D01*
X193548Y97509D01*
X196298Y97509D01*
X199109Y94698D01*
X199109Y90722D01*
X196298Y87911D01*
X192322Y87911D01*
X189511Y90722D01*
X189511Y93959D01*
X189497Y94049D01*
X189489Y94140D01*
X189477Y94170D01*
X189472Y94202D01*
X189429Y94283D01*
X189393Y94367D01*
X189367Y94399D01*
X189356Y94420D01*
X189333Y94442D01*
X189288Y94498D01*
X188190Y95596D01*
X188132Y95638D01*
X188080Y95687D01*
X188033Y95709D01*
X187991Y95739D01*
X187922Y95760D01*
X187857Y95791D01*
X187805Y95796D01*
X187755Y95812D01*
X187684Y95810D01*
X187613Y95818D01*
X187562Y95807D01*
X187510Y95805D01*
X187442Y95781D01*
X187372Y95766D01*
X187327Y95739D01*
X187279Y95721D01*
X187223Y95676D01*
X187161Y95639D01*
X187127Y95600D01*
X187087Y95567D01*
X187048Y95507D01*
X187001Y95452D01*
X186982Y95404D01*
X186954Y95360D01*
X186936Y95291D01*
X186909Y95224D01*
X186901Y95153D01*
X186893Y95122D01*
X186895Y95098D01*
X186891Y95058D01*
X186891Y79211D01*
X186060Y78380D01*
X186007Y78306D01*
X185947Y78236D01*
X185935Y78206D01*
X185916Y78180D01*
X185889Y78093D01*
X185855Y78008D01*
X185851Y77967D01*
X185844Y77945D01*
X185845Y77913D01*
X185837Y77842D01*
X185837Y77205D01*
X185851Y77115D01*
X185859Y77024D01*
X185871Y76994D01*
X185876Y76962D01*
X185919Y76882D01*
X185955Y76798D01*
X185981Y76766D01*
X185992Y76745D01*
X186015Y76723D01*
X186060Y76667D01*
X188349Y74378D01*
X188349Y70402D01*
X186397Y68450D01*
X186355Y68392D01*
X186305Y68340D01*
X186284Y68293D01*
X186253Y68251D01*
X186232Y68182D01*
X186202Y68117D01*
X186196Y68065D01*
X186181Y68015D01*
X186183Y67944D01*
X186175Y67873D01*
X186186Y67822D01*
X186187Y67770D01*
X186212Y67702D01*
X186227Y67632D01*
X186254Y67587D01*
X186272Y67539D01*
X186316Y67483D01*
X186353Y67421D01*
X186393Y67387D01*
X186425Y67347D01*
X186486Y67308D01*
X186540Y67261D01*
X186588Y67242D01*
X186632Y67214D01*
X186702Y67196D01*
X186768Y67169D01*
X186840Y67161D01*
X186871Y67153D01*
X186894Y67155D01*
X186935Y67151D01*
X187011Y67151D01*
X187011Y55348D01*
X187014Y55329D01*
X187012Y55309D01*
X187034Y55207D01*
X187050Y55105D01*
X187060Y55088D01*
X187064Y55068D01*
X187117Y54979D01*
X187166Y54888D01*
X187180Y54874D01*
X187190Y54857D01*
X187269Y54790D01*
X187344Y54719D01*
X187362Y54710D01*
X187377Y54697D01*
X187473Y54659D01*
X187567Y54615D01*
X187587Y54613D01*
X187605Y54606D01*
X187529Y54593D01*
X187512Y54584D01*
X187492Y54580D01*
X187403Y54527D01*
X187312Y54478D01*
X187298Y54464D01*
X187281Y54454D01*
X187214Y54375D01*
X187142Y54300D01*
X187134Y54282D01*
X187121Y54267D01*
X187082Y54170D01*
X187039Y54077D01*
X187037Y54057D01*
X187029Y54039D01*
X187011Y53872D01*
X187011Y42069D01*
X185176Y42069D01*
X184529Y42242D01*
X183950Y42577D01*
X183477Y43050D01*
X183471Y43060D01*
X183396Y43151D01*
X183322Y43245D01*
X183318Y43247D01*
X183315Y43250D01*
X183216Y43313D01*
X183115Y43378D01*
X183111Y43379D01*
X183107Y43381D01*
X182992Y43409D01*
X182876Y43438D01*
X182872Y43437D01*
X182868Y43438D01*
X182749Y43428D01*
X182631Y43419D01*
X182627Y43417D01*
X182623Y43417D01*
X182515Y43369D01*
X182405Y43322D01*
X182401Y43319D01*
X182398Y43318D01*
X182388Y43309D01*
X182274Y43217D01*
X182142Y43085D01*
X181558Y43085D01*
X181538Y43082D01*
X181519Y43084D01*
X181417Y43062D01*
X181315Y43046D01*
X181298Y43036D01*
X181278Y43032D01*
X181189Y42979D01*
X181098Y42930D01*
X181084Y42916D01*
X181067Y42906D01*
X181000Y42827D01*
X180928Y42752D01*
X180920Y42734D01*
X180907Y42719D01*
X180868Y42623D01*
X180825Y42529D01*
X180823Y42509D01*
X180815Y42491D01*
X180797Y42324D01*
X180797Y41828D01*
X180811Y41737D01*
X180819Y41647D01*
X180831Y41617D01*
X180836Y41585D01*
X180879Y41504D01*
X180915Y41420D01*
X180941Y41388D01*
X180952Y41367D01*
X180975Y41345D01*
X181020Y41289D01*
X181699Y40610D01*
X181773Y40557D01*
X181843Y40497D01*
X181873Y40485D01*
X181899Y40466D01*
X181986Y40439D01*
X182071Y40405D01*
X182112Y40401D01*
X182134Y40394D01*
X182166Y40395D01*
X182238Y40387D01*
X214637Y40387D01*
X214728Y40401D01*
G37*
G36*
X105592Y104812D02*
X105592Y104812D01*
X105644Y104813D01*
X105712Y104838D01*
X105782Y104853D01*
X105826Y104880D01*
X105875Y104898D01*
X105931Y104942D01*
X105993Y104979D01*
X106027Y105019D01*
X106067Y105051D01*
X106106Y105112D01*
X106153Y105166D01*
X106172Y105214D01*
X106200Y105258D01*
X106218Y105328D01*
X106245Y105394D01*
X106253Y105466D01*
X106261Y105497D01*
X106259Y105520D01*
X106263Y105561D01*
X106263Y136825D01*
X106249Y136915D01*
X106241Y137006D01*
X106229Y137036D01*
X106224Y137068D01*
X106181Y137148D01*
X106145Y137232D01*
X106119Y137264D01*
X106108Y137285D01*
X106085Y137307D01*
X106040Y137363D01*
X105691Y137712D01*
X105691Y141688D01*
X108502Y144499D01*
X112478Y144499D01*
X115289Y141688D01*
X115289Y140680D01*
X115300Y140610D01*
X115302Y140538D01*
X115320Y140489D01*
X115328Y140438D01*
X115362Y140374D01*
X115387Y140307D01*
X115419Y140266D01*
X115444Y140220D01*
X115496Y140171D01*
X115540Y140115D01*
X115584Y140087D01*
X115622Y140051D01*
X115687Y140021D01*
X115747Y139982D01*
X115798Y139969D01*
X115845Y139947D01*
X115916Y139939D01*
X115986Y139922D01*
X116038Y139926D01*
X116089Y139920D01*
X116160Y139935D01*
X116231Y139941D01*
X116279Y139961D01*
X116330Y139972D01*
X116391Y140009D01*
X116457Y140037D01*
X116513Y140082D01*
X116541Y140099D01*
X116556Y140116D01*
X116588Y140142D01*
X155768Y179322D01*
X155810Y179380D01*
X155859Y179432D01*
X155881Y179479D01*
X155911Y179521D01*
X155932Y179590D01*
X155963Y179655D01*
X155968Y179707D01*
X155984Y179757D01*
X155982Y179828D01*
X155990Y179899D01*
X155979Y179950D01*
X155977Y180002D01*
X155953Y180070D01*
X155938Y180140D01*
X155911Y180184D01*
X155893Y180233D01*
X155848Y180289D01*
X155811Y180351D01*
X155772Y180385D01*
X155739Y180425D01*
X155679Y180464D01*
X155624Y180511D01*
X155576Y180530D01*
X155532Y180558D01*
X155463Y180576D01*
X155396Y180603D01*
X155325Y180611D01*
X155294Y180619D01*
X155270Y180617D01*
X155230Y180621D01*
X151682Y180621D01*
X148871Y183432D01*
X148871Y187408D01*
X151682Y190219D01*
X154920Y190219D01*
X155010Y190233D01*
X155101Y190241D01*
X155130Y190253D01*
X155162Y190258D01*
X155243Y190301D01*
X155327Y190337D01*
X155359Y190363D01*
X155380Y190374D01*
X155402Y190397D01*
X155458Y190442D01*
X155550Y190534D01*
X155592Y190592D01*
X155642Y190644D01*
X155663Y190692D01*
X155694Y190734D01*
X155715Y190802D01*
X155745Y190868D01*
X155751Y190919D01*
X155766Y190969D01*
X155764Y191041D01*
X155772Y191112D01*
X155761Y191163D01*
X155760Y191215D01*
X155735Y191282D01*
X155720Y191352D01*
X155693Y191397D01*
X155675Y191446D01*
X155631Y191502D01*
X155594Y191563D01*
X155554Y191597D01*
X155522Y191638D01*
X155461Y191677D01*
X155407Y191723D01*
X155359Y191743D01*
X155315Y191771D01*
X155245Y191788D01*
X155179Y191815D01*
X155107Y191823D01*
X155076Y191831D01*
X155053Y191829D01*
X155012Y191834D01*
X154457Y191834D01*
X154457Y203170D01*
X154454Y203189D01*
X154456Y203209D01*
X154438Y203293D01*
X154439Y203295D01*
X154457Y203462D01*
X154457Y214798D01*
X155700Y214798D01*
X156347Y214625D01*
X156926Y214291D01*
X157211Y214005D01*
X157285Y213952D01*
X157355Y213893D01*
X157385Y213880D01*
X157411Y213862D01*
X157498Y213835D01*
X157583Y213801D01*
X157624Y213796D01*
X157646Y213789D01*
X157678Y213790D01*
X157750Y213782D01*
X160502Y213782D01*
X160522Y213785D01*
X160541Y213783D01*
X160643Y213805D01*
X160745Y213822D01*
X160762Y213831D01*
X160782Y213836D01*
X160871Y213889D01*
X160962Y213937D01*
X160976Y213951D01*
X160993Y213962D01*
X161060Y214040D01*
X161132Y214115D01*
X161140Y214133D01*
X161153Y214149D01*
X161192Y214245D01*
X161235Y214338D01*
X161237Y214358D01*
X161245Y214377D01*
X161263Y214543D01*
X161263Y216188D01*
X161249Y216278D01*
X161241Y216369D01*
X161229Y216398D01*
X161224Y216430D01*
X161181Y216511D01*
X161145Y216595D01*
X161119Y216627D01*
X161108Y216648D01*
X161085Y216670D01*
X161040Y216726D01*
X160538Y217228D01*
X160464Y217281D01*
X160394Y217341D01*
X160364Y217353D01*
X160338Y217372D01*
X160251Y217399D01*
X160166Y217433D01*
X160125Y217437D01*
X160103Y217444D01*
X160071Y217443D01*
X160000Y217451D01*
X156762Y217451D01*
X153951Y220262D01*
X153951Y224238D01*
X156762Y227049D01*
X160738Y227049D01*
X163549Y224238D01*
X163549Y221000D01*
X163551Y220988D01*
X163550Y220980D01*
X163559Y220937D01*
X163563Y220910D01*
X163571Y220819D01*
X163583Y220790D01*
X163588Y220758D01*
X163631Y220677D01*
X163667Y220593D01*
X163693Y220561D01*
X163704Y220540D01*
X163727Y220518D01*
X163772Y220462D01*
X164274Y219960D01*
X164964Y219270D01*
X165022Y219228D01*
X165074Y219179D01*
X165121Y219157D01*
X165163Y219127D01*
X165232Y219106D01*
X165297Y219075D01*
X165349Y219070D01*
X165399Y219054D01*
X165470Y219056D01*
X165541Y219048D01*
X165592Y219059D01*
X165644Y219061D01*
X165712Y219085D01*
X165782Y219100D01*
X165827Y219127D01*
X165875Y219145D01*
X165931Y219190D01*
X165993Y219227D01*
X166027Y219266D01*
X166067Y219299D01*
X166106Y219359D01*
X166153Y219414D01*
X166172Y219462D01*
X166200Y219506D01*
X166218Y219575D01*
X166245Y219642D01*
X166253Y219713D01*
X166261Y219744D01*
X166259Y219768D01*
X166263Y219808D01*
X166263Y238547D01*
X166261Y238559D01*
X166262Y238568D01*
X166253Y238611D01*
X166249Y238637D01*
X166241Y238728D01*
X166229Y238758D01*
X166224Y238790D01*
X166181Y238871D01*
X166145Y238955D01*
X166119Y238987D01*
X166108Y239007D01*
X166085Y239030D01*
X166040Y239086D01*
X152136Y252990D01*
X152078Y253032D01*
X152026Y253081D01*
X151979Y253103D01*
X151937Y253133D01*
X151868Y253154D01*
X151803Y253185D01*
X151751Y253190D01*
X151701Y253206D01*
X151630Y253204D01*
X151559Y253212D01*
X151508Y253201D01*
X151456Y253199D01*
X151388Y253175D01*
X151318Y253159D01*
X151273Y253133D01*
X151225Y253115D01*
X151169Y253070D01*
X151107Y253033D01*
X151073Y252994D01*
X151033Y252961D01*
X150994Y252901D01*
X150947Y252846D01*
X150928Y252798D01*
X150900Y252754D01*
X150882Y252685D01*
X150855Y252618D01*
X150847Y252547D01*
X150839Y252516D01*
X150841Y252492D01*
X150837Y252451D01*
X150837Y215559D01*
X150840Y215540D01*
X150838Y215520D01*
X150860Y215419D01*
X150876Y215317D01*
X150886Y215299D01*
X150890Y215280D01*
X150943Y215191D01*
X150992Y215099D01*
X151006Y215086D01*
X151016Y215069D01*
X151095Y215001D01*
X151170Y214930D01*
X151188Y214922D01*
X151203Y214909D01*
X151299Y214870D01*
X151393Y214826D01*
X151413Y214824D01*
X151431Y214817D01*
X151598Y214798D01*
X152643Y214798D01*
X152643Y203462D01*
X152646Y203443D01*
X152644Y203423D01*
X152662Y203339D01*
X152661Y203337D01*
X152643Y203170D01*
X152643Y191834D01*
X151400Y191834D01*
X150753Y192007D01*
X150174Y192341D01*
X149889Y192627D01*
X149815Y192680D01*
X149745Y192739D01*
X149715Y192752D01*
X149689Y192770D01*
X149602Y192797D01*
X149517Y192831D01*
X149476Y192836D01*
X149454Y192843D01*
X149422Y192842D01*
X149350Y192850D01*
X107167Y192850D01*
X107097Y192838D01*
X107025Y192836D01*
X106976Y192818D01*
X106925Y192810D01*
X106861Y192777D01*
X106794Y192752D01*
X106753Y192719D01*
X106707Y192695D01*
X106658Y192643D01*
X106602Y192598D01*
X106574Y192554D01*
X106538Y192517D01*
X106508Y192452D01*
X106469Y192391D01*
X106456Y192341D01*
X106434Y192294D01*
X106426Y192222D01*
X106409Y192153D01*
X106413Y192101D01*
X106407Y192049D01*
X106422Y191979D01*
X106428Y191908D01*
X106448Y191860D01*
X106459Y191809D01*
X106496Y191747D01*
X106524Y191681D01*
X106569Y191625D01*
X106586Y191598D01*
X106603Y191582D01*
X106629Y191550D01*
X106832Y191348D01*
X108394Y189785D01*
X108394Y170936D01*
X99473Y162015D01*
X99420Y161941D01*
X99361Y161871D01*
X99348Y161841D01*
X99330Y161815D01*
X99303Y161728D01*
X99269Y161643D01*
X99264Y161602D01*
X99257Y161580D01*
X99258Y161548D01*
X99250Y161477D01*
X99250Y120623D01*
X99265Y120533D01*
X99272Y120442D01*
X99285Y120413D01*
X99290Y120381D01*
X99333Y120300D01*
X99368Y120216D01*
X99394Y120184D01*
X99405Y120163D01*
X99428Y120141D01*
X99473Y120085D01*
X102324Y117234D01*
X103887Y115672D01*
X103887Y106415D01*
X103901Y106325D01*
X103909Y106234D01*
X103921Y106204D01*
X103926Y106172D01*
X103969Y106092D01*
X104005Y106008D01*
X104031Y105976D01*
X104042Y105955D01*
X104065Y105933D01*
X104110Y105877D01*
X104964Y105023D01*
X105022Y104981D01*
X105074Y104931D01*
X105121Y104909D01*
X105163Y104879D01*
X105232Y104858D01*
X105297Y104828D01*
X105349Y104822D01*
X105399Y104807D01*
X105470Y104809D01*
X105541Y104801D01*
X105592Y104812D01*
G37*
G36*
X130592Y233202D02*
X130592Y233202D01*
X130644Y233203D01*
X130712Y233228D01*
X130782Y233243D01*
X130827Y233269D01*
X130875Y233287D01*
X130931Y233332D01*
X130993Y233369D01*
X131027Y233408D01*
X131067Y233441D01*
X131106Y233501D01*
X131153Y233556D01*
X131172Y233604D01*
X131200Y233648D01*
X131218Y233717D01*
X131222Y233728D01*
X131235Y233756D01*
X131236Y233762D01*
X131245Y233784D01*
X131253Y233855D01*
X131261Y233886D01*
X131259Y233910D01*
X131263Y233951D01*
X131263Y253547D01*
X131249Y253637D01*
X131241Y253728D01*
X131229Y253758D01*
X131224Y253790D01*
X131181Y253871D01*
X131145Y253955D01*
X131119Y253987D01*
X131108Y254007D01*
X131085Y254030D01*
X131040Y254086D01*
X84062Y301064D01*
X84004Y301106D01*
X83952Y301155D01*
X83905Y301177D01*
X83863Y301207D01*
X83794Y301228D01*
X83729Y301259D01*
X83677Y301264D01*
X83627Y301280D01*
X83556Y301278D01*
X83485Y301286D01*
X83434Y301275D01*
X83382Y301273D01*
X83314Y301249D01*
X83244Y301233D01*
X83199Y301207D01*
X83151Y301189D01*
X83095Y301144D01*
X83033Y301107D01*
X82999Y301068D01*
X82959Y301035D01*
X82920Y300975D01*
X82873Y300920D01*
X82854Y300872D01*
X82826Y300828D01*
X82808Y300759D01*
X82781Y300692D01*
X82773Y300621D01*
X82765Y300590D01*
X82767Y300566D01*
X82763Y300525D01*
X82763Y299744D01*
X82747Y299682D01*
X82717Y299584D01*
X82717Y299564D01*
X82712Y299544D01*
X82720Y299441D01*
X82723Y299338D01*
X82730Y299319D01*
X82731Y299299D01*
X82763Y299226D01*
X82763Y294744D01*
X82747Y294682D01*
X82717Y294584D01*
X82717Y294564D01*
X82712Y294544D01*
X82720Y294441D01*
X82723Y294338D01*
X82730Y294319D01*
X82731Y294299D01*
X82763Y294226D01*
X82763Y290864D01*
X82777Y290774D01*
X82785Y290683D01*
X82797Y290653D01*
X82802Y290621D01*
X82845Y290540D01*
X82881Y290456D01*
X82907Y290424D01*
X82918Y290404D01*
X82941Y290381D01*
X82986Y290325D01*
X83271Y290040D01*
X83606Y289461D01*
X83779Y288814D01*
X83779Y287741D01*
X73056Y287741D01*
X62333Y287741D01*
X62333Y288915D01*
X62332Y288924D01*
X62337Y288971D01*
X62336Y288975D01*
X62336Y288979D01*
X62310Y289095D01*
X62285Y289212D01*
X62283Y289215D01*
X62282Y289219D01*
X62220Y289320D01*
X62158Y289423D01*
X62156Y289425D01*
X62154Y289428D01*
X62063Y289505D01*
X61972Y289583D01*
X61968Y289584D01*
X61965Y289587D01*
X61856Y289629D01*
X61743Y289675D01*
X61739Y289675D01*
X61736Y289676D01*
X61724Y289677D01*
X61577Y289693D01*
X60833Y289693D01*
X60742Y289679D01*
X60652Y289671D01*
X60622Y289659D01*
X60590Y289654D01*
X60509Y289611D01*
X60425Y289575D01*
X60393Y289549D01*
X60372Y289538D01*
X60350Y289515D01*
X60294Y289470D01*
X57882Y287058D01*
X57829Y286984D01*
X57769Y286914D01*
X57757Y286884D01*
X57738Y286858D01*
X57711Y286771D01*
X57677Y286686D01*
X57673Y286645D01*
X57666Y286623D01*
X57667Y286591D01*
X57659Y286519D01*
X57659Y282440D01*
X57670Y282370D01*
X57672Y282298D01*
X57690Y282249D01*
X57698Y282198D01*
X57732Y282134D01*
X57757Y282067D01*
X57789Y282026D01*
X57814Y281980D01*
X57866Y281931D01*
X57910Y281875D01*
X57954Y281847D01*
X57992Y281811D01*
X58057Y281781D01*
X58117Y281742D01*
X58168Y281729D01*
X58215Y281707D01*
X58286Y281699D01*
X58356Y281682D01*
X58408Y281686D01*
X58459Y281680D01*
X58530Y281695D01*
X58601Y281701D01*
X58649Y281721D01*
X58700Y281732D01*
X58761Y281769D01*
X58827Y281797D01*
X58883Y281842D01*
X58911Y281859D01*
X58926Y281876D01*
X58958Y281902D01*
X61323Y284267D01*
X61577Y284267D01*
X61694Y284286D01*
X61813Y284304D01*
X61816Y284306D01*
X61819Y284306D01*
X61924Y284362D01*
X62031Y284417D01*
X62034Y284420D01*
X62037Y284422D01*
X62118Y284507D01*
X62202Y284594D01*
X62204Y284597D01*
X62206Y284600D01*
X62256Y284708D01*
X62308Y284816D01*
X62308Y284820D01*
X62310Y284823D01*
X62323Y284941D01*
X62337Y285060D01*
X62337Y285065D01*
X62337Y285067D01*
X62334Y285080D01*
X62333Y285086D01*
X62333Y286219D01*
X73056Y286219D01*
X83779Y286219D01*
X83779Y285145D01*
X83606Y284499D01*
X83271Y283920D01*
X82986Y283635D01*
X82933Y283561D01*
X82873Y283491D01*
X82861Y283461D01*
X82842Y283435D01*
X82815Y283348D01*
X82781Y283263D01*
X82777Y283222D01*
X82770Y283200D01*
X82771Y283168D01*
X82763Y283096D01*
X82763Y279744D01*
X82747Y279682D01*
X82717Y279584D01*
X82717Y279564D01*
X82712Y279544D01*
X82720Y279441D01*
X82723Y279338D01*
X82730Y279319D01*
X82731Y279299D01*
X82763Y279226D01*
X82763Y274744D01*
X82747Y274682D01*
X82717Y274584D01*
X82717Y274564D01*
X82712Y274544D01*
X82720Y274441D01*
X82723Y274338D01*
X82730Y274319D01*
X82731Y274299D01*
X82763Y274226D01*
X82763Y269744D01*
X82747Y269682D01*
X82717Y269584D01*
X82717Y269564D01*
X82712Y269544D01*
X82720Y269441D01*
X82723Y269338D01*
X82730Y269319D01*
X82731Y269299D01*
X82763Y269226D01*
X82763Y269223D01*
X82766Y269203D01*
X82764Y269184D01*
X82786Y269082D01*
X82802Y268980D01*
X82812Y268963D01*
X82816Y268943D01*
X82869Y268854D01*
X82918Y268763D01*
X82932Y268749D01*
X82942Y268732D01*
X83021Y268665D01*
X83096Y268593D01*
X83114Y268585D01*
X83129Y268572D01*
X83225Y268533D01*
X83319Y268490D01*
X83339Y268488D01*
X83357Y268480D01*
X83524Y268462D01*
X94914Y268462D01*
X129274Y234102D01*
X129964Y233412D01*
X130022Y233371D01*
X130074Y233321D01*
X130096Y233311D01*
X130097Y233310D01*
X130106Y233306D01*
X130121Y233299D01*
X130163Y233269D01*
X130232Y233248D01*
X130297Y233218D01*
X130349Y233212D01*
X130399Y233197D01*
X130470Y233198D01*
X130541Y233190D01*
X130592Y233202D01*
G37*
G36*
X77647Y164348D02*
X77647Y164348D01*
X77699Y164350D01*
X77766Y164374D01*
X77836Y164390D01*
X77881Y164416D01*
X77930Y164434D01*
X77986Y164479D01*
X78047Y164516D01*
X78081Y164555D01*
X78122Y164588D01*
X78161Y164648D01*
X78207Y164703D01*
X78227Y164751D01*
X78255Y164795D01*
X78272Y164864D01*
X78299Y164931D01*
X78307Y165002D01*
X78315Y165033D01*
X78313Y165057D01*
X78318Y165098D01*
X78318Y169350D01*
X78303Y169440D01*
X78296Y169531D01*
X78283Y169561D01*
X78278Y169593D01*
X78235Y169674D01*
X78200Y169758D01*
X78174Y169790D01*
X78163Y169810D01*
X78140Y169833D01*
X78095Y169889D01*
X77809Y170174D01*
X77475Y170753D01*
X77302Y171400D01*
X77302Y172643D01*
X88638Y172643D01*
X88657Y172646D01*
X88677Y172644D01*
X88779Y172666D01*
X88881Y172682D01*
X88898Y172692D01*
X88918Y172696D01*
X89007Y172749D01*
X89098Y172798D01*
X89112Y172812D01*
X89129Y172822D01*
X89196Y172901D01*
X89267Y172976D01*
X89276Y172994D01*
X89289Y173009D01*
X89327Y173105D01*
X89371Y173199D01*
X89373Y173219D01*
X89381Y173237D01*
X89399Y173404D01*
X89399Y173696D01*
X89396Y173716D01*
X89398Y173735D01*
X89376Y173837D01*
X89359Y173939D01*
X89350Y173956D01*
X89346Y173976D01*
X89293Y174065D01*
X89244Y174156D01*
X89230Y174170D01*
X89220Y174187D01*
X89141Y174254D01*
X89066Y174326D01*
X89048Y174334D01*
X89033Y174347D01*
X88936Y174386D01*
X88843Y174429D01*
X88823Y174431D01*
X88805Y174439D01*
X88638Y174457D01*
X77302Y174457D01*
X77302Y175700D01*
X77475Y176347D01*
X77809Y176926D01*
X78095Y177211D01*
X78148Y177285D01*
X78207Y177355D01*
X78220Y177385D01*
X78238Y177411D01*
X78265Y177498D01*
X78299Y177583D01*
X78304Y177624D01*
X78311Y177646D01*
X78310Y177678D01*
X78318Y177750D01*
X78318Y180502D01*
X78315Y180522D01*
X78317Y180541D01*
X78295Y180643D01*
X78278Y180745D01*
X78269Y180762D01*
X78264Y180782D01*
X78211Y180871D01*
X78163Y180962D01*
X78149Y180976D01*
X78138Y180993D01*
X78060Y181060D01*
X77985Y181132D01*
X77967Y181140D01*
X77951Y181153D01*
X77855Y181192D01*
X77762Y181235D01*
X77742Y181237D01*
X77723Y181245D01*
X77557Y181263D01*
X75284Y181263D01*
X70769Y185778D01*
X70769Y223194D01*
X70766Y223214D01*
X70768Y223233D01*
X70746Y223335D01*
X70730Y223437D01*
X70720Y223454D01*
X70716Y223474D01*
X70663Y223563D01*
X70614Y223654D01*
X70600Y223668D01*
X70590Y223685D01*
X70511Y223752D01*
X70436Y223824D01*
X70418Y223832D01*
X70403Y223845D01*
X70307Y223884D01*
X70213Y223927D01*
X70193Y223929D01*
X70175Y223937D01*
X70008Y223955D01*
X64242Y223955D01*
X63349Y224848D01*
X63349Y229216D01*
X63365Y229278D01*
X63395Y229377D01*
X63395Y229397D01*
X63400Y229416D01*
X63392Y229519D01*
X63389Y229622D01*
X63382Y229641D01*
X63381Y229661D01*
X63349Y229735D01*
X63349Y234216D01*
X63365Y234278D01*
X63395Y234377D01*
X63395Y234397D01*
X63400Y234416D01*
X63392Y234519D01*
X63389Y234622D01*
X63382Y234641D01*
X63381Y234661D01*
X63349Y234735D01*
X63349Y239216D01*
X63365Y239278D01*
X63395Y239377D01*
X63395Y239397D01*
X63400Y239416D01*
X63392Y239519D01*
X63389Y239622D01*
X63382Y239641D01*
X63381Y239661D01*
X63349Y239735D01*
X63349Y244216D01*
X63365Y244278D01*
X63395Y244377D01*
X63395Y244397D01*
X63400Y244416D01*
X63392Y244519D01*
X63389Y244622D01*
X63382Y244641D01*
X63381Y244661D01*
X63349Y244735D01*
X63349Y249216D01*
X63365Y249278D01*
X63395Y249377D01*
X63395Y249397D01*
X63400Y249416D01*
X63392Y249519D01*
X63389Y249622D01*
X63382Y249641D01*
X63381Y249661D01*
X63349Y249735D01*
X63349Y254216D01*
X63365Y254278D01*
X63395Y254377D01*
X63395Y254397D01*
X63400Y254416D01*
X63392Y254519D01*
X63389Y254622D01*
X63382Y254641D01*
X63381Y254661D01*
X63349Y254735D01*
X63349Y259216D01*
X63365Y259278D01*
X63395Y259377D01*
X63395Y259397D01*
X63400Y259416D01*
X63392Y259519D01*
X63389Y259622D01*
X63382Y259641D01*
X63381Y259661D01*
X63349Y259735D01*
X63349Y264216D01*
X63365Y264278D01*
X63395Y264377D01*
X63395Y264397D01*
X63400Y264416D01*
X63392Y264519D01*
X63389Y264622D01*
X63382Y264641D01*
X63381Y264661D01*
X63349Y264735D01*
X63349Y269216D01*
X63365Y269278D01*
X63395Y269377D01*
X63395Y269397D01*
X63400Y269416D01*
X63392Y269519D01*
X63389Y269622D01*
X63382Y269641D01*
X63381Y269661D01*
X63349Y269735D01*
X63349Y274216D01*
X63365Y274278D01*
X63395Y274377D01*
X63395Y274397D01*
X63400Y274416D01*
X63392Y274519D01*
X63389Y274622D01*
X63382Y274641D01*
X63381Y274661D01*
X63349Y274735D01*
X63349Y277988D01*
X63338Y278058D01*
X63336Y278130D01*
X63318Y278179D01*
X63310Y278230D01*
X63276Y278294D01*
X63251Y278361D01*
X63219Y278402D01*
X63194Y278448D01*
X63142Y278497D01*
X63098Y278553D01*
X63054Y278581D01*
X63016Y278617D01*
X62951Y278647D01*
X62891Y278686D01*
X62840Y278699D01*
X62793Y278721D01*
X62722Y278729D01*
X62652Y278746D01*
X62600Y278742D01*
X62549Y278748D01*
X62478Y278733D01*
X62407Y278727D01*
X62359Y278707D01*
X62308Y278696D01*
X62247Y278659D01*
X62181Y278631D01*
X62125Y278586D01*
X62097Y278569D01*
X62082Y278552D01*
X62050Y278526D01*
X60930Y277406D01*
X60877Y277332D01*
X60817Y277262D01*
X60805Y277232D01*
X60786Y277206D01*
X60759Y277119D01*
X60725Y277034D01*
X60721Y276993D01*
X60714Y276971D01*
X60715Y276939D01*
X60707Y276867D01*
X60707Y181186D01*
X60721Y181096D01*
X60729Y181005D01*
X60741Y180975D01*
X60746Y180943D01*
X60789Y180863D01*
X60825Y180779D01*
X60851Y180747D01*
X60862Y180726D01*
X60885Y180704D01*
X60930Y180648D01*
X77018Y164559D01*
X77076Y164517D01*
X77128Y164468D01*
X77176Y164446D01*
X77218Y164416D01*
X77286Y164395D01*
X77352Y164364D01*
X77403Y164359D01*
X77453Y164343D01*
X77525Y164345D01*
X77596Y164337D01*
X77647Y164348D01*
G37*
%LPC*%
G36*
X15961Y316280D02*
X15961Y316280D01*
X12600Y317672D01*
X10027Y320245D01*
X8635Y323606D01*
X8635Y327244D01*
X10027Y330605D01*
X12600Y333177D01*
X15961Y334570D01*
X34839Y334570D01*
X38200Y333177D01*
X40773Y330605D01*
X42165Y327244D01*
X42165Y323606D01*
X40773Y320245D01*
X38200Y317672D01*
X34839Y316280D01*
X15961Y316280D01*
G37*
%LPD*%
%LPC*%
G36*
X15961Y238505D02*
X15961Y238505D01*
X12600Y239897D01*
X10027Y242470D01*
X8635Y245831D01*
X8635Y249469D01*
X10027Y252830D01*
X12600Y255403D01*
X15961Y256795D01*
X34839Y256795D01*
X38200Y255403D01*
X40773Y252830D01*
X42165Y249469D01*
X42165Y245831D01*
X40773Y242470D01*
X38200Y239897D01*
X34839Y238505D01*
X15961Y238505D01*
G37*
%LPD*%
%LPC*%
G36*
X15961Y290880D02*
X15961Y290880D01*
X12600Y292272D01*
X10027Y294845D01*
X8635Y298206D01*
X8635Y301844D01*
X10027Y305205D01*
X12600Y307777D01*
X15961Y309170D01*
X34839Y309170D01*
X38200Y307777D01*
X40773Y305205D01*
X42165Y301844D01*
X42165Y298206D01*
X40773Y294845D01*
X38200Y292272D01*
X34839Y290880D01*
X15961Y290880D01*
G37*
%LPD*%
%LPC*%
G36*
X15961Y162305D02*
X15961Y162305D01*
X12600Y163697D01*
X10027Y166270D01*
X8635Y169631D01*
X8635Y173269D01*
X10027Y176630D01*
X12600Y179203D01*
X15961Y180595D01*
X34839Y180595D01*
X38200Y179203D01*
X40773Y176630D01*
X42165Y173269D01*
X42165Y169631D01*
X40773Y166270D01*
X38200Y163697D01*
X34839Y162305D01*
X15961Y162305D01*
G37*
%LPD*%
%LPC*%
G36*
X15961Y187705D02*
X15961Y187705D01*
X12600Y189097D01*
X10027Y191670D01*
X8635Y195031D01*
X8635Y198669D01*
X10027Y202030D01*
X12600Y204603D01*
X15961Y205995D01*
X34839Y205995D01*
X38200Y204603D01*
X40773Y202030D01*
X42165Y198669D01*
X42165Y195031D01*
X40773Y191670D01*
X38200Y189097D01*
X34839Y187705D01*
X15961Y187705D01*
G37*
%LPD*%
%LPC*%
G36*
X15961Y213105D02*
X15961Y213105D01*
X12600Y214497D01*
X10027Y217070D01*
X8635Y220431D01*
X8635Y224069D01*
X10027Y227430D01*
X12600Y230003D01*
X15961Y231395D01*
X34839Y231395D01*
X38200Y230003D01*
X40773Y227430D01*
X42165Y224069D01*
X42165Y220431D01*
X40773Y217070D01*
X38200Y214497D01*
X34839Y213105D01*
X15961Y213105D01*
G37*
%LPD*%
%LPC*%
G36*
X15961Y263905D02*
X15961Y263905D01*
X12600Y265297D01*
X10027Y267870D01*
X8635Y271231D01*
X8635Y274869D01*
X10027Y278230D01*
X12600Y280803D01*
X15961Y282195D01*
X34839Y282195D01*
X38200Y280803D01*
X40773Y278230D01*
X42165Y274869D01*
X42165Y271231D01*
X40773Y267870D01*
X38200Y265297D01*
X34839Y263905D01*
X15961Y263905D01*
G37*
%LPD*%
%LPC*%
G36*
X345462Y162305D02*
X345462Y162305D01*
X340105Y167662D01*
X340105Y175238D01*
X345462Y180595D01*
X353038Y180595D01*
X358395Y175238D01*
X358395Y167662D01*
X353038Y162305D01*
X345462Y162305D01*
G37*
%LPD*%
%LPC*%
G36*
X320062Y263905D02*
X320062Y263905D01*
X314705Y269262D01*
X314705Y276838D01*
X320062Y282195D01*
X327638Y282195D01*
X332995Y276838D01*
X332995Y269262D01*
X327638Y263905D01*
X320062Y263905D01*
G37*
%LPD*%
%LPC*%
G36*
X320062Y238505D02*
X320062Y238505D01*
X314705Y243862D01*
X314705Y251438D01*
X320062Y256795D01*
X327638Y256795D01*
X332995Y251438D01*
X332995Y243862D01*
X327638Y238505D01*
X320062Y238505D01*
G37*
%LPD*%
%LPC*%
G36*
X289008Y297385D02*
X289008Y297385D01*
X288115Y298278D01*
X288115Y310542D01*
X289008Y311435D01*
X300272Y311435D01*
X301287Y310420D01*
X301303Y310408D01*
X301315Y310392D01*
X301402Y310336D01*
X301486Y310276D01*
X301505Y310270D01*
X301522Y310259D01*
X301623Y310234D01*
X301721Y310204D01*
X301741Y310204D01*
X301761Y310199D01*
X301864Y310207D01*
X301967Y310210D01*
X301986Y310217D01*
X302006Y310219D01*
X302101Y310259D01*
X302198Y310295D01*
X302214Y310307D01*
X302232Y310315D01*
X302363Y310420D01*
X302812Y310869D01*
X306788Y310869D01*
X309599Y308058D01*
X309599Y304082D01*
X306788Y301271D01*
X302812Y301271D01*
X302464Y301619D01*
X302406Y301661D01*
X302354Y301711D01*
X302307Y301732D01*
X302265Y301763D01*
X302196Y301784D01*
X302131Y301814D01*
X302079Y301820D01*
X302029Y301835D01*
X301958Y301833D01*
X301887Y301841D01*
X301836Y301830D01*
X301784Y301829D01*
X301716Y301804D01*
X301646Y301789D01*
X301601Y301762D01*
X301553Y301744D01*
X301497Y301700D01*
X301435Y301663D01*
X301401Y301623D01*
X301361Y301591D01*
X301322Y301531D01*
X301275Y301476D01*
X301256Y301427D01*
X301228Y301384D01*
X301210Y301314D01*
X301183Y301248D01*
X301175Y301176D01*
X301167Y301145D01*
X301169Y301122D01*
X301165Y301081D01*
X301165Y298278D01*
X300272Y297385D01*
X289008Y297385D01*
G37*
%LPD*%
%LPC*%
G36*
X265179Y122935D02*
X265179Y122935D01*
X264286Y123828D01*
X264286Y133982D01*
X264421Y134116D01*
X264432Y134132D01*
X264448Y134145D01*
X264504Y134232D01*
X264564Y134316D01*
X264570Y134335D01*
X264581Y134352D01*
X264606Y134452D01*
X264637Y134551D01*
X264636Y134571D01*
X264641Y134590D01*
X264633Y134693D01*
X264630Y134797D01*
X264624Y134816D01*
X264622Y134836D01*
X264582Y134930D01*
X264546Y135028D01*
X264533Y135044D01*
X264526Y135062D01*
X264441Y135167D01*
X264441Y139148D01*
X267252Y141959D01*
X271228Y141959D01*
X274039Y139148D01*
X274039Y135468D01*
X274053Y135378D01*
X274061Y135287D01*
X274073Y135257D01*
X274078Y135225D01*
X274121Y135144D01*
X274157Y135061D01*
X274183Y135028D01*
X274194Y135008D01*
X274217Y134986D01*
X274262Y134930D01*
X275210Y133982D01*
X275210Y123828D01*
X274317Y122935D01*
X265179Y122935D01*
G37*
%LPD*%
%LPC*%
G36*
X331219Y122935D02*
X331219Y122935D01*
X330326Y123828D01*
X330326Y133982D01*
X330766Y134422D01*
X330819Y134496D01*
X330879Y134565D01*
X330891Y134595D01*
X330910Y134621D01*
X330937Y134708D01*
X330971Y134793D01*
X330975Y134834D01*
X330982Y134856D01*
X330981Y134889D01*
X330989Y134960D01*
X330989Y139148D01*
X333800Y141959D01*
X337776Y141959D01*
X340587Y139148D01*
X340587Y134960D01*
X340601Y134870D01*
X340609Y134779D01*
X340621Y134749D01*
X340626Y134717D01*
X340669Y134636D01*
X340705Y134553D01*
X340731Y134520D01*
X340742Y134500D01*
X340765Y134478D01*
X340810Y134422D01*
X341250Y133982D01*
X341250Y123828D01*
X340357Y122935D01*
X331219Y122935D01*
G37*
%LPD*%
%LPC*%
G36*
X298199Y122935D02*
X298199Y122935D01*
X297306Y123828D01*
X297306Y133982D01*
X297746Y134422D01*
X297800Y134496D01*
X297859Y134565D01*
X297871Y134595D01*
X297890Y134621D01*
X297917Y134708D01*
X297951Y134793D01*
X297955Y134834D01*
X297962Y134856D01*
X297961Y134889D01*
X297969Y134960D01*
X297969Y139148D01*
X300780Y141959D01*
X304756Y141959D01*
X307567Y139148D01*
X307567Y134960D01*
X307581Y134870D01*
X307589Y134779D01*
X307601Y134749D01*
X307606Y134717D01*
X307649Y134637D01*
X307685Y134553D01*
X307711Y134520D01*
X307722Y134500D01*
X307745Y134478D01*
X307790Y134422D01*
X308230Y133982D01*
X308230Y123828D01*
X307337Y122935D01*
X298199Y122935D01*
G37*
%LPD*%
%LPC*%
G36*
X26923Y147573D02*
X26923Y147573D01*
X26923Y156211D01*
X33820Y156211D01*
X35399Y155961D01*
X36920Y155466D01*
X38345Y154740D01*
X39639Y153800D01*
X40770Y152669D01*
X41710Y151375D01*
X42436Y149950D01*
X42931Y148429D01*
X43066Y147573D01*
X26923Y147573D01*
G37*
%LPD*%
%LPC*%
G36*
X7734Y147573D02*
X7734Y147573D01*
X7869Y148429D01*
X8364Y149950D01*
X9090Y151375D01*
X10030Y152669D01*
X11161Y153800D01*
X12455Y154740D01*
X13880Y155466D01*
X15401Y155961D01*
X16980Y156211D01*
X23877Y156211D01*
X23877Y147573D01*
X7734Y147573D01*
G37*
%LPD*%
%LPC*%
G36*
X26923Y135889D02*
X26923Y135889D01*
X26923Y144527D01*
X43066Y144527D01*
X42931Y143671D01*
X42436Y142150D01*
X41710Y140725D01*
X40770Y139431D01*
X39639Y138300D01*
X38345Y137360D01*
X36920Y136634D01*
X35399Y136139D01*
X33820Y135889D01*
X26923Y135889D01*
G37*
%LPD*%
%LPC*%
G36*
X16980Y135889D02*
X16980Y135889D01*
X15401Y136139D01*
X13880Y136634D01*
X12455Y137360D01*
X11161Y138300D01*
X10030Y139431D01*
X9090Y140725D01*
X8364Y142150D01*
X7869Y143671D01*
X7734Y144527D01*
X23877Y144527D01*
X23877Y135889D01*
X16980Y135889D01*
G37*
%LPD*%
%LPC*%
G36*
X339089Y274573D02*
X339089Y274573D01*
X339089Y277259D01*
X345041Y283211D01*
X347727Y283211D01*
X347727Y274573D01*
X339089Y274573D01*
G37*
%LPD*%
%LPC*%
G36*
X345041Y262889D02*
X345041Y262889D01*
X339089Y268841D01*
X339089Y271527D01*
X347727Y271527D01*
X347727Y262889D01*
X345041Y262889D01*
G37*
%LPD*%
%LPC*%
G36*
X190009Y56109D02*
X190009Y56109D01*
X190009Y67151D01*
X191844Y67151D01*
X192491Y66978D01*
X193070Y66643D01*
X193543Y66170D01*
X193878Y65591D01*
X194051Y64944D01*
X194051Y56109D01*
X190009Y56109D01*
G37*
%LPD*%
%LPC*%
G36*
X190009Y42069D02*
X190009Y42069D01*
X190009Y53111D01*
X194051Y53111D01*
X194051Y44276D01*
X193878Y43629D01*
X193543Y43050D01*
X193070Y42577D01*
X192491Y42242D01*
X191844Y42069D01*
X190009Y42069D01*
G37*
%LPD*%
%LPC*%
G36*
X218519Y129403D02*
X218519Y129403D01*
X218519Y133714D01*
X218692Y134361D01*
X219000Y134893D01*
X219008Y134916D01*
X219022Y134935D01*
X219052Y135030D01*
X219087Y135123D01*
X219088Y135147D01*
X219095Y135170D01*
X219092Y135269D01*
X219095Y135343D01*
X219102Y135341D01*
X219126Y135343D01*
X219150Y135338D01*
X219248Y135352D01*
X219347Y135360D01*
X219369Y135369D01*
X219393Y135373D01*
X219547Y135440D01*
X220079Y135748D01*
X220726Y135921D01*
X224537Y135921D01*
X224537Y129403D01*
X218519Y129403D01*
G37*
%LPD*%
%LPC*%
G36*
X296163Y288933D02*
X296163Y288933D01*
X296163Y295451D01*
X299975Y295451D01*
X300621Y295278D01*
X301200Y294943D01*
X301673Y294470D01*
X302008Y293891D01*
X302181Y293244D01*
X302181Y288933D01*
X296163Y288933D01*
G37*
%LPD*%
%LPC*%
G36*
X296163Y261483D02*
X296163Y261483D01*
X296163Y268001D01*
X299975Y268001D01*
X300621Y267828D01*
X301200Y267493D01*
X301673Y267020D01*
X302008Y266441D01*
X302181Y265794D01*
X302181Y261483D01*
X296163Y261483D01*
G37*
%LPD*%
%LPC*%
G36*
X296163Y279369D02*
X296163Y279369D01*
X296163Y285887D01*
X302181Y285887D01*
X302181Y281576D01*
X302008Y280929D01*
X301673Y280350D01*
X301200Y279877D01*
X300621Y279542D01*
X299974Y279369D01*
X296163Y279369D01*
G37*
%LPD*%
%LPC*%
G36*
X296163Y251919D02*
X296163Y251919D01*
X296163Y258437D01*
X302181Y258437D01*
X302181Y254126D01*
X302008Y253479D01*
X301673Y252900D01*
X301200Y252427D01*
X300621Y252092D01*
X299974Y251919D01*
X296163Y251919D01*
G37*
%LPD*%
%LPC*%
G36*
X57999Y92083D02*
X57999Y92083D01*
X57999Y95894D01*
X58172Y96541D01*
X58507Y97120D01*
X58980Y97593D01*
X59559Y97928D01*
X60206Y98101D01*
X64517Y98101D01*
X64517Y92083D01*
X57999Y92083D01*
G37*
%LPD*%
%LPC*%
G36*
X287099Y288933D02*
X287099Y288933D01*
X287099Y293244D01*
X287272Y293891D01*
X287607Y294470D01*
X288080Y294943D01*
X288659Y295278D01*
X289306Y295451D01*
X293117Y295451D01*
X293117Y288933D01*
X287099Y288933D01*
G37*
%LPD*%
%LPC*%
G36*
X287099Y261483D02*
X287099Y261483D01*
X287099Y265794D01*
X287272Y266441D01*
X287607Y267020D01*
X288080Y267493D01*
X288659Y267828D01*
X289306Y268001D01*
X293117Y268001D01*
X293117Y261483D01*
X287099Y261483D01*
G37*
%LPD*%
%LPC*%
G36*
X289306Y279369D02*
X289306Y279369D01*
X288659Y279542D01*
X288080Y279877D01*
X287607Y280350D01*
X287272Y280929D01*
X287099Y281576D01*
X287099Y285887D01*
X293117Y285887D01*
X293117Y279369D01*
X289306Y279369D01*
G37*
%LPD*%
%LPC*%
G36*
X289306Y251919D02*
X289306Y251919D01*
X288659Y252092D01*
X288080Y252427D01*
X287607Y252900D01*
X287272Y253479D01*
X287099Y254126D01*
X287099Y258437D01*
X293117Y258437D01*
X293117Y251919D01*
X289306Y251919D01*
G37*
%LPD*%
%LPC*%
G36*
X220726Y119839D02*
X220726Y119839D01*
X220079Y120012D01*
X219500Y120347D01*
X219027Y120820D01*
X218692Y121399D01*
X218519Y122046D01*
X218519Y126357D01*
X224537Y126357D01*
X224537Y119839D01*
X220726Y119839D01*
G37*
%LPD*%
%LPC*%
G36*
X364123Y89039D02*
X364123Y89039D01*
X364123Y93307D01*
X369641Y93307D01*
X369641Y91246D01*
X369468Y90599D01*
X369133Y90020D01*
X368660Y89547D01*
X368081Y89212D01*
X367434Y89039D01*
X364123Y89039D01*
G37*
%LPD*%
%LPC*%
G36*
X25399Y146049D02*
X25399Y146049D01*
X25399Y146051D01*
X25401Y146051D01*
X25401Y146049D01*
X25399Y146049D01*
G37*
%LPD*%
%LPC*%
G36*
X294639Y287409D02*
X294639Y287409D01*
X294639Y287411D01*
X294641Y287411D01*
X294641Y287409D01*
X294639Y287409D01*
G37*
%LPD*%
%LPC*%
G36*
X294639Y259959D02*
X294639Y259959D01*
X294639Y259961D01*
X294641Y259961D01*
X294641Y259959D01*
X294639Y259959D01*
G37*
%LPD*%
D10*
X88784Y183550D03*
X88784Y178550D03*
X88784Y173550D03*
X88784Y168550D03*
X88784Y163550D03*
X88784Y158550D03*
X88784Y153550D03*
X88784Y148550D03*
X88784Y143550D03*
X88784Y138550D03*
X88784Y133550D03*
X88784Y128550D03*
X88784Y123550D03*
X88784Y118550D03*
X88784Y113550D03*
X88784Y108550D03*
D11*
X108550Y88784D03*
X113550Y88784D03*
X118550Y88784D03*
X123550Y88784D03*
X128550Y88784D03*
X133550Y88784D03*
X138550Y88784D03*
X143550Y88784D03*
X148550Y88784D03*
X153550Y88784D03*
X158550Y88784D03*
X163550Y88784D03*
X168550Y88784D03*
X173550Y88784D03*
X178550Y88784D03*
X183550Y88784D03*
D10*
X203316Y108550D03*
X203316Y113550D03*
X203316Y118550D03*
X203316Y123550D03*
X203316Y128550D03*
X203316Y133550D03*
X203316Y138550D03*
X203316Y143550D03*
X203316Y148550D03*
X203316Y153550D03*
X203316Y158550D03*
X203316Y163550D03*
X203316Y168550D03*
X203316Y173550D03*
X203316Y178550D03*
X203316Y183550D03*
D11*
X183550Y203316D03*
X178550Y203316D03*
X173550Y203316D03*
X168550Y203316D03*
X163550Y203316D03*
X158550Y203316D03*
X153550Y203316D03*
X148550Y203316D03*
X143550Y203316D03*
X138550Y203316D03*
X133550Y203316D03*
X128550Y203316D03*
X123550Y203316D03*
X118550Y203316D03*
X113550Y203316D03*
X108550Y203316D03*
D12*
X73056Y341980D03*
X73056Y336980D03*
X73056Y331980D03*
X73056Y326980D03*
X73056Y321980D03*
X73056Y316980D03*
X73056Y311980D03*
X73056Y306980D03*
X73056Y301980D03*
X73056Y296980D03*
X73056Y291980D03*
X73056Y286980D03*
X73056Y281980D03*
X73056Y276980D03*
X73056Y271980D03*
X73056Y266980D03*
X73056Y261980D03*
X73056Y256980D03*
X73056Y251980D03*
X73056Y246980D03*
X73056Y241980D03*
X73056Y236980D03*
X73056Y231980D03*
X73056Y226980D03*
X269844Y226980D03*
X269844Y231980D03*
X269844Y236980D03*
X269844Y241980D03*
X269844Y246980D03*
X269844Y251980D03*
X269844Y256980D03*
X269844Y261980D03*
X269844Y266980D03*
X269844Y271980D03*
X269844Y276980D03*
X269844Y281980D03*
X269844Y286980D03*
X269844Y291980D03*
X269844Y296980D03*
X269844Y301980D03*
X269844Y306980D03*
X269844Y311980D03*
X269844Y316980D03*
X269844Y321980D03*
X269844Y326980D03*
X269844Y331980D03*
X269844Y336980D03*
X269844Y341980D03*
D13*
X33020Y146050D02*
X17780Y146050D01*
X17780Y171450D02*
X33020Y171450D01*
X33020Y196850D02*
X17780Y196850D01*
X17780Y222250D02*
X33020Y222250D01*
X33020Y247650D02*
X17780Y247650D01*
X17780Y273050D02*
X33020Y273050D01*
X33020Y300025D02*
X17780Y300025D01*
X17780Y325425D02*
X33020Y325425D01*
D14*
X226060Y127880D03*
X226060Y110880D03*
X294640Y287410D03*
X294640Y304410D03*
X294640Y259960D03*
X294640Y242960D03*
D15*
X330200Y351790D03*
D16*
X66040Y107560D03*
X66040Y90560D03*
D17*
X316484Y128905D03*
X335788Y128905D03*
X326136Y149225D03*
D16*
X260350Y91195D03*
X260350Y108195D03*
X293370Y91195D03*
X293370Y108195D03*
X326390Y91195D03*
X326390Y108195D03*
D18*
X348600Y94830D03*
X362600Y94830D03*
X348600Y105830D03*
X362600Y105830D03*
D17*
X283464Y128905D03*
X302768Y128905D03*
X293116Y149225D03*
X349504Y128905D03*
X368808Y128905D03*
X359156Y149225D03*
X250444Y128905D03*
X269748Y128905D03*
X260096Y149225D03*
D19*
X98510Y54610D03*
X108510Y54610D03*
X118510Y54610D03*
X128510Y54610D03*
X138510Y54610D03*
X148510Y54610D03*
X158510Y54610D03*
X168510Y54610D03*
X178510Y54610D03*
X188510Y54610D03*
D20*
X201510Y14610D03*
X85510Y14610D03*
D21*
X349250Y171450D03*
X323850Y171450D03*
X349250Y196850D03*
X323850Y196850D03*
X349250Y222250D03*
X323850Y222250D03*
X349250Y247650D03*
X323850Y247650D03*
X349250Y273050D03*
X323850Y273050D03*
X349250Y298450D03*
X323850Y298450D03*
X349250Y323850D03*
X323850Y323850D03*
D22*
X295275Y330200D03*
D23*
X88784Y183550D02*
X76231Y183550D01*
X73056Y186725D01*
X73056Y226980D01*
X89682Y179448D02*
X88784Y178550D01*
X89682Y179448D02*
X98672Y179448D01*
X100012Y180787D01*
X100012Y186313D01*
X98672Y187652D01*
X98098Y187652D01*
X91440Y194310D01*
X88900Y196850D01*
X88900Y227330D01*
X84250Y231980D01*
X73056Y231980D01*
X89682Y169448D02*
X88784Y168550D01*
X89682Y169448D02*
X98672Y169448D01*
X103060Y187575D02*
X91948Y198687D01*
X103060Y173835D02*
X98672Y169448D01*
X103060Y173835D02*
X103060Y187575D01*
X84330Y236980D02*
X73056Y236980D01*
X91948Y229362D02*
X91948Y198687D01*
X91948Y229362D02*
X84330Y236980D01*
X73056Y241175D02*
X73056Y241980D01*
X94996Y199950D02*
X106108Y188838D01*
X89682Y164448D02*
X88784Y163550D01*
X89682Y164448D02*
X98672Y164448D01*
X106108Y171883D01*
X106108Y188838D01*
X94996Y230625D02*
X84446Y241175D01*
X73056Y241175D01*
X94996Y230625D02*
X94996Y199950D01*
X108550Y203316D02*
X108550Y234350D01*
X95920Y246980D02*
X73056Y246980D01*
X95920Y246980D02*
X108550Y234350D01*
X73861Y251175D02*
X73056Y251980D01*
X73861Y251175D02*
X96036Y251175D01*
X113550Y233661D01*
X113550Y203316D01*
X73861Y256175D02*
X73056Y256980D01*
X73861Y256175D02*
X95346Y256175D01*
X118550Y232971D01*
X118550Y203316D01*
X73861Y261175D02*
X73056Y261980D01*
X73861Y261175D02*
X94657Y261175D01*
X123550Y232282D01*
X123550Y203316D01*
X73861Y266175D02*
X73056Y266980D01*
X73861Y266175D02*
X93967Y266175D01*
X128550Y231592D01*
X128550Y203316D01*
X73861Y306175D02*
X73056Y306980D01*
X73861Y306175D02*
X82185Y306175D01*
X133550Y254810D01*
X133550Y203316D01*
X73861Y311175D02*
X73056Y311980D01*
X73861Y311175D02*
X82185Y311175D01*
X138550Y254810D01*
X138550Y203316D01*
X73861Y316175D02*
X73056Y316980D01*
X73861Y316175D02*
X82185Y316175D01*
X143550Y254810D01*
X143550Y203316D01*
X73861Y321175D02*
X73056Y321980D01*
X73861Y321175D02*
X82185Y321175D01*
X148550Y254810D01*
X148550Y203316D01*
X73861Y326175D02*
X73056Y326980D01*
X73861Y326175D02*
X82185Y326175D01*
X168550Y239810D02*
X168550Y203316D01*
X168550Y239810D02*
X82185Y326175D01*
X73861Y331175D02*
X73056Y331980D01*
X73861Y331175D02*
X82185Y331175D01*
X173550Y239810D01*
X173550Y203316D01*
X178550Y203316D02*
X178550Y240550D01*
X82120Y336980D02*
X73056Y336980D01*
X82120Y336980D02*
X178550Y240550D01*
X73861Y341175D02*
X73056Y341980D01*
X73861Y341175D02*
X82236Y341175D01*
X183550Y239861D01*
X183550Y203316D01*
X236120Y341980D02*
X269844Y341980D01*
X236120Y341980D02*
X203316Y309176D01*
X203316Y183550D01*
X204214Y179448D02*
X203316Y178550D01*
X204214Y179448D02*
X213204Y179448D01*
X215900Y182144D01*
X215900Y304800D01*
X238080Y326980D01*
X269844Y326980D01*
X269844Y321980D02*
X239430Y321980D01*
X213204Y174448D02*
X204214Y174448D01*
X203316Y173550D01*
X218948Y180192D02*
X218948Y301498D01*
X218948Y180192D02*
X213204Y174448D01*
X218948Y301498D02*
X239430Y321980D01*
X235780Y311980D02*
X269844Y311980D01*
X213204Y169448D02*
X204214Y169448D01*
X203316Y168550D01*
X221996Y178240D02*
X221996Y298196D01*
X221996Y178240D02*
X213204Y169448D01*
X221996Y298196D02*
X235780Y311980D01*
X230091Y301980D02*
X269844Y301980D01*
X230091Y301980D02*
X225044Y296933D01*
X213204Y164448D02*
X204214Y164448D01*
X203316Y163550D01*
X225044Y176288D02*
X225044Y296933D01*
X225044Y176288D02*
X213204Y164448D01*
X234830Y291980D02*
X269844Y291980D01*
X213204Y159448D02*
X204214Y159448D01*
X203316Y158550D01*
X228092Y174336D02*
X228092Y285242D01*
X228092Y174336D02*
X213204Y159448D01*
X228092Y285242D02*
X234830Y291980D01*
X232530Y276980D02*
X269844Y276980D01*
X232530Y276980D02*
X231140Y275590D01*
X213204Y154448D02*
X204214Y154448D01*
X203316Y153550D01*
X213204Y154448D02*
X231140Y172384D01*
X231140Y275590D01*
X241580Y266980D02*
X269844Y266980D01*
X213204Y144448D02*
X204214Y144448D01*
X203316Y143550D01*
X234188Y165432D02*
X234188Y259588D01*
X234188Y165432D02*
X213204Y144448D01*
X234188Y259588D02*
X241580Y266980D01*
X244280Y256980D02*
X269844Y256980D01*
X244280Y256980D02*
X237236Y249936D01*
X213204Y139448D02*
X204214Y139448D01*
X203316Y138550D01*
X213204Y139448D02*
X237236Y163480D01*
X237236Y249936D01*
X246980Y246980D02*
X269844Y246980D01*
X240284Y240284D02*
X240284Y161528D01*
X213204Y134448D01*
X240284Y240284D02*
X246980Y246980D01*
X204214Y134448D02*
X203316Y133550D01*
X204214Y134448D02*
X213204Y134448D01*
X248330Y241980D02*
X269844Y241980D01*
X248330Y241980D02*
X243332Y236982D01*
D24*
X236220Y133350D03*
X181610Y128270D03*
D23*
X190383Y123550D02*
X203316Y123550D01*
X190383Y123550D02*
X190263Y123670D01*
X186210Y123670D01*
X181610Y128270D01*
X243332Y160265D02*
X243332Y236982D01*
X236220Y153153D02*
X236220Y133350D01*
X236220Y153153D02*
X243332Y160265D01*
D24*
X108510Y68580D03*
D23*
X108510Y54610D01*
D24*
X205740Y97790D03*
D23*
X203316Y100214D01*
X203316Y108550D01*
X252380Y226980D02*
X269844Y226980D01*
D24*
X237533Y125278D03*
X187960Y118110D03*
D23*
X188400Y118550D01*
X203316Y118550D01*
X246380Y158046D02*
X246380Y220980D01*
X252380Y226980D01*
X241780Y135653D02*
X241780Y131047D01*
X241780Y135653D02*
X239268Y138165D01*
X237533Y126800D02*
X237533Y125278D01*
X237533Y126800D02*
X241780Y131047D01*
X239268Y138165D02*
X239268Y150934D01*
X246380Y158046D01*
D24*
X95250Y279400D03*
X133350Y311150D03*
X158750Y279400D03*
X158750Y234950D03*
X160020Y20320D03*
X168910Y20320D03*
X177800Y20320D03*
X200660Y46990D03*
X200660Y54610D03*
X200660Y62230D03*
X69850Y177800D03*
D23*
X75544Y177800D01*
D24*
X66675Y146050D03*
D23*
X158550Y190300D02*
X158550Y203316D01*
X158550Y190300D02*
X153670Y185420D01*
D24*
X153670Y185420D03*
X101600Y101600D03*
D23*
X89682Y117652D02*
X88784Y118550D01*
X89682Y117652D02*
X98672Y117652D01*
X101600Y114724D01*
X101600Y101600D01*
X256970Y231980D02*
X269844Y231980D01*
X256970Y231980D02*
X254000Y234950D01*
D24*
X254000Y234950D03*
D23*
X256030Y236980D02*
X269844Y236980D01*
X256030Y236980D02*
X254000Y234950D01*
X256030Y331980D02*
X269844Y331980D01*
X256030Y331980D02*
X254000Y334010D01*
D24*
X254000Y334010D03*
D23*
X256970Y336980D02*
X269844Y336980D01*
X256970Y336980D02*
X254000Y334010D01*
X230750Y115570D02*
X226060Y110880D01*
X230750Y115570D02*
X237242Y115570D01*
D24*
X237242Y115570D03*
D23*
X294640Y304410D02*
X296300Y306070D01*
X304800Y306070D01*
D24*
X304800Y306070D03*
D23*
X288660Y236980D02*
X269844Y236980D01*
X288660Y236980D02*
X294640Y242960D01*
X294640Y232410D01*
X302260Y224790D01*
D24*
X302260Y224790D03*
D23*
X335910Y128783D02*
X335158Y128032D01*
X128550Y102025D02*
X128550Y88784D01*
X128550Y102025D02*
X127705Y102870D01*
D24*
X127705Y102870D03*
D23*
X185898Y148550D02*
X203316Y148550D01*
X185898Y148550D02*
X185632Y148816D01*
D24*
X185632Y148816D03*
D23*
X368808Y128905D02*
X368808Y118618D01*
X368300Y118110D01*
D24*
X368300Y118110D03*
D23*
X138510Y54610D02*
X138510Y36910D01*
X138430Y36830D01*
D24*
X138430Y36830D03*
D23*
X335788Y128905D02*
X335788Y136398D01*
X335788Y137160D01*
D24*
X335788Y137160D03*
D23*
X269748Y128905D02*
X269240Y129413D01*
X269240Y137160D01*
D24*
X269240Y137160D03*
D23*
X302768Y136652D02*
X302768Y128905D01*
X302768Y136652D02*
X302768Y137160D01*
D24*
X302768Y137160D03*
X193040Y20320D03*
X193040Y10160D03*
X93980Y20320D03*
X93980Y10160D03*
D23*
X89530Y14610D02*
X85510Y14610D01*
X89530Y14610D02*
X93980Y10160D01*
X201510Y14610D02*
X209550Y6570D01*
X209550Y6287D01*
X173228Y6287D01*
X335788Y128905D02*
X335910Y128783D01*
X335910Y128783D01*
X201510Y14610D02*
X197060Y10160D01*
X193040Y10160D01*
X148510Y54610D02*
X148510Y71200D01*
X144780Y74930D01*
X116840Y74930D01*
X113550Y78220D02*
X113550Y88784D01*
X113550Y78220D02*
X116840Y74930D01*
X128510Y67550D02*
X128510Y54610D01*
X128510Y67550D02*
X128510Y68580D01*
D24*
X128510Y68580D03*
X158550Y72390D03*
D23*
X158550Y72590D01*
X158550Y88784D01*
X118510Y68180D02*
X118510Y54610D01*
X118510Y68180D02*
X118510Y68580D01*
D24*
X118510Y68580D03*
X183550Y72390D03*
D23*
X183550Y88784D01*
X190500Y109724D02*
X194326Y113550D01*
X203316Y113550D01*
X98510Y68030D02*
X98510Y54610D01*
X98510Y68030D02*
X98510Y68580D01*
D24*
X98510Y68580D03*
X194310Y92710D03*
D23*
X190500Y96520D01*
X190500Y109724D01*
X148550Y121880D02*
X148550Y88784D01*
D24*
X181610Y156210D03*
D23*
X181610Y154940D01*
X148550Y121880D01*
X143550Y127000D02*
X143550Y128310D01*
D24*
X181610Y166370D03*
D23*
X143550Y127000D02*
X143550Y88784D01*
X143550Y127000D02*
X143550Y128310D01*
X161770Y146530D02*
X181610Y166370D01*
X161770Y146530D02*
X161770Y145017D01*
X158513Y141760D01*
X157000Y141760D01*
X143550Y128310D01*
X133550Y134820D02*
X133550Y88784D01*
X133550Y134820D02*
X146050Y147320D01*
X173990Y175260D01*
X184150Y175260D01*
D24*
X184150Y175260D03*
D23*
X138550Y132200D02*
X138550Y88784D01*
X138550Y132200D02*
X153670Y147320D01*
X156210Y147320D01*
D24*
X156210Y147320D03*
D23*
X118550Y138870D02*
X118550Y88784D01*
X118550Y138870D02*
X163830Y184150D01*
D24*
X163830Y184150D03*
X260350Y190500D03*
D23*
X279400Y209550D01*
X330200Y209550D02*
X336550Y209550D01*
X330200Y209550D02*
X279400Y209550D01*
X336550Y209550D02*
X349250Y222250D01*
D24*
X173990Y184150D03*
D23*
X123550Y98464D02*
X123550Y88784D01*
X123550Y98464D02*
X122145Y99869D01*
X122145Y132305D01*
X173990Y184150D01*
D24*
X255270Y182880D03*
D23*
X330200Y182880D01*
X335280Y182880D01*
X349250Y196850D01*
X361950Y209550D01*
X361950Y304800D01*
X355600Y311150D01*
X314325Y311150D02*
X295275Y330200D01*
X314325Y311150D02*
X355600Y311150D01*
X108550Y137760D02*
X108550Y88784D01*
X108550Y137760D02*
X110490Y139700D01*
D24*
X110490Y139700D03*
X181610Y109220D03*
D23*
X173550Y101160D02*
X173550Y88784D01*
X173550Y101160D02*
X181610Y109220D01*
X168550Y107844D02*
X168550Y88784D01*
X168550Y107844D02*
X177800Y117094D01*
D24*
X177800Y117094D03*
D23*
X163550Y116560D02*
X163550Y88784D01*
X163550Y116560D02*
X167640Y120650D01*
D24*
X167640Y120650D03*
D23*
X163550Y217450D02*
X158750Y222250D01*
D24*
X158750Y222250D03*
D23*
X163550Y217450D02*
X163550Y203316D01*
X71480Y123550D02*
X66040Y118110D01*
X66040Y107560D01*
D24*
X79375Y88900D03*
D23*
X79375Y95250D01*
X67065Y107560D01*
X66040Y107560D01*
X71480Y123550D02*
X88784Y123550D01*
X88784Y143550D02*
X87886Y144448D01*
X78896Y144448D01*
X49276Y174068D01*
X49276Y290307D01*
X60949Y301980D02*
X73056Y301980D01*
X60949Y301980D02*
X49276Y290307D01*
X87886Y149448D02*
X88784Y148550D01*
X87886Y149448D02*
X78896Y149448D01*
X52324Y176020D01*
X52324Y289045D02*
X60259Y296980D01*
X73056Y296980D01*
X52324Y289045D02*
X52324Y176020D01*
X87886Y154448D02*
X88784Y153550D01*
X87886Y154448D02*
X78896Y154448D01*
X55372Y177972D01*
X59570Y291980D02*
X73056Y291980D01*
X55372Y287782D02*
X55372Y177972D01*
X55372Y287782D02*
X59570Y291980D01*
X87886Y159448D02*
X88784Y158550D01*
X87886Y159448D02*
X78896Y159448D01*
X58420Y179924D01*
X62270Y281980D02*
X73056Y281980D01*
X58420Y278130D02*
X58420Y179924D01*
X58420Y278130D02*
X62270Y281980D01*
X64890Y138550D02*
X88784Y138550D01*
X64890Y138550D02*
X44450Y118110D01*
X44450Y78740D01*
X55880Y67310D02*
X67310Y67310D01*
X55880Y67310D02*
X44450Y78740D01*
D24*
X67310Y67310D03*
X247650Y102870D03*
D23*
X250444Y105664D01*
X250444Y128905D01*
X88784Y133550D02*
X88584Y133350D01*
X66040Y133350D02*
X48260Y115570D01*
X48260Y80253D02*
X54401Y74112D01*
X62021Y74112D01*
D24*
X62021Y74112D03*
D23*
X66040Y133350D02*
X88584Y133350D01*
X48260Y115570D02*
X48260Y80253D01*
D24*
X279897Y109220D03*
D23*
X283464Y112787D01*
X283464Y128905D01*
X88784Y128550D02*
X88504Y128270D01*
X66040Y128270D01*
X51308Y113538D01*
X51308Y85068D02*
X55742Y80634D01*
D24*
X55742Y80634D03*
D23*
X51308Y85068D02*
X51308Y113538D01*
D24*
X316230Y119380D03*
D23*
X316230Y128651D01*
X316484Y128905D01*
X349504Y128905D02*
X349504Y128270D01*
X178550Y88784D02*
X178550Y78220D01*
X172720Y72390D01*
D24*
X172720Y72390D03*
X349250Y116840D03*
D23*
X349250Y128016D01*
X349504Y128270D01*
X341630Y351790D02*
X330200Y351790D01*
X370840Y322580D02*
X370840Y160909D01*
X370840Y322580D02*
X341630Y351790D01*
X370840Y160909D02*
X359156Y149225D01*
D24*
X359410Y114300D03*
D23*
X362600Y111110D01*
X362600Y105830D01*
D24*
X269875Y90960D03*
D23*
X269640Y91195D01*
X260350Y91195D01*
X293370Y91195D02*
X303920Y91195D01*
X304800Y92075D01*
D24*
X304800Y92075D03*
X336462Y99215D03*
D23*
X343077Y105830D01*
X348600Y105830D01*
X336305Y91195D02*
X326390Y91195D01*
X339940Y94830D02*
X348600Y94830D01*
X339940Y94830D02*
X336305Y91195D01*
X260350Y108195D02*
X260096Y110481D01*
X260350Y108195D01*
X260096Y110481D02*
X260096Y149225D01*
X222250Y69607D02*
X222250Y63500D01*
X222250Y44450D01*
X215900Y38100D01*
X178510Y40565D02*
X178510Y54610D01*
X178510Y40565D02*
X180975Y38100D01*
X215900Y38100D01*
X222250Y69607D02*
X235193Y82550D01*
X252564Y87464D02*
X252564Y97142D01*
X260350Y104928D02*
X260350Y108195D01*
X260350Y104928D02*
X252564Y97142D01*
X247650Y82550D02*
X235193Y82550D01*
X247650Y82550D02*
X252564Y87464D01*
X293116Y108449D02*
X293116Y149225D01*
X293116Y108449D02*
X293370Y108195D01*
X168510Y54610D02*
X168510Y41040D01*
X225298Y43187D02*
X225298Y44323D01*
X225425Y44450D01*
X225298Y43187D02*
X217163Y35052D01*
X236329Y79375D02*
X276225Y79375D01*
X174498Y35052D02*
X168510Y41040D01*
X174498Y35052D02*
X217163Y35052D01*
X225425Y44450D02*
X225425Y68471D01*
X236329Y79375D01*
X276225Y79375D02*
X279400Y82550D01*
X279400Y94225D02*
X293370Y108195D01*
X279400Y94225D02*
X279400Y82550D01*
X326390Y148971D02*
X326136Y149225D01*
X326390Y148971D02*
X326390Y108195D01*
X158750Y54370D02*
X158510Y54610D01*
X158750Y41275D02*
X168275Y31750D01*
X219075Y31750D02*
X228600Y41275D01*
X228600Y66675D01*
X238125Y76200D01*
X307975Y76200D01*
X158750Y54370D02*
X158750Y41275D01*
X168275Y31750D02*
X219075Y31750D01*
X311150Y92955D02*
X326390Y108195D01*
X311150Y79375D02*
X307975Y76200D01*
X311150Y79375D02*
X311150Y92955D01*
M02*
