G04 EAGLE Gerber RS-274X export*
G75*
%MOMM*%
%FSLAX34Y34*%
%LPD*%
%IN*%
%IPPOS*%
%AMOC8*
5,1,8,0,0,1.08239X$1,22.5*%
G01*
%ADD10C,0.254000*%


D10*
X-12700Y74021D02*
X-12603Y71807D01*
X-12314Y69610D01*
X-11835Y67447D01*
X-11168Y65334D01*
X-10320Y63287D01*
X-9297Y61321D01*
X-8107Y59452D01*
X-6758Y57694D01*
X-5261Y56061D01*
X-5261Y56061D01*
X43361Y7440D01*
X44994Y5943D01*
X46752Y4594D01*
X48621Y3403D01*
X50587Y2380D01*
X52634Y1532D01*
X54747Y866D01*
X56910Y386D01*
X59107Y97D01*
X61321Y0D01*
X61321Y0D01*
X306979Y0D01*
X309193Y97D01*
X311390Y386D01*
X313553Y865D01*
X315666Y1532D01*
X317713Y2380D01*
X319679Y3403D01*
X321548Y4594D01*
X323306Y5942D01*
X324939Y7440D01*
X324940Y7440D01*
X373561Y56061D01*
X375058Y57694D01*
X376406Y59452D01*
X377597Y61321D01*
X378620Y63287D01*
X379468Y65334D01*
X380135Y67447D01*
X380614Y69610D01*
X380903Y71807D01*
X381000Y74021D01*
X381000Y74021D01*
X381000Y321410D01*
X380903Y323624D01*
X380614Y325821D01*
X380135Y327984D01*
X379468Y330098D01*
X378620Y332145D01*
X377597Y334110D01*
X376406Y335979D01*
X375058Y337737D01*
X373561Y339371D01*
X373502Y339429D01*
X357749Y355079D01*
X356111Y356571D01*
X354348Y357914D01*
X352476Y359098D01*
X350507Y360115D01*
X348457Y360956D01*
X346341Y361616D01*
X344176Y362088D01*
X341979Y362370D01*
X339848Y362460D01*
X315909Y362460D01*
X313695Y362363D01*
X311499Y362074D01*
X309335Y361595D01*
X307222Y360928D01*
X305175Y360080D01*
X303209Y359057D01*
X301340Y357866D01*
X299582Y356518D01*
X298158Y355227D01*
X297375Y354527D01*
X296534Y353897D01*
X295642Y353343D01*
X294704Y352868D01*
X293729Y352477D01*
X292724Y352173D01*
X291695Y351958D01*
X290652Y351833D01*
X289722Y351798D01*
X37383Y352217D01*
X33025Y352034D01*
X28699Y351472D01*
X24439Y350535D01*
X20277Y349230D01*
X16244Y347568D01*
X12372Y345560D01*
X8689Y343222D01*
X5224Y340573D01*
X2004Y337631D01*
X-949Y334420D01*
X-3610Y330964D01*
X-5960Y327289D01*
X-7980Y323424D01*
X-9656Y319396D01*
X-10975Y315239D01*
X-11926Y310982D01*
X-12502Y306658D01*
X-12700Y302301D01*
X-12700Y302217D01*
X-12700Y117475D01*
X-12700Y74021D01*
M02*
