G04 EAGLE Gerber RS-274X export*
G75*
%MOMM*%
%FSLAX34Y34*%
%LPD*%
%INSolderpaste Top*%
%IPPOS*%
%AMOC8*
5,1,8,0,0,1.08239X$1,22.5*%
G01*
%ADD10R,1.788300X0.363200*%
%ADD11R,0.363200X1.788300*%
%ADD12R,1.636400X0.300000*%
%ADD13R,1.000000X1.100000*%
%ADD14R,2.540000X1.270000*%
%ADD15R,1.100000X1.000000*%
%ADD16R,0.787400X0.889000*%
%ADD17R,0.900000X0.650000*%
%ADD18R,0.600000X2.000000*%
%ADD19R,2.500000X2.000000*%


D10*
X88784Y183550D03*
X88784Y178550D03*
X88784Y173550D03*
X88784Y168550D03*
X88784Y163550D03*
X88784Y158550D03*
X88784Y153550D03*
X88784Y148550D03*
X88784Y143550D03*
X88784Y138550D03*
X88784Y133550D03*
X88784Y128550D03*
X88784Y123550D03*
X88784Y118550D03*
X88784Y113550D03*
X88784Y108550D03*
D11*
X108550Y88784D03*
X113550Y88784D03*
X118550Y88784D03*
X123550Y88784D03*
X128550Y88784D03*
X133550Y88784D03*
X138550Y88784D03*
X143550Y88784D03*
X148550Y88784D03*
X153550Y88784D03*
X158550Y88784D03*
X163550Y88784D03*
X168550Y88784D03*
X173550Y88784D03*
X178550Y88784D03*
X183550Y88784D03*
D10*
X203316Y108550D03*
X203316Y113550D03*
X203316Y118550D03*
X203316Y123550D03*
X203316Y128550D03*
X203316Y133550D03*
X203316Y138550D03*
X203316Y143550D03*
X203316Y148550D03*
X203316Y153550D03*
X203316Y158550D03*
X203316Y163550D03*
X203316Y168550D03*
X203316Y173550D03*
X203316Y178550D03*
X203316Y183550D03*
D11*
X183550Y203316D03*
X178550Y203316D03*
X173550Y203316D03*
X168550Y203316D03*
X163550Y203316D03*
X158550Y203316D03*
X153550Y203316D03*
X148550Y203316D03*
X143550Y203316D03*
X138550Y203316D03*
X133550Y203316D03*
X128550Y203316D03*
X123550Y203316D03*
X118550Y203316D03*
X113550Y203316D03*
X108550Y203316D03*
D12*
X73056Y341980D03*
X73056Y336980D03*
X73056Y331980D03*
X73056Y326980D03*
X73056Y321980D03*
X73056Y316980D03*
X73056Y311980D03*
X73056Y306980D03*
X73056Y301980D03*
X73056Y296980D03*
X73056Y291980D03*
X73056Y286980D03*
X73056Y281980D03*
X73056Y276980D03*
X73056Y271980D03*
X73056Y266980D03*
X73056Y261980D03*
X73056Y256980D03*
X73056Y251980D03*
X73056Y246980D03*
X73056Y241980D03*
X73056Y236980D03*
X73056Y231980D03*
X73056Y226980D03*
X269844Y226980D03*
X269844Y231980D03*
X269844Y236980D03*
X269844Y241980D03*
X269844Y246980D03*
X269844Y251980D03*
X269844Y256980D03*
X269844Y261980D03*
X269844Y266980D03*
X269844Y271980D03*
X269844Y276980D03*
X269844Y281980D03*
X269844Y286980D03*
X269844Y291980D03*
X269844Y296980D03*
X269844Y301980D03*
X269844Y306980D03*
X269844Y311980D03*
X269844Y316980D03*
X269844Y321980D03*
X269844Y326980D03*
X269844Y331980D03*
X269844Y336980D03*
X269844Y341980D03*
D13*
X226060Y127880D03*
X226060Y110880D03*
X294640Y287410D03*
X294640Y304410D03*
X294640Y259960D03*
X294640Y242960D03*
D14*
X330200Y351790D03*
D15*
X66040Y107560D03*
X66040Y90560D03*
D16*
X316484Y128905D03*
X335788Y128905D03*
X326136Y149225D03*
D15*
X260350Y91195D03*
X260350Y108195D03*
X293370Y91195D03*
X293370Y108195D03*
X326390Y91195D03*
X326390Y108195D03*
D17*
X348600Y94830D03*
X362600Y94830D03*
X348600Y105830D03*
X362600Y105830D03*
D16*
X283464Y128905D03*
X302768Y128905D03*
X293116Y149225D03*
X349504Y128905D03*
X368808Y128905D03*
X359156Y149225D03*
X250444Y128905D03*
X269748Y128905D03*
X260096Y149225D03*
D18*
X98510Y54610D03*
X108510Y54610D03*
X118510Y54610D03*
X128510Y54610D03*
X138510Y54610D03*
X148510Y54610D03*
X158510Y54610D03*
X168510Y54610D03*
X178510Y54610D03*
X188510Y54610D03*
D19*
X201510Y14610D03*
X85510Y14610D03*
M02*
